<svg width="344" height="30" fill="none" xmlns="http://www.w3.org/2000/svg"><path d="M100.5 0H0v30h101l12.5-15-13-15z" fill="#0799EE"/><path d="M215.5 0H102l13 15-12.285 15H215.5L227 15 215.5 0z" fill="#DDF0FE"/><path d="M330.45 0H217l11.546 15L217 30h113.45L343 15 330.45 0z" fill="#DDF0FE"/><circle cx="13.5" cy="15.5" r="8.5" fill="#fff"/><circle cx="125.5" cy="15.5" r="8.5" fill="#fff"/><circle cx="240.5" cy="15.5" r="8.5" fill="#fff"/><path d="M14.271 20h-1.09v-7.225l-2.185.803v-.984l3.106-1.166h.17V20zm114.028 0h-5.59v-.78l2.953-3.28c.438-.497.738-.899.902-1.208.168-.312.252-.634.252-.966 0-.446-.134-.81-.404-1.096-.269-.285-.629-.428-1.078-.428-.539 0-.959.154-1.26.463-.297.305-.445.73-.445 1.277h-1.084c0-.785.252-1.42.756-1.904.508-.484 1.185-.726 2.033-.726.793 0 1.42.208 1.881.627.461.414.691.966.691 1.658 0 .84-.535 1.84-1.605 3l-2.285 2.478h4.283V20zm110.986-4.793h.815c.511-.008.914-.143 1.207-.404.293-.262.439-.616.439-1.06 0-1-.498-1.5-1.494-1.5-.469 0-.844.134-1.125.403-.277.266-.416.62-.416 1.061h-1.084c0-.676.246-1.236.738-1.682.496-.449 1.125-.673 1.887-.673.805 0 1.436.213 1.893.638.457.426.685 1.018.685 1.776 0 .37-.121.73-.363 1.078a2.157 2.157 0 01-.979.779c.469.149.83.395 1.084.738.258.344.387.764.387 1.26 0 .766-.25 1.373-.75 1.822-.5.45-1.15.674-1.951.674-.801 0-1.453-.217-1.957-.65-.5-.434-.75-1.006-.75-1.717h1.09c0 .45.146.809.439 1.078.293.27.686.404 1.178.404.523 0 .924-.136 1.201-.41.277-.273.416-.666.416-1.177 0-.497-.152-.877-.457-1.143-.305-.266-.744-.402-1.318-.41h-.815v-.885z" fill="#8C8C8C"/><path d="M42.297 14.606c0 .665-.107 1.242-.322 1.734-.215.488-.513.88-.894 1.177l1.182.927-.933.826-1.514-1.216a3.225 3.225 0 01-.537.044 2.959 2.959 0 01-1.577-.425 2.826 2.826 0 01-1.074-1.211c-.254-.527-.383-1.133-.386-1.816v-.352c0-.7.126-1.315.376-1.846.254-.534.61-.942 1.07-1.225a2.94 2.94 0 011.581-.43c.593 0 1.119.143 1.578.43.462.283.818.691 1.069 1.225.254.53.38 1.144.38 1.841v.317zm-1.484-.322c0-.745-.134-1.312-.4-1.699-.268-.387-.649-.581-1.143-.581-.492 0-.871.192-1.138.576-.267.38-.402.94-.405 1.68v.346c0 .726.133 1.29.4 1.69.267.4.651.6 1.152.6.492 0 .87-.192 1.133-.576.264-.387.397-.95.4-1.69v-.346zm5.73 3.179c-.349.423-.83.635-1.446.635-.566 0-1-.163-1.299-.489-.296-.325-.447-.802-.454-1.43v-3.462h1.411v3.413c0 .55.25.825.752.825.479 0 .808-.166.987-.498v-3.74h1.416V18h-1.33l-.039-.537zm5.593.537a1.567 1.567 0 01-.142-.474c-.342.381-.786.572-1.333.572-.518 0-.947-.15-1.29-.45a1.447 1.447 0 01-.507-1.132c0-.56.207-.99.62-1.29.417-.299 1.017-.45 1.802-.454h.65v-.302c0-.244-.064-.44-.191-.586-.124-.147-.32-.22-.59-.22-.239 0-.426.057-.562.171a.583.583 0 00-.2.469H48.98c0-.306.095-.59.283-.85.19-.26.456-.464.801-.61a2.89 2.89 0 011.162-.225c.651 0 1.167.165 1.548.493.384.326.576.785.576 1.377v2.29c.004.502.074.88.21 1.138V18h-1.425zm-1.167-.981c.208 0 .4-.046.576-.137a.93.93 0 00.39-.376v-.908h-.527c-.706 0-1.082.244-1.128.732l-.005.083c0 .176.062.32.186.435.123.114.293.17.508.17zm5.056.981h-1.416v-7.5h1.416V18zm2.756 0h-1.416v-5.283h1.416V18zm-1.5-6.65a.7.7 0 01.21-.523c.144-.137.338-.205.582-.205.24 0 .433.068.576.205a.69.69 0 01.215.523.69.69 0 01-.22.527c-.143.137-.334.205-.571.205-.238 0-.43-.068-.576-.205a.697.697 0 01-.215-.527zM60.435 18v-4.248h-.786v-1.035h.786v-.45c0-.592.169-1.05.507-1.376.342-.33.82-.493 1.431-.493.195 0 .435.032.718.097l-.015 1.094a1.799 1.799 0 00-.43-.044c-.53 0-.795.249-.795.747v.425h1.05v1.035h-1.05V18h-1.416zm5.27-1.997l.977-3.286h1.514L66.07 18.82l-.117.279c-.316.69-.837 1.035-1.563 1.035-.205 0-.413-.031-.625-.093v-1.07l.215.006c.267 0 .465-.041.596-.122a.797.797 0 00.312-.406l.166-.434-1.85-5.298h1.518l.981 3.286zM77.316 18H75.85l-2.852-4.678V18h-1.465v-7.11H73l2.857 4.688v-4.687h1.46V18zm1.066-2.69c0-.524.101-.992.303-1.402a2.22 2.22 0 01.87-.952c.38-.225.821-.337 1.322-.337.713 0 1.294.218 1.744.654.452.437.705 1.03.757 1.778l.01.361c0 .81-.227 1.462-.68 1.953-.452.489-1.059.733-1.82.733-.762 0-1.371-.244-1.827-.733-.452-.488-.679-1.152-.679-1.992v-.063zm1.412.102c0 .501.094.885.283 1.152.189.264.459.396.81.396.342 0 .609-.13.801-.39.192-.264.288-.684.288-1.26 0-.492-.096-.873-.288-1.143-.192-.27-.462-.405-.81-.405-.346 0-.612.135-.801.405-.189.267-.283.682-.283 1.245zm9.157.67l.694-3.365h1.362L89.659 18h-1.181l-1.001-3.325L86.476 18h-1.177l-1.348-5.283h1.363l.688 3.36.967-3.36h1.02l.962 3.364z" fill="#fff"/><path d="M145.321 17.135c0-.277-.097-.489-.293-.635-.195-.15-.547-.306-1.054-.469a7.588 7.588 0 01-1.206-.488c-.808-.436-1.211-1.024-1.211-1.763 0-.384.107-.726.322-1.025.218-.303.529-.539.933-.708a3.51 3.51 0 011.367-.254c.508 0 .96.093 1.357.278.397.183.705.441.923.777.221.335.332.716.332 1.142h-1.465c0-.325-.102-.578-.307-.757-.206-.182-.494-.273-.865-.273-.358 0-.636.076-.835.23a.711.711 0 00-.298.595c0 .231.116.425.347.581.235.157.578.303 1.03.44.834.25 1.441.561 1.822.932s.571.834.571 1.387c0 .615-.233 1.099-.698 1.45-.466.349-1.092.523-1.88.523-.547 0-1.045-.1-1.494-.298-.449-.202-.793-.477-1.031-.825a2.12 2.12 0 01-.351-1.211h1.47c0 .784.468 1.176 1.406 1.176.348 0 .62-.07.815-.21a.696.696 0 00.293-.595zm4.905 1.963c-.775 0-1.406-.238-1.895-.713-.485-.476-.727-1.109-.727-1.9v-.136c0-.531.102-1.005.308-1.421a2.24 2.24 0 01.869-.967 2.444 2.444 0 011.289-.342c.722 0 1.29.228 1.704.684.416.455.625 1.102.625 1.938v.576h-3.364c.045.345.182.622.41.83.231.209.522.313.874.313.543 0 .968-.197 1.274-.59l.694.775c-.212.3-.499.534-.86.704a2.843 2.843 0 01-1.201.249zm-.161-4.336a.892.892 0 00-.684.283c-.172.189-.283.459-.332.81h1.963v-.112c-.006-.312-.091-.553-.254-.723-.163-.172-.394-.258-.693-.258zM154.794 19h-1.416v-7.5h1.416V19zm3.698.098c-.774 0-1.406-.238-1.894-.713-.485-.476-.728-1.109-.728-1.9v-.136c0-.531.103-1.005.308-1.421.205-.42.495-.743.869-.967a2.446 2.446 0 011.289-.342c.723 0 1.291.228 1.704.684.417.455.625 1.102.625 1.938v.576h-3.364c.046.345.182.622.41.83.231.209.523.313.874.313.544 0 .969-.197 1.275-.59l.693.775a2.14 2.14 0 01-.859.704 2.847 2.847 0 01-1.202.249zm-.161-4.336a.889.889 0 00-.683.283c-.173.189-.284.459-.332.81h1.963v-.112c-.007-.312-.092-.553-.254-.723-.163-.172-.394-.258-.694-.258zm5.437 3.198c.261 0 .472-.072.635-.215a.754.754 0 00.254-.571h1.323a1.82 1.82 0 01-.293.986 1.955 1.955 0 01-.791.694c-.332.162-.7.244-1.103.244-.756 0-1.351-.24-1.788-.718-.436-.482-.654-1.146-.654-1.992v-.093c0-.814.217-1.463.65-1.948.433-.485 1.027-.728 1.782-.728.661 0 1.19.189 1.587.566.4.375.604.875.61 1.5h-1.323c-.007-.274-.091-.495-.254-.665a.846.846 0 00-.645-.258c-.328 0-.577.12-.747.361-.166.238-.249.625-.249 1.162v.147c0 .543.083.934.249 1.172.166.237.419.356.757.356zm4.807-5.542v1.299h.904v1.035h-.904v2.637c0 .195.038.335.113.42.074.084.218.127.429.127.156 0 .295-.012.415-.035v1.07a2.9 2.9 0 01-.854.127c-.99 0-1.494-.5-1.514-1.5v-2.846h-.771v-1.035h.771v-1.299h1.411zm5.938 4.077V19h-1.465v-7.11h2.773c.534 0 1.003.098 1.406.294.407.195.72.473.938.835.218.358.327.766.327 1.225 0 .697-.239 1.247-.718 1.65-.475.4-1.134.601-1.977.601h-1.284zm0-1.186h1.308c.387 0 .682-.092.884-.274.205-.182.308-.443.308-.781 0-.348-.103-.63-.308-.845-.205-.215-.488-.325-.85-.332h-1.342v2.232zm8 3.691a1.59 1.59 0 01-.142-.474c-.342.381-.786.572-1.333.572-.517 0-.947-.15-1.289-.45a1.45 1.45 0 01-.508-1.132c0-.56.207-.99.621-1.29.416-.299 1.017-.45 1.801-.453h.65v-.303c0-.244-.064-.44-.191-.586-.123-.147-.32-.22-.591-.22-.237 0-.424.057-.561.171a.582.582 0 00-.2.469h-1.411c0-.306.094-.59.283-.85.189-.26.456-.464.801-.61.345-.15.732-.225 1.162-.225.651 0 1.167.165 1.548.493.384.326.576.785.576 1.377v2.29c.003.502.073.88.21 1.138V19h-1.426zm-1.167-.981c.208 0 .4-.046.576-.137a.93.93 0 00.391-.376v-.908h-.528c-.706 0-1.082.244-1.128.732l-.004.083c0 .176.061.32.185.435.124.114.293.17.508.17zm5.764-.059c.26 0 .472-.072.635-.215a.757.757 0 00.254-.571h1.323a1.82 1.82 0 01-.293.986 1.955 1.955 0 01-.791.694c-.332.162-.7.244-1.104.244-.755 0-1.351-.24-1.787-.718-.436-.482-.654-1.146-.654-1.992v-.093c0-.814.216-1.463.649-1.948.433-.485 1.027-.728 1.783-.728.66 0 1.189.189 1.587.566.4.375.603.875.61 1.5h-1.323c-.007-.274-.092-.495-.254-.665a.846.846 0 00-.645-.258c-.329 0-.578.12-.747.361-.166.238-.249.625-.249 1.162v.147c0 .543.083.934.249 1.172.166.237.418.356.757.356zm5.036-1.08l-.507.509V19h-1.411v-7.5h1.411v4.155l.273-.351 1.353-1.587h1.694l-1.909 2.202L195.125 19h-1.621l-1.358-2.12zm6.585 2.12a1.59 1.59 0 01-.142-.474c-.342.381-.786.572-1.333.572-.517 0-.947-.15-1.289-.45a1.45 1.45 0 01-.508-1.132c0-.56.207-.99.62-1.29.417-.299 1.018-.45 1.802-.453h.65v-.303c0-.244-.064-.44-.191-.586-.123-.147-.32-.22-.591-.22-.237 0-.424.057-.561.171a.582.582 0 00-.2.469h-1.411c0-.306.094-.59.283-.85a1.85 1.85 0 01.801-.61c.345-.15.732-.225 1.162-.225.651 0 1.167.165 1.548.493.384.326.576.785.576 1.377v2.29c.003.502.073.88.21 1.138V19h-1.426zm-1.167-.981c.208 0 .4-.046.576-.137a.93.93 0 00.391-.376v-.908h-.528c-.706 0-1.082.244-1.128.732l-.004.083c0 .176.061.32.185.435.124.114.293.17.508.17zm3.362-1.7c0-.81.192-1.463.576-1.958.387-.495.908-.742 1.562-.742.58 0 1.031.199 1.353.596l.058-.498h1.28v5.107c0 .462-.106.864-.318 1.206a2.008 2.008 0 01-.883.781c-.381.18-.827.27-1.338.27a2.87 2.87 0 01-1.133-.235c-.368-.153-.646-.352-.835-.596l.625-.86c.351.395.778.591 1.279.591.374 0 .666-.1.874-.302.209-.199.313-.482.313-.85v-.283c-.326.368-.754.552-1.285.552a1.877 1.877 0 01-1.542-.742c-.391-.499-.586-1.158-.586-1.978v-.059zm1.411.103c0 .478.096.854.288 1.128.192.27.456.405.791.405.43 0 .737-.161.923-.483V15.25c-.189-.322-.493-.483-.913-.483a.928.928 0 00-.801.415c-.192.276-.288.69-.288 1.24zm7.038 2.676c-.775 0-1.406-.238-1.894-.713-.485-.476-.728-1.109-.728-1.9v-.136c0-.531.103-1.005.308-1.421.205-.42.495-.743.869-.967a2.444 2.444 0 011.289-.342c.723 0 1.291.228 1.704.684.417.455.625 1.102.625 1.938v.576h-3.364c.045.345.182.622.41.83.231.209.522.313.874.313.544 0 .968-.197 1.274-.59l.694.775a2.14 2.14 0 01-.86.704 2.84 2.84 0 01-1.201.249zm-.161-4.336a.892.892 0 00-.684.283c-.172.189-.283.459-.332.81h1.963v-.112c-.006-.312-.091-.553-.254-.723-.162-.172-.393-.258-.693-.258zm51.002 1.87c-.056.765-.339 1.367-.85 1.806-.508.44-1.178.66-2.012.66-.911 0-1.629-.306-2.153-.918-.521-.616-.781-1.459-.781-2.53v-.434c0-.684.12-1.286.361-1.807.241-.52.585-.92 1.031-1.196.449-.28.97-.42 1.562-.42.82 0 1.481.22 1.982.66.502.439.791 1.056.87 1.85h-1.465c-.036-.46-.165-.791-.386-.996-.218-.209-.552-.313-1.001-.313-.488 0-.854.176-1.099.527-.24.349-.364.89-.371 1.627v.537c0 .768.116 1.33.347 1.684.234.355.602.532 1.103.532.453 0 .79-.102 1.011-.307.225-.209.353-.53.386-.962h1.465zm.749-.322c0-.524.101-.992.303-1.402.202-.41.492-.727.869-.952.381-.225.822-.337 1.323-.337.713 0 1.294.218 1.744.654.452.437.704 1.03.756 1.778l.01.361c0 .81-.226 1.462-.679 1.953-.452.489-1.059.733-1.821.733s-1.37-.244-1.826-.733c-.453-.488-.679-1.152-.679-1.992v-.063zm1.411.102c0 .501.095.886.284 1.152.188.264.459.396.81.396.342 0 .609-.13.801-.39.192-.264.288-.684.288-1.26 0-.492-.096-.873-.288-1.143-.192-.27-.462-.405-.811-.405-.345 0-.612.135-.8.405-.189.267-.284.682-.284 1.245zm5.862-2.695l.044.61c.378-.472.884-.708 1.519-.708.559 0 .976.165 1.25.493.273.33.413.82.42 1.475V19h-1.412v-3.379c0-.3-.065-.516-.195-.65-.13-.136-.347-.204-.649-.204a.972.972 0 00-.894.507V19h-1.411v-5.283h1.328zM272.987 19v-4.248h-.787v-1.035h.787v-.244c.006-.664.209-1.176.61-1.534.404-.36.972-.541 1.704-.541.439 0 .973.095 1.602.287l-.206 1.167a5.824 5.824 0 00-.742-.18 3.443 3.443 0 00-.566-.044c-.658 0-.986.291-.986.874v.215h1.04v1.035h-1.04V19h-1.416zm4.575 0h-1.416v-5.283h1.416V19zm4.235-3.96a3.834 3.834 0 00-.507-.039c-.534 0-.884.18-1.05.542V19h-1.411v-5.283h1.333l.039.63c.283-.485.675-.728 1.177-.728.156 0 .302.021.439.064l-.02 1.357zm2.107-1.323l.044.59c.375-.458.881-.688 1.519-.688.68 0 1.147.269 1.401.806.371-.537.9-.806 1.587-.806.573 0 .999.168 1.279.503.28.332.42.833.42 1.504V19h-1.416v-3.37c0-.299-.058-.517-.176-.653-.117-.14-.323-.21-.62-.21-.423 0-.716.201-.879.605l.005 3.628h-1.411v-3.364c0-.306-.06-.528-.18-.664-.121-.137-.326-.205-.616-.205-.4 0-.69.166-.869.498V19h-1.411v-5.283h1.323zm15.962 1.89c0 .7-.124 1.313-.371 1.84a2.784 2.784 0 01-1.065 1.221c-.459.286-.986.43-1.582.43a2.96 2.96 0 01-1.577-.425 2.827 2.827 0 01-1.074-1.211c-.254-.527-.382-1.133-.386-1.816v-.352c0-.7.126-1.315.376-1.846.254-.534.611-.942 1.07-1.225.462-.287.989-.43 1.582-.43.592 0 1.118.143 1.577.43.462.283.819.691 1.069 1.225.254.53.381 1.144.381 1.841v.317zm-1.484-.323c0-.745-.134-1.312-.401-1.699s-.648-.581-1.142-.581c-.492 0-.871.192-1.138.576-.267.38-.402.94-.405 1.68v.346c0 .726.133 1.29.4 1.69.267.4.651.6 1.152.6.492 0 .87-.192 1.133-.576.264-.387.397-.95.401-1.69v-.346zm5.524-.244a3.834 3.834 0 00-.507-.039c-.534 0-.884.18-1.05.542V19h-1.411v-5.283h1.333l.039.63c.283-.485.675-.728 1.177-.728.156 0 .302.021.439.064l-.02 1.357zm.467 1.28c0-.824.184-1.48.551-1.968.372-.489.878-.733 1.519-.733.514 0 .939.192 1.274.576V11.5h1.416V19h-1.274l-.068-.561c-.352.439-.804.659-1.358.659a1.802 1.802 0 01-1.499-.733c-.374-.491-.561-1.173-.561-2.046zm1.411.102c0 .495.086.874.259 1.138.172.263.423.395.752.395.436 0 .743-.184.922-.552v-2.085c-.175-.367-.48-.551-.913-.551-.68 0-1.02.551-1.02 1.655zm6.975 2.676c-.775 0-1.406-.238-1.895-.713-.485-.476-.727-1.109-.727-1.9v-.136c0-.531.102-1.005.307-1.421.205-.42.495-.743.869-.967a2.45 2.45 0 011.29-.342c.722 0 1.29.228 1.704.684.416.455.625 1.102.625 1.938v.576h-3.365c.046.345.183.622.411.83.231.209.522.313.874.313.543 0 .968-.197 1.274-.59l.693.775c-.211.3-.498.534-.859.704a2.843 2.843 0 01-1.201.249zm-.161-4.336a.892.892 0 00-.684.283c-.172.189-.283.459-.332.81h1.963v-.112c-.007-.312-.091-.553-.254-.723-.163-.172-.394-.258-.693-.258zm6.208.278a3.835 3.835 0 00-.508-.039c-.534 0-.884.18-1.05.542V19h-1.411v-5.283h1.333l.039.63c.284-.485.676-.728 1.177-.728.156 0 .303.021.44.064l-.02 1.357z" fill="#8C8C8C"/><path d="M332 0l12 14.5V0h-12zm12 30h-12l12-14.5V30z" fill="#DDF0FE" fill-opacity=".4"/></svg>