<svg width="60" height="62" viewBox="0 0 60 62" fill="none" xmlns="http://www.w3.org/2000/svg">
<path d="M60 30.5356C60 47.4 46.5685 61.0713 30 61.0713C13.4315 61.0713 0 47.4 0 30.5356C0 13.6713 13.4315 0 30 0C46.5685 0 60 13.6713 60 30.5356Z" fill="#FFE900"/>
<path fill-rule="evenodd" clip-rule="evenodd" d="M46.9483 18.068C48.4718 19.4444 48.6416 21.854 47.3276 23.4499L30.6748 43.6749C29.4104 45.2106 27.2202 45.442 25.6885 44.2018L13.1989 34.0893C11.6071 32.8005 11.3141 30.4039 12.5445 28.7365C13.7748 27.069 16.0627 26.7621 17.6544 28.051L27.4126 35.9519L41.8106 18.4653C43.1246 16.8694 45.4248 16.6915 46.9483 18.068Z" fill="white"/>
</svg>
