<svg width="100" height="298" fill="none" xmlns="http://www.w3.org/2000/svg"><path d="M6.317 52.788c10.551 49.254 33.617 123.564 38.404 138.817 1.66 5.289 9.084 5.401 10.878.131 5.117-15.03 29.59-88.219 38.406-139.133 2.715-15.68-2.194-27.858-11.29-35.944C73.831 8.763 61.39 5.137 49.363 5.252c-12.023.115-24.34 3.974-32.963 11.95C7.556 25.379 3.042 37.499 6.317 52.788z" fill="#01CCFE" stroke="#000" stroke-width="9.503" stroke-linecap="round" stroke-linejoin="round"/><path d="M47 293.819c13.421 0 24.001-11.322 24.001-24.91 0-13.588-10.58-24.91-24.001-24.91-13.421 0-24.001 11.322-24.001 24.91 0 13.588 10.58 24.91 24.001 24.91z" fill="#01CCFE" stroke="#000" stroke-width="8.002"/></svg>