<?xml version="1.0" encoding="utf-8"?><svg xmlns="http://www.w3.org/2000/svg" xmlns:xlink="http://www.w3.org/1999/xlink"><symbol viewBox="0 0 32 32" id="arrow" xmlns="http://www.w3.org/2000/svg"><path d="M10.4 7.2a1 1 0 011.319.104l.081.096 6 8a1 1 0 01.072 1.09l-.072.11-6 8a1 1 0 01-1.669-1.095l.07-.105 5.55-7.4-5.55-7.4a1 1 0 01.103-1.318L10.4 7.2z"/></symbol><symbol viewBox="0 0 36 40" id="b-1" xmlns="http://www.w3.org/2000/svg"><path fill-rule="evenodd" clip-rule="evenodd" d="M35.5 8a7.5 7.5 0 10-14.575 2.496l-7.396 4.436a7.5 7.5 0 100 10.135l7.396 4.438a7.5 7.5 0 101.546-2.572l-7.396-4.438A7.49 7.49 0 0015.5 20a7.49 7.49 0 00-.425-2.495l7.395-4.438A7.5 7.5 0 0035.5 8zm-12 24a4.5 4.5 0 119 0 4.5 4.5 0 01-9 0zM8 15.5a4.5 4.5 0 100 9 4.5 4.5 0 000-9zM23.5 8a4.5 4.5 0 11.77 2.515 1.515 1.515 0 00-.106-.213 1.193 1.193 0 00-.138-.189A4.48 4.48 0 0123.5 8z"/></symbol><symbol viewBox="0 0 42 42" id="b-2" xmlns="http://www.w3.org/2000/svg"><path fill-rule="evenodd" clip-rule="evenodd" d="M22.493 1.856A1.5 1.5 0 0019.5 2v5.582c-6.257.692-11.226 5.66-11.918 11.918H2l-.144.007A1.5 1.5 0 002 22.5h5.582c.692 6.258 5.661 11.226 11.918 11.918V40l.007.145A1.5 1.5 0 0022.5 40v-5.582c6.258-.692 11.226-5.66 11.918-11.918H40l.145-.007A1.5 1.5 0 0040 19.5h-5.582c-.692-6.257-5.66-11.226-11.918-11.918V2l-.007-.144zM22.5 14l.001-3.393a10.507 10.507 0 018.893 8.893H28l-.145.007A1.5 1.5 0 0028 22.5l3.393.001a10.507 10.507 0 01-8.892 8.892L22.5 28l-.007-.145A1.5 1.5 0 0019.5 28v3.394a10.507 10.507 0 01-8.893-8.893L14 22.5l.145-.007A1.5 1.5 0 0014 19.5h-3.394a10.507 10.507 0 018.894-8.894V14l.007.145A1.5 1.5 0 0022.5 14z"/></symbol><symbol viewBox="0 0 28 38" id="b-3" xmlns="http://www.w3.org/2000/svg"><path fill-rule="evenodd" clip-rule="evenodd" d="M22 .5a1.5 1.5 0 011.493 1.356L23.5 2v6a3.493 3.493 0 01-1.256 2.686c.138.337.224.702.248 1.083L22.5 12v1c0 .883-.327 1.69-.866 2.305l3.577 13.41a3.502 3.502 0 012.283 3.08L27.5 32v4a1.5 1.5 0 01-1.355 1.493L26 37.5H2a1.5 1.5 0 01-1.493-1.355L.5 36v-4c0-1.507.953-2.792 2.29-3.285l3.576-13.41a3.485 3.485 0 01-.86-2.086L5.5 13v-1c0-.465.09-.91.256-1.316a3.488 3.488 0 01-1.25-2.47L4.5 8V2A1.5 1.5 0 015.856.507L6 .5h16zm2 31H4a.5.5 0 00-.492.41L3.5 32v2.5h21V32a.5.5 0 00-.326-.469l-.084-.023L24 31.5zm-14.848-15h9.695l3.2 12H5.952l3.2-12zm9.848-5H9a.5.5 0 00-.492.41L8.5 12v1a.5.5 0 00.41.492L9 13.5h10a.5.5 0 00.492-.41L19.5 13v-1a.5.5 0 00-.41-.492L19 11.5zm-11.5-8h2V5l.007.144A1.5 1.5 0 0012.5 5V3.5h3V5l.007.144A1.5 1.5 0 0018.5 5V3.5h2V8l-.008.09A.5.5 0 0120 8.5H8l-.09-.008-.084-.023A.5.5 0 017.5 8V3.5z"/></symbol><symbol viewBox="0 0 38 34" id="b-4" xmlns="http://www.w3.org/2000/svg"><path fill-rule="evenodd" clip-rule="evenodd" d="M37.493 1.856A1.5 1.5 0 0036 .5H2l-.144.007A1.5 1.5 0 00.5 2L.499 8.081c.016.329.142.66.402.94l12.598 13.567L13.5 32l.005.13a1.5 1.5 0 002.022 1.274l8-3 .131-.056A1.5 1.5 0 0024.5 29l-.001-6.411 12.6-13.568.107-.128c.228-.304.317-.654.293-.991L37.5 2l-.007-.144zM16.5 23.5h5l.001 4.46-5 1.875L16.5 23.5zm16.06-14H5.44l10.212 10.999h6.693L32.559 9.5zM3.5 3.5h31v3h-31v-3z"/></symbol><symbol viewBox="0 0 28 38" id="b-5" xmlns="http://www.w3.org/2000/svg"><path fill-rule="evenodd" clip-rule="evenodd" d="M16 .5a5.5 5.5 0 015.496 5.279L21.5 6v4a7.465 7.465 0 01-1.231 4.12l.174.05.873.27c3.597 1.112 6.07 4.637 6.18 8.656l.004.281V36a1.5 1.5 0 01-1.355 1.493L26 37.5H2a1.5 1.5 0 01-1.493-1.355L.5 36V23.377c0-4.041 2.39-7.632 5.935-8.855l.249-.082.873-.27.174-.05a7.46 7.46 0 01-1.224-3.796L6.5 10V6A5.5 5.5 0 0111.779.504L12 .5h4zm1.652 16.052A7.466 7.466 0 0114 17.5a7.466 7.466 0 01-3.646-.944l.404-.079c-.585.103-1.166.234-1.741.392l-.574.168-.874.27c-2.307.713-3.966 3.06-4.064 5.811l-.005.26V34.5l3-.001V25a1.5 1.5 0 012.993-.145L9.5 25v9.499h9V25a1.5 1.5 0 012.993-.145L21.5 25v9.499l3 .001V23.377c0-2.774-1.59-5.185-3.855-5.999l-.214-.071-.874-.27c-.46-.142-.923-.267-1.39-.373l-.515-.112zM12 3.5h4l.164.005A2.5 2.5 0 0118.5 6v4l-.005.212A4.5 4.5 0 019.5 10V6l.005-.164A2.5 2.5 0 0112 3.5z"/></symbol><symbol viewBox="0 0 33 33" id="b-6" xmlns="http://www.w3.org/2000/svg"><path fill-rule="evenodd" clip-rule="evenodd" d="M14 .5C21.456.5 27.5 6.544 27.5 14c0 3.188-1.105 6.117-2.953 8.427l7.484 7.483a1.5 1.5 0 01-2.007 2.224l-.114-.103-7.483-7.483A13.442 13.442 0 0114 27.5C6.544 27.5.5 21.456.5 14S6.544.5 14 .5zm0 3C8.201 3.5 3.5 8.201 3.5 14S8.201 24.5 14 24.5 24.5 19.799 24.5 14 19.799 3.5 14 3.5zM8.5 14a1.5 1.5 0 00-3 0 8.5 8.5 0 008.5 8.5 1.5 1.5 0 000-3A5.5 5.5 0 018.5 14z"/></symbol><symbol viewBox="0 0 32 32" id="black-tg" xmlns="http://www.w3.org/2000/svg"><path fill-rule="evenodd" clip-rule="evenodd" d="M16 0c8.837 0 16 7.163 16 16s-7.163 16-16 16S0 24.837 0 16 7.163 0 16 0zm5.238 10l-.13.008-.095.013-.165.033-.128.032-.307.094-.286.1-.606.232-.8.327-1.521.647-2.12.925-4.023 1.81-3.026 1.375c-.654.272-.996.538-1.027.798-.042.344.27.525.75.7l.278.095.464.154c.705.24 1.654.52 2.147.532.448.01.947-.183 1.498-.579l3.86-2.708 1.468-1.008.433-.278.065-.033c.086-.02.205-.046.286.029.08.075.073.217.064.255-.009.041-.08.136-.196.27l-.206.23-.263.279-.473.484-1.08 1.073-1.587 1.552-.162.17-.387.394-.135.15-.118.146c-.323.437-.342.857.504 1.44l.725.506 1.614 1.144.907.631.47.347c.507.373.982.68 1.555.625.369-.036.75-.399.944-1.481l.304-1.763.355-2.158.287-1.833.136-.905.186-1.295.155-1.168.082-.681c.023-.212.043-.407.06-.582.018-.2-.005-.456-.024-.569a.619.619 0 00-.196-.391c-.166-.14-.421-.17-.536-.168z"/></symbol><symbol viewBox="0 0 32 32" id="black-wa" xmlns="http://www.w3.org/2000/svg"><path fill-rule="evenodd" clip-rule="evenodd" d="M16 0c8.837 0 16 7.163 16 16s-7.163 16-16 16S0 24.837 0 16 7.163 0 16 0zm.033 8c-4.39 0-7.964 3.556-7.966 7.928a7.89 7.89 0 001.063 3.963L8 24l4.223-1.102a7.984 7.984 0 003.474.957l.337.008c4.39 0 7.964-3.557 7.966-7.929 0-2.118-.827-4.11-2.331-5.609A7.934 7.934 0 0016.033 8zm.003 1.34c1.769 0 3.431.686 4.681 1.932a6.534 6.534 0 011.938 4.662c-.002 3.556-2.847 6.463-6.39 6.586l-.234.003a6.637 6.637 0 01-3.37-.918l-.242-.143-2.506.654.669-2.431-.158-.25a6.551 6.551 0 01-1.012-3.507c.001-3.633 2.972-6.589 6.624-6.589zm-2.823 2.927a.733.733 0 00-.53.247l-.143.155-.12.145c-.206.273-.434.703-.434 1.353 0 .67.337 1.325.58 1.712l.12.183.337.467.144.188.175.219.208.243.115.129.252.267c.577.59 1.355 1.234 2.282 1.633.135.058.263.11.382.156l.334.123.15.051.268.087c.477.15.911.13 1.254.078.383-.056 1.178-.479 1.344-.941.166-.463.166-.86.116-.942-.03-.05-.09-.088-.176-.131l-1.127-.547-.27-.126-.169-.072c-.182-.066-.315-.1-.447.099a3.33 3.33 0 01-.139.186l-.183.227-.309.364c-.1.113-.199.141-.35.084l-.416-.184-.2-.098a5.155 5.155 0 01-1.699-1.416l-.188-.252a6.087 6.087 0 01-.08-.113l-.125-.193-.081-.135c-.116-.198-.013-.305.087-.404l.095-.104.204-.243a.937.937 0 00.112-.159l.087-.171a.339.339 0 00.01-.286l-.261-.616-.38-.916c-.113-.27-.227-.326-.327-.337l-.37-.01h-.132z"/></symbol><symbol viewBox="0 0 20 16" id="burger" xmlns="http://www.w3.org/2000/svg"><path fill-rule="evenodd" clip-rule="evenodd" d="M17 14a1 1 0 110 2H3a1 1 0 110-2h14zm2-7a1 1 0 110 2H1a1 1 0 110-2h18zm-2-7a1 1 0 110 2H3a1 1 0 010-2h14z"/></symbol><symbol viewBox="0 0 18 18" id="close" xmlns="http://www.w3.org/2000/svg"><path d="M1.613.21l.094.083L9 7.585 16.293.293a1 1 0 011.497 1.32l-.083.094L10.415 9l7.292 7.293a1 1 0 01-1.32 1.497l-.094-.083L9 10.415l-7.293 7.292a1 1 0 01-1.497-1.32l.083-.094L7.585 9 .293 1.707A1 1 0 011.613.21z"/></symbol><symbol viewBox="0 0 18 8" id="down" xmlns="http://www.w3.org/2000/svg"><path d="M17.8.4a1 1 0 01-.104 1.318L17.6 1.8l-8 6a1 1 0 01-1.09.072L8.4 7.8l-8-6A1 1 0 011.495.131L1.6.2 9 5.75 16.4.2a1 1 0 011.318.104L17.8.4z"/></symbol><symbol viewBox="0 0 8 18" id="next" xmlns="http://www.w3.org/2000/svg"><path d="M.4.2a1 1 0 011.32.104L1.8.4l6 8a1 1 0 01.072 1.09L7.8 9.6l-6 8a1 1 0 01-1.669-1.095l.07-.105L5.75 9 .2 1.6A1 1 0 01.303.282L.4.2z"/></symbol><symbol viewBox="0 0 8 18" id="prev" xmlns="http://www.w3.org/2000/svg"><path d="M7.6.2a1 1 0 00-1.318.104L6.2.4l-6 8a1 1 0 00-.072 1.09L.2 9.6l6 8a1 1 0 001.669-1.095L7.8 16.4 2.25 9 7.8 1.6A1 1 0 007.696.282L7.6.2z"/></symbol><symbol viewBox="0 0 20 17" id="tg" xmlns="http://www.w3.org/2000/svg"><path d="M1.375 7.318c5.369-2.399 8.949-3.98 10.74-4.744C17.229.392 18.292.013 18.985 0c.152-.003.493.036.713.22.186.155.238.364.262.511.025.147.055.482.031.744-.277 2.987-1.476 10.235-2.086 13.58-.259 1.416-.767 1.89-1.259 1.937-1.07.1-1.882-.725-2.917-1.422-1.621-1.09-2.537-1.768-4.11-2.831-1.818-1.23-.64-1.905.396-3.009.272-.289 4.984-4.685 5.075-5.083.011-.05.022-.236-.086-.334-.107-.098-.266-.065-.381-.038-.163.038-2.752 1.793-7.768 5.266-.735.518-1.4.77-1.997.757-.658-.015-1.923-.382-2.863-.695-1.153-.385-2.07-.588-1.99-1.241.041-.34.498-.688 1.37-1.044z"/></symbol><symbol viewBox="0 0 18 8" id="up" xmlns="http://www.w3.org/2000/svg"><path d="M.2 7.6a1 1 0 01.104-1.32L.4 6.2l8-6A1 1 0 019.49.128L9.6.2l8 6a1 1 0 01-1.095 1.669l-.105-.07L9 2.25 1.6 7.8a1 1 0 01-1.32-.103L.2 7.6z"/></symbol><symbol viewBox="0 0 20 20" id="wa" xmlns="http://www.w3.org/2000/svg"><path fill-rule="evenodd" clip-rule="evenodd" d="M14.582 11.985c-.249-.124-1.472-.723-1.7-.806-.228-.082-.394-.123-.56.124-.166.248-.643.806-.788.971-.145.166-.29.186-.54.062-.248-.124-1.05-.385-2-1.229-.74-.656-1.24-1.467-1.384-1.715-.145-.248-.016-.382.109-.506.112-.11.249-.289.373-.433.124-.145.166-.248.249-.414.083-.165.041-.31-.02-.433-.063-.124-.56-1.343-.768-1.84-.202-.482-.407-.416-.56-.424a10.021 10.021 0 00-.477-.009.916.916 0 00-.663.31c-.228.248-.871.847-.871 2.066 0 1.219.891 2.396 1.016 2.562.124.165 1.754 2.666 4.25 3.739.594.255 1.058.407 1.419.521.596.189 1.138.162 1.567.098.478-.07 1.472-.599 1.68-1.177.207-.579.207-1.074.145-1.178-.063-.103-.228-.165-.477-.289zm-4.54 6.17h-.003a8.295 8.295 0 01-4.213-1.149l-.302-.178-3.133.817.836-3.04-.197-.31A8.188 8.188 0 011.765 9.91c.002-4.541 3.715-8.236 8.28-8.236a8.24 8.24 0 015.852 2.416 8.168 8.168 0 012.422 5.827c-.002 4.542-3.715 8.237-8.277 8.237zm7.044-15.249A9.918 9.918 0 0010.042 0C4.552 0 .086 4.446.083 9.91c0 1.746.458 3.451 1.33 4.954L0 20l5.279-1.378a9.986 9.986 0 004.759 1.206h.004c5.488 0 9.956-4.446 9.958-9.91a9.827 9.827 0 00-2.914-7.012z"/></symbol></svg>