<svg width="344" height="30" fill="none" xmlns="http://www.w3.org/2000/svg"><path d="M100.5 0H0v30h101l12.5-15-13-15z" fill="#0799EE"/><path d="M215.5 0H102l13 15-12.285 15H215.5L227 15 215.5 0z" fill="#DDF0FE"/><path d="M330.45 0H217l11.546 15L217 30h113.45L343 15 330.45 0z" fill="#DDF0FE"/><circle cx="13.5" cy="15.5" r="8.5" fill="#fff"/><circle cx="125.5" cy="15.5" r="8.5" fill="#fff"/><circle cx="240.5" cy="15.5" r="8.5" fill="#fff"/><path d="M14.271 20h-1.09v-7.225l-2.185.803v-.984l3.106-1.166h.17V20zm114.028 0h-5.59v-.78l2.953-3.28c.438-.497.738-.899.902-1.208.168-.312.252-.634.252-.966 0-.446-.134-.81-.404-1.096-.269-.285-.629-.428-1.078-.428-.539 0-.959.154-1.26.463-.297.305-.445.73-.445 1.277h-1.084c0-.785.252-1.42.756-1.904.508-.484 1.185-.726 2.033-.726.793 0 1.42.208 1.881.627.461.414.691.966.691 1.658 0 .84-.535 1.84-1.605 3l-2.285 2.478h4.283V20zm110.986-4.793h.815c.511-.008.914-.143 1.207-.404.293-.262.439-.616.439-1.06 0-1-.498-1.5-1.494-1.5-.469 0-.844.134-1.125.403-.277.266-.416.62-.416 1.061h-1.084c0-.676.246-1.236.738-1.682.496-.449 1.125-.673 1.887-.673.805 0 1.436.213 1.893.638.457.426.685 1.018.685 1.776 0 .37-.121.73-.363 1.078a2.157 2.157 0 01-.979.779c.469.149.83.395 1.084.738.258.344.387.764.387 1.26 0 .766-.25 1.373-.75 1.822-.5.45-1.15.674-1.951.674-.801 0-1.453-.217-1.957-.65-.5-.434-.75-1.006-.75-1.717h1.09c0 .45.146.809.439 1.078.293.27.686.404 1.178.404.523 0 .924-.136 1.201-.41.277-.273.416-.666.416-1.177 0-.497-.152-.877-.457-1.143-.305-.266-.744-.402-1.318-.41h-.815v-.885z" fill="#8C8C8C"/><path d="M73.4 19h.48c.657 0 1.178-.267 1.562-.8.384-.538.576-1.244.576-2.12v-4.668H74.66v4.668c0 .202-.027.376-.082.523a1.094 1.094 0 01-.215.356.961.961 0 01-.703.283h-.26V19zm-5.666-2.05a1.33 1.33 0 01-.449-.299.508.508 0 01-.156-.351c0-.215.076-.394.23-.537.152-.143.364-.215.634-.215.3 0 .585.058.855.176.27.114.522.255.757.424.205.15.398.32.58.508.183.186.355.381.518.586h-.962a7.95 7.95 0 01-1.191-.078 3.5 3.5 0 01-.816-.215zM64.688 19h.502c.463 0 .817-.068 1.065-.205.247-.137.42-.332.517-.586.339.257.73.454 1.172.59A4.94 4.94 0 0069.38 19h4.263v-1.758H72.24l-.151-.151v-5.689h-1.348v3.98a4.488 4.488 0 00-1.245-.986A3.092 3.092 0 0068.003 14c-.645 0-1.175.215-1.592.645-.42.426-.63.984-.63 1.674 0 .186.02.357.059.513.039.156.067.25.083.278a1.012 1.012 0 01-.22.098 1.107 1.107 0 01-.303.034h-.713V19zm-4.002 0h.503c.345 0 .648-.073.908-.22.26-.146.445-.312.552-.498.137.222.33.397.581.528.248.127.537.19.87.19h.82v-1.758h-.601c-.29 0-.527-.1-.713-.298-.186-.201-.278-.49-.278-.864v-4.668h-1.363v4.668c0 .348-.088.63-.263.845-.176.211-.42.317-.733.317h-.283V19zm-2.727-2.92c0 .895.197 1.607.591 2.134.39.524.908.786 1.553.786h.82v-1.758h-.6c-.303 0-.546-.102-.728-.307-.182-.205-.273-.49-.273-.855v-1.43h-1.363v1.43zm1.148 4.36h.722v-.722h-.722v.722zm-11.104-4.189c0 .482.098.902.293 1.26.192.355.446.646.762.874.319.23.679.403 1.08.517.4.111.811.166 1.235.166.494 0 .91-.016 1.25-.049.335-.032.525-.052.57-.058v-1.772h-.038l-.508.063c-.3.033-.728.049-1.284.049-.043 0-.08-.002-.113-.005a1.004 1.004 0 00-.068-.005l2.31-5.513h-1.49l-2.09 5.283a1.024 1.024 0 01-.37-.312.863.863 0 01-.176-.557v-4.78h-1.363v4.839zM43.7 19h.479c.657 0 1.178-.267 1.562-.8.384-.538.576-1.244.576-2.12v-4.668H44.96v4.668c0 .202-.028.376-.083.523a1.096 1.096 0 01-.215.356.96.96 0 01-.703.283H43.7V19zm.63-8.452c.062.049.156.106.283.17a.961.961 0 00.435.094c.127 0 .316-.05.566-.152.248-.1.433-.151.557-.151.107 0 .236.04.386.122.15.081.26.145.332.19v-.493a1.564 1.564 0 00-.303-.17.97.97 0 00-.415-.108c-.114 0-.298.05-.552.151-.257.098-.447.147-.571.147a.941.941 0 01-.43-.113 1.744 1.744 0 01-.288-.166v.479zm-3.352 5.532c0 .895.197 1.607.591 2.134.39.524.908.786 1.553.786h.82v-1.758h-.6c-.303 0-.546-.102-.728-.307-.182-.205-.273-.49-.273-.855v-1.43h-1.363v1.43zm.6-2.622h.723v-.723h-.722v.723z" fill="#fff"/><path d="M195.592 19h.478c.658 0 1.179-.267 1.563-.8.384-.538.576-1.244.576-2.12v-4.668h-1.357v4.668c0 .202-.028.376-.083.523a1.105 1.105 0 01-.215.356.964.964 0 01-.703.283h-.259V19zm-4.431-1.318a18.58 18.58 0 001.723.908c.59.273 1.096.41 1.519.41h1.431v-1.758h-1.47c-.641 0-1.2-.086-1.675-.259a11.506 11.506 0 01-1.577-.732 6.303 6.303 0 011.323-.41 7.55 7.55 0 011.548-.161h.991v-1.51h-1.04a5.71 5.71 0 00-1.816.313c-.625.209-1.371.567-2.237 1.075l-1.401-.738v1.328l1.714.972a.86.86 0 01-.22.093c-.075.02-.172.03-.293.03h-1.699V19h1.489c.537 0 .946-.102 1.226-.308.28-.205.434-.542.464-1.01zm-.191-4.693h.723v-.722h-.723v.722zm-5.71 3.091c0 .895.197 1.607.591 2.134.39.524.908.786 1.553.786h.82v-1.758h-.601c-.302 0-.545-.102-.727-.307-.183-.205-.274-.49-.274-.855v-1.43h-1.362v1.43zm1.577-2.622h.723v-.723h-.723v.723zm-1.308 0h.722v-.723h-.722v.723zm-5.203 4.082c0 .599.117 1.136.352 1.611.234.476.633.876 1.196 1.201.439.251.861.433 1.264.547.401.114.813.171 1.236.171v-1.772c-.238 0-.51-.03-.816-.088a4.392 4.392 0 01-.883-.254c-.323-.133-.564-.301-.723-.503a1.185 1.185 0 01-.239-.752c0-.355.075-.73.224-1.128.15-.4.285-.695.406-.883v-.06h-1.431c-.068.085-.182.323-.342.714-.163.39-.244.79-.244 1.196zm-10.063-1.348h.644a9.27 9.27 0 011.66.132c.476.088.873.213 1.192.376.312.16.545.353.698.581.153.228.23.477.23.747 0 .381-.162.692-.484.933-.325.24-.781.361-1.367.361-.423 0-.838-.04-1.245-.122a4.53 4.53 0 01-1.074-.342h-.044v1.69a3.9 3.9 0 001.074.386c.41.09.836.136 1.279.136.899 0 1.657-.28 2.276-.84.615-.556.922-1.287.922-2.192 0-.368-.084-.713-.253-1.035a2.892 2.892 0 00-.728-.874 3.853 3.853 0 00-1.128-.625 5.714 5.714 0 00-1.489-.313c.198-.061.599-.135 1.201-.22a11.675 11.675 0 011.68-.131h.327v-1.51h-.41c-.736 0-1.532.138-2.388.415a8.224 8.224 0 00-2.29 1.133h-.283v1.313zM164.474 19h.479c.123 0 .267-.02.429-.059.163-.039.287-.083.372-.131.182.442.428.809.737 1.098.306.293.661.524 1.064.694.41.172.788.293 1.133.36.345.073.636.108.874.108v-1.772a4.66 4.66 0 01-.786-.088 4.318 4.318 0 01-.913-.254c-.322-.133-.563-.301-.723-.503a1.19 1.19 0 01-.239-.752c0-.218.029-.442.088-.674.058-.23.124-.436.195-.615.082-.198.155-.358.22-.478.062-.124.104-.205.127-.244v-.06H166.1a6.34 6.34 0 00-.244.494 3.279 3.279 0 00-.195.488.886.886 0 01-.308.46c-.15.113-.353.17-.61.17h-.269V19zm2.027-4.55h.722v-.723h-.722v.722zM157.782 19h.01c.293 0 .563-.083.811-.249a3.29 3.29 0 00.703-.669c.169.31.405.553.708.732.299.176.64.264 1.02.264.287 0 .56-.049.821-.146.26-.101.493-.241.698-.42.195.162.404.285.625.366.221.081.493.122.815.122h.723v-1.758h-.742c-.179 0-.316-.058-.41-.176-.098-.12-.158-.319-.181-.595-.033-.616-.228-1.117-.586-1.504-.358-.39-.822-.586-1.392-.586-.485 0-.895.107-1.23.322-.339.212-.628.534-.869.967-.127.228-.257.45-.391.664a4.195 4.195 0 01-.356.498 1.342 1.342 0 01-.381.313.876.876 0 01-.405.097h.009V19zm2.593-2.28c0-.238.098-.44.293-.606a.986.986 0 01.664-.254.697.697 0 01.694.708c0 .202-.09.38-.269.533a.999.999 0 01-.664.23c-.215 0-.387-.056-.518-.167a.549.549 0 01-.2-.444zM153.81 19h.484c.345 0 .648-.073.908-.22.26-.146.444-.312.552-.498.136.222.33.397.581.528.247.127.537.19.869.19h.82v-1.758h-.6c-.29 0-.528-.1-.713-.298-.186-.201-.279-.49-.279-.864v-.6h-1.362v.6c0 .348-.088.63-.264.845-.175.211-.419.317-.732.317h-.264V19zm2.388-4.702h.723v-.723h-.723v.723zm-1.309 0h.723v-.723h-.723v.723zm-6.452-1.587l2.9.947c.173.056.298.113.376.171.075.055.113.106.113.151 0 .06-.057.134-.171.225a6.878 6.878 0 01-.43.303l-1.25.82c-.345.228-.602.472-.771.733a1.605 1.605 0 00-.259.918c0 .605.193 1.093.581 1.464.384.371.874.557 1.47.557h3.051v-1.758h-3.091c-.224 0-.403-.039-.537-.117-.136-.081-.205-.179-.205-.293 0-.094.054-.197.161-.308a3.41 3.41 0 01.523-.415l1.377-.927c.407-.267.679-.494.815-.68a.99.99 0 00.205-.6c0-.27-.115-.524-.346-.761-.231-.238-.562-.435-.992-.591l-3.52-1.299v1.46zM305.592 20h.478c.658 0 1.179-.267 1.563-.8.384-.538.576-1.244.576-2.12v-4.668h-1.357v4.668c0 .202-.028.376-.083.523a1.105 1.105 0 01-.215.356.964.964 0 01-.703.283h-.259V20zm1.186-8.193h1.641v-.46h-.361a.497.497 0 00.195-.204.628.628 0 00.073-.293.757.757 0 00-.229-.547c-.153-.157-.36-.235-.62-.235a1.47 1.47 0 00-.557.078v.494h.029c.046-.02.124-.043.235-.069a1.1 1.1 0 01.283-.044c.143 0 .25.03.322.088a.286.286 0 01.107.235c0 .146-.074.267-.224.36a.997.997 0 01-.532.138h-.362v.459zm-6.555 1.904l2.901.947c.172.056.297.113.376.171.074.055.112.106.112.151 0 .06-.057.134-.171.225a6.33 6.33 0 01-.43.303l-1.25.82c-.345.228-.602.472-.771.733a1.605 1.605 0 00-.259.918c0 .605.194 1.093.581 1.464.384.371.874.557 1.47.557h3.052v-1.758h-3.091c-.225 0-.404-.039-.537-.117-.137-.081-.205-.179-.205-.293 0-.094.053-.197.161-.308.104-.11.278-.249.522-.415l1.377-.927c.407-.267.679-.493.816-.68a.997.997 0 00.205-.6c0-.27-.116-.524-.347-.761-.231-.238-.562-.435-.991-.591l-3.521-1.299v1.46zm-4.148 2.275c-.345.28-.636.585-.874.913-.237.326-.356.653-.356.982 0 .674.203 1.196.61 1.567.404.368.948.552 1.631.552h2.349v-1.758h-2.339c-.326 0-.557-.032-.693-.098-.137-.068-.206-.165-.206-.292 0-.137.054-.274.162-.41.104-.14.252-.282.444-.425.192-.147.415-.295.669-.445.251-.15.548-.32.893-.512v-1.578h-.039c-.312.19-.685.422-1.118.699a10.75 10.75 0 00-1.133.805zM284.435 20c.345 0 .646-.07.903-.21.257-.143.484-.35.679-.62.329.306.718.532 1.167.679.446.146.913.22 1.401.22.495 0 .912-.017 1.25-.05.336-.032.526-.052.572-.058v-1.772h-.039l-.508.063c-.3.033-.728.049-1.284.049-.043 0-.08-.002-.113-.005a.999.999 0 00-.068-.005l2.309-5.513h-1.489l-2.09 5.283a1.029 1.029 0 01-.371-.312.864.864 0 01-.175-.557v-4.78h-1.363v4.668c0 .202-.027.376-.083.523a1.088 1.088 0 01-.215.356.891.891 0 01-.312.215 1.071 1.071 0 01-.391.068h-.259V20h.479zm-6.14-2.05a1.326 1.326 0 01-.449-.299.51.51 0 01-.157-.351c0-.215.077-.394.23-.537.153-.144.365-.215.635-.215.299 0 .584.058.854.176.27.114.523.255.757.424.205.15.399.32.581.508.182.186.355.381.518.586h-.962a7.96 7.96 0 01-1.192-.078 3.51 3.51 0 01-.815-.215zM275.248 20h.503c.462 0 .817-.068 1.064-.205a1.11 1.11 0 00.518-.586c.339.257.729.454 1.172.59.443.134.921.201 1.435.201h4.263v-1.758h-1.401l-.152-.151v-5.689h-1.347v3.98a4.486 4.486 0 00-1.245-.987 3.092 3.092 0 00-1.495-.395c-.644 0-1.175.215-1.591.645-.42.426-.63.984-.63 1.674 0 .186.019.357.058.513.039.156.067.25.083.278a.99.99 0 01-.219.098 1.107 1.107 0 01-.303.034h-.713V20zm-4.001 0h.503c.345 0 .647-.073.908-.22.26-.146.444-.312.552-.498.136.222.33.397.581.528.247.127.537.19.869.19h.82v-1.758h-.601a.93.93 0 01-.712-.298c-.186-.201-.279-.49-.279-.864v-4.668h-1.362v4.668c0 .348-.088.63-.264.845-.175.211-.42.317-.732.317h-.283V20zm-2.727-2.92c0 .895.197 1.607.591 2.134.39.524.908.786 1.552.786h.821v-1.758h-.601c-.303 0-.545-.102-.728-.307-.182-.205-.273-.49-.273-.855v-1.43h-1.362v1.43zm1.147 4.36h.723v-.722h-.723v.722z" fill="#8C8C8C"/><path d="M332 0l12 14.5V0h-12zm12 30h-12l12-14.5V30z" fill="#DDF0FE" fill-opacity=".4"/></svg>