<svg width="344" height="30" viewBox="0 0 344 30" fill="none" xmlns="http://www.w3.org/2000/svg">
<path d="M100.5 0H0V30H101L113.5 15L100.5 0Z" fill="#0799EE"/>
<path d="M215.5 0H102L115 15L102.715 30H215.5L227 15L215.5 0Z" fill="#DDF0FE"/>
<path d="M330.45 0H217L228.546 15L217 30H330.45L343 15L330.45 0Z" fill="#DDF0FE"/>
<circle cx="13.5" cy="15.5" r="8.5" fill="white"/>
<circle cx="125.5" cy="15.5" r="8.5" fill="white"/>
<circle cx="240.5" cy="15.5" r="8.5" fill="white"/>
<path d="M14.2715 20H13.1816V12.7754L10.9961 13.5781V12.5938L14.1016 11.4277H14.2715V20Z" fill="#8C8C8C"/>
<path d="M128.299 20H122.709V19.2207L125.662 15.9395C126.1 15.4434 126.4 15.041 126.564 14.7324C126.732 14.4199 126.816 14.0977 126.816 13.7656C126.816 13.3203 126.682 12.9551 126.412 12.6699C126.143 12.3848 125.783 12.2422 125.334 12.2422C124.795 12.2422 124.375 12.3965 124.074 12.7051C123.777 13.0098 123.629 13.4355 123.629 13.9824H122.545C122.545 13.1973 122.797 12.5625 123.301 12.0781C123.809 11.5938 124.486 11.3516 125.334 11.3516C126.127 11.3516 126.754 11.5605 127.215 11.9785C127.676 12.3926 127.906 12.9453 127.906 13.6367C127.906 14.4766 127.371 15.4766 126.301 16.6367L124.016 19.1152H128.299V20Z" fill="#8C8C8C"/>
<path d="M239.285 15.207H240.1C240.611 15.1992 241.014 15.0645 241.307 14.8027C241.6 14.541 241.746 14.1875 241.746 13.7422C241.746 12.7422 241.248 12.2422 240.252 12.2422C239.783 12.2422 239.408 12.377 239.127 12.6465C238.85 12.9121 238.711 13.2656 238.711 13.707H237.627C237.627 13.0312 237.873 12.4707 238.365 12.0254C238.861 11.5762 239.49 11.3516 240.252 11.3516C241.057 11.3516 241.688 11.5645 242.145 11.9902C242.602 12.416 242.83 13.0078 242.83 13.7656C242.83 14.1367 242.709 14.4961 242.467 14.8438C242.229 15.1914 241.902 15.4512 241.488 15.623C241.957 15.7715 242.318 16.0176 242.572 16.3613C242.83 16.7051 242.959 17.125 242.959 17.6211C242.959 18.3867 242.709 18.9941 242.209 19.4434C241.709 19.8926 241.059 20.1172 240.258 20.1172C239.457 20.1172 238.805 19.9004 238.301 19.4668C237.801 19.0332 237.551 18.4609 237.551 17.75H238.641C238.641 18.1992 238.787 18.5586 239.08 18.8281C239.373 19.0977 239.766 19.2324 240.258 19.2324C240.781 19.2324 241.182 19.0957 241.459 18.8223C241.736 18.5488 241.875 18.1562 241.875 17.6445C241.875 17.1484 241.723 16.7676 241.418 16.502C241.113 16.2363 240.674 16.0996 240.1 16.0918H239.285V15.207Z" fill="#8C8C8C"/>
<path d="M73.4008 19H73.8793C74.5368 19 75.0577 18.7331 75.4418 18.1992C75.8259 17.6621 76.018 16.9557 76.018 16.0801V11.4121H74.6605V16.0801C74.6605 16.2819 74.6329 16.4561 74.5775 16.6025C74.5222 16.7458 74.4506 16.8646 74.3627 16.959C74.2715 17.0501 74.1674 17.1201 74.0502 17.1689C73.933 17.2178 73.8028 17.2422 73.6596 17.2422H73.4008V19ZM67.7344 16.9492C67.5358 16.8613 67.3861 16.762 67.2852 16.6514C67.181 16.5407 67.1289 16.4235 67.1289 16.2998C67.1289 16.085 67.2054 15.9059 67.3584 15.7627C67.5114 15.6195 67.723 15.5479 67.9932 15.5479C68.2926 15.5479 68.5775 15.6064 68.8477 15.7236C69.1178 15.8376 69.3701 15.9792 69.6045 16.1484C69.8096 16.2982 70.0033 16.4674 70.1855 16.6562C70.3678 16.8418 70.5404 17.0371 70.7031 17.2422H69.7412C69.2855 17.2422 68.8883 17.2161 68.5498 17.1641C68.208 17.1087 67.9362 17.0371 67.7344 16.9492ZM64.6875 19H65.1904C65.6527 19 66.0075 18.9316 66.2549 18.7949C66.5023 18.6582 66.6748 18.4629 66.7725 18.209C67.111 18.4661 67.5016 18.6631 67.9443 18.7998C68.387 18.9333 68.8656 19 69.3799 19H73.6426V17.2422H72.2412L72.0898 17.0908V11.4023H70.7422V15.3818C70.3971 14.988 69.9821 14.6592 69.4971 14.3955C69.012 14.1318 68.514 14 68.0029 14C67.3584 14 66.8278 14.2148 66.4111 14.6445C65.9912 15.071 65.7812 15.6292 65.7812 16.3193C65.7812 16.5049 65.8008 16.6758 65.8398 16.832C65.8789 16.9883 65.9066 17.0811 65.9229 17.1104C65.8512 17.1527 65.778 17.1852 65.7031 17.208C65.625 17.2308 65.5241 17.2422 65.4004 17.2422H64.6875V19ZM60.6861 19H61.1891C61.5341 19 61.8369 18.9268 62.0973 18.7803C62.3577 18.6338 62.5416 18.4678 62.649 18.2822C62.7857 18.5036 62.9794 18.6794 63.2301 18.8096C63.4775 18.9365 63.7672 19 64.0992 19H64.9195V17.2422H64.3189C64.0292 17.2422 63.7916 17.1429 63.6061 16.9443C63.4205 16.7425 63.3277 16.4544 63.3277 16.0801V11.4121H61.9654V16.0801C61.9654 16.4284 61.8775 16.71 61.7018 16.9248C61.526 17.1364 61.2818 17.2422 60.9693 17.2422H60.6861V19ZM57.9592 16.0801C57.9592 16.9753 58.1561 17.6865 58.55 18.2139C58.9406 18.738 59.4582 19 60.1027 19H60.923V17.2422H60.3225C60.0197 17.2422 59.7772 17.1396 59.5949 16.9346C59.4126 16.7295 59.3215 16.4447 59.3215 16.0801V14.6494H57.9592V16.0801ZM59.1066 20.4404H59.8293V19.7178H59.1066V20.4404ZM48.0033 16.251C48.0033 16.7327 48.101 17.1527 48.2963 17.5107C48.4883 17.8656 48.7423 18.1569 49.058 18.3848C49.377 18.6159 49.7367 18.7884 50.1371 18.9023C50.5375 19.013 50.9493 19.0684 51.3725 19.0684C51.8673 19.0684 52.2839 19.0521 52.6225 19.0195C52.9577 18.987 53.1482 18.9674 53.1937 18.9609V17.1885H53.1547C53.1124 17.195 52.9431 17.2161 52.6469 17.252C52.3474 17.2845 51.9193 17.3008 51.3627 17.3008C51.3204 17.3008 51.2829 17.2992 51.2504 17.2959C51.2146 17.2926 51.1918 17.291 51.182 17.291L53.4916 11.7783H52.0023L49.9125 17.0615C49.779 16.9997 49.6553 16.8955 49.5414 16.749C49.4242 16.6025 49.3656 16.417 49.3656 16.1924V11.4121H48.0033V16.251ZM43.6992 19H44.1777C44.8353 19 45.3561 18.7331 45.7402 18.1992C46.1243 17.6621 46.3164 16.9557 46.3164 16.0801V11.4121H44.959V16.0801C44.959 16.2819 44.9313 16.4561 44.876 16.6025C44.8206 16.7458 44.749 16.8646 44.6611 16.959C44.57 17.0501 44.4658 17.1201 44.3486 17.1689C44.2314 17.2178 44.1012 17.2422 43.958 17.2422H43.6992V19ZM44.3291 10.5479C44.391 10.5967 44.4854 10.6536 44.6123 10.7188C44.736 10.7806 44.8809 10.8115 45.0469 10.8115C45.1738 10.8115 45.3626 10.7611 45.6133 10.6602C45.8607 10.5592 46.0462 10.5088 46.1699 10.5088C46.2773 10.5088 46.4059 10.5495 46.5557 10.6309C46.7054 10.7122 46.8161 10.7757 46.8877 10.8213V10.3281C46.8324 10.2826 46.7314 10.2256 46.585 10.1572C46.4352 10.0856 46.2969 10.0498 46.1699 10.0498C46.056 10.0498 45.8721 10.1003 45.6182 10.2012C45.361 10.2988 45.1706 10.3477 45.0469 10.3477C44.9069 10.3477 44.7637 10.3102 44.6172 10.2354C44.4674 10.1605 44.3714 10.1051 44.3291 10.0693V10.5479ZM40.9771 16.0801C40.9771 16.9753 41.1741 17.6865 41.568 18.2139C41.9586 18.738 42.4762 19 43.1207 19H43.941V17.2422H43.3404C43.0377 17.2422 42.7952 17.1396 42.6129 16.9346C42.4306 16.7295 42.3395 16.4447 42.3395 16.0801V14.6494H40.9771V16.0801ZM41.5777 13.458H42.3004V12.7354H41.5777V13.458Z" fill="white"/>
<path d="M195.592 19H196.07C196.728 19 197.249 18.7331 197.633 18.1992C198.017 17.6621 198.209 16.9557 198.209 16.0801V11.4121H196.852V16.0801C196.852 16.2819 196.824 16.4561 196.769 16.6025C196.713 16.7458 196.642 16.8646 196.554 16.959C196.463 17.0501 196.358 17.1201 196.241 17.1689C196.124 17.2178 195.994 17.2422 195.851 17.2422H195.592V19ZM191.161 17.6816C191.717 18.0137 192.292 18.3164 192.884 18.5898C193.474 18.8633 193.98 19 194.403 19H195.834V17.2422H194.364C193.723 17.2422 193.164 17.1559 192.689 16.9834C192.214 16.8109 191.688 16.5667 191.112 16.251C191.476 16.085 191.918 15.9482 192.435 15.8408C192.949 15.7334 193.465 15.6797 193.983 15.6797H194.974V14.1709H193.934C193.345 14.1709 192.74 14.2751 192.118 14.4834C191.493 14.6917 190.747 15.0498 189.881 15.5576L188.48 14.8203V16.1484L190.194 17.1201C190.122 17.1624 190.049 17.1934 189.974 17.2129C189.899 17.2324 189.802 17.2422 189.681 17.2422H187.982V19H189.471C190.008 19 190.417 18.8975 190.697 18.6924C190.977 18.4873 191.131 18.1504 191.161 17.6816ZM190.97 12.9893H191.693V12.2666H190.97V12.9893ZM185.26 16.0801C185.26 16.9753 185.457 17.6865 185.851 18.2139C186.241 18.738 186.759 19 187.404 19H188.224V17.2422H187.623C187.321 17.2422 187.078 17.1396 186.896 16.9346C186.713 16.7295 186.622 16.4447 186.622 16.0801V14.6494H185.26V16.0801ZM186.837 13.458H187.56V12.7354H186.837V13.458ZM185.529 13.458H186.251V12.7354H185.529V13.458ZM180.326 17.54C180.326 18.139 180.443 18.6761 180.678 19.1514C180.912 19.6266 181.311 20.027 181.874 20.3525C182.313 20.6032 182.735 20.7855 183.138 20.8994C183.539 21.0133 183.951 21.0703 184.374 21.0703V19.2979C184.136 19.2979 183.864 19.2686 183.558 19.21C183.249 19.1546 182.955 19.07 182.675 18.9561C182.352 18.8226 182.111 18.6549 181.952 18.4531C181.792 18.248 181.713 17.9974 181.713 17.7012C181.713 17.3464 181.788 16.9704 181.937 16.5732C182.087 16.1729 182.222 15.8783 182.343 15.6895V15.6309H180.912C180.844 15.7155 180.73 15.9531 180.57 16.3438C180.407 16.7344 180.326 17.1331 180.326 17.54ZM170.263 16.1924H170.907C171.535 16.1924 172.089 16.2363 172.567 16.3242C173.043 16.4121 173.44 16.5374 173.759 16.7002C174.071 16.8597 174.304 17.0534 174.457 17.2812C174.61 17.5091 174.687 17.7581 174.687 18.0283C174.687 18.4092 174.525 18.7201 174.203 18.9609C173.878 19.2018 173.422 19.3223 172.836 19.3223C172.413 19.3223 171.998 19.2816 171.591 19.2002C171.181 19.1188 170.823 19.0049 170.517 18.8584H170.473V20.5479C170.779 20.7171 171.137 20.8457 171.547 20.9336C171.957 21.0247 172.383 21.0703 172.826 21.0703C173.725 21.0703 174.483 20.7904 175.102 20.2305C175.717 19.6738 176.024 18.943 176.024 18.0381C176.024 17.6702 175.94 17.3252 175.771 17.0029C175.598 16.6774 175.355 16.3861 175.043 16.1289C174.734 15.875 174.358 15.6667 173.915 15.5039C173.469 15.3411 172.973 15.237 172.426 15.1914C172.624 15.1296 173.025 15.0563 173.627 14.9717C174.229 14.8838 174.789 14.8398 175.307 14.8398H175.634V13.3311H175.224C174.488 13.3311 173.692 13.4694 172.836 13.7461C171.977 14.0228 171.213 14.4004 170.546 14.8789H170.263V16.1924ZM164.474 19H164.953C165.076 19 165.22 18.9805 165.382 18.9414C165.545 18.9023 165.669 18.8584 165.754 18.8096C165.936 19.2523 166.182 19.6185 166.491 19.9082C166.797 20.2012 167.152 20.4323 167.555 20.6016C167.965 20.7741 168.343 20.8945 168.688 20.9629C169.033 21.0345 169.324 21.0703 169.562 21.0703V19.2979C169.364 19.2979 169.101 19.2686 168.776 19.21C168.447 19.1546 168.143 19.07 167.863 18.9561C167.541 18.8226 167.3 18.6549 167.14 18.4531C166.981 18.248 166.901 17.9974 166.901 17.7012C166.901 17.4831 166.93 17.2585 166.989 17.0273C167.047 16.7962 167.113 16.5911 167.184 16.4121C167.266 16.2135 167.339 16.054 167.404 15.9336C167.466 15.8099 167.508 15.7285 167.531 15.6895V15.6309H166.1C166.032 15.7513 165.95 15.9157 165.856 16.124C165.758 16.3324 165.693 16.4951 165.661 16.6123C165.605 16.8011 165.503 16.9541 165.353 17.0713C165.203 17.1852 165 17.2422 164.743 17.2422H164.474V19ZM166.501 14.4492H167.223V13.7266H166.501V14.4492ZM157.782 19H157.792C158.085 19 158.355 18.917 158.603 18.751C158.847 18.585 159.081 18.362 159.306 18.082C159.475 18.3913 159.711 18.6354 160.014 18.8145C160.313 18.9902 160.654 19.0781 161.034 19.0781C161.321 19.0781 161.594 19.0293 161.855 18.9316C162.115 18.8307 162.348 18.6908 162.553 18.5117C162.748 18.6745 162.957 18.7965 163.178 18.8779C163.399 18.9593 163.671 19 163.993 19H164.716V17.2422H163.974C163.795 17.2422 163.658 17.1836 163.564 17.0664C163.466 16.946 163.406 16.7474 163.383 16.4707C163.35 15.8555 163.155 15.3542 162.797 14.9668C162.439 14.5762 161.975 14.3809 161.405 14.3809C160.92 14.3809 160.51 14.4883 160.175 14.7031C159.836 14.9147 159.547 15.237 159.306 15.6699C159.179 15.8978 159.049 16.1191 158.915 16.334C158.782 16.5456 158.663 16.7116 158.559 16.832C158.432 16.9753 158.305 17.0794 158.178 17.1445C158.051 17.2096 157.916 17.2422 157.773 17.2422H157.782V19ZM160.375 16.7197C160.375 16.4821 160.473 16.2803 160.668 16.1143C160.863 15.945 161.085 15.8604 161.332 15.8604C161.531 15.8604 161.697 15.9303 161.83 16.0703C161.96 16.207 162.026 16.373 162.026 16.5684C162.026 16.7702 161.936 16.9476 161.757 17.1006C161.575 17.2536 161.353 17.3301 161.093 17.3301C160.878 17.3301 160.706 17.2747 160.575 17.1641C160.442 17.0534 160.375 16.9053 160.375 16.7197ZM153.81 19H154.294C154.639 19 154.942 18.9268 155.202 18.7803C155.462 18.6338 155.646 18.4678 155.754 18.2822C155.89 18.5036 156.084 18.6794 156.335 18.8096C156.582 18.9365 156.872 19 157.204 19H158.024V17.2422H157.424C157.134 17.2422 156.896 17.1429 156.711 16.9443C156.525 16.7425 156.432 16.4544 156.432 16.0801V15.4795H155.07V16.0801C155.07 16.4284 154.982 16.71 154.806 16.9248C154.631 17.1364 154.387 17.2422 154.074 17.2422H153.81V19ZM156.198 14.2979H156.921V13.5752H156.198V14.2979ZM154.889 14.2979H155.612V13.5752H154.889V14.2979ZM148.437 12.7109L151.337 13.6582C151.51 13.7135 151.635 13.7705 151.713 13.8291C151.788 13.8844 151.826 13.9349 151.826 13.9805C151.826 14.0391 151.769 14.1139 151.655 14.2051C151.537 14.2962 151.394 14.3971 151.225 14.5078L149.975 15.3281C149.63 15.556 149.373 15.8001 149.204 16.0605C149.031 16.3177 148.945 16.6237 148.945 16.9785C148.945 17.584 149.138 18.0723 149.526 18.4434C149.91 18.8145 150.4 19 150.996 19H154.047V17.2422H150.956C150.732 17.2422 150.553 17.2031 150.419 17.125C150.283 17.0436 150.214 16.946 150.214 16.832C150.214 16.7376 150.268 16.6351 150.375 16.5244C150.48 16.4137 150.654 16.2754 150.898 16.1094L152.275 15.1816C152.682 14.9147 152.954 14.6885 153.09 14.5029C153.227 14.3174 153.295 14.1172 153.295 13.9023C153.295 13.6322 153.18 13.3783 152.949 13.1406C152.718 12.903 152.387 12.7061 151.957 12.5498L148.437 11.251V12.7109Z" fill="#8C8C8C"/>
<path d="M305.592 20H306.07C306.728 20 307.249 19.7331 307.633 19.1992C308.017 18.6621 308.209 17.9557 308.209 17.0801V12.4121H306.852V17.0801C306.852 17.2819 306.824 17.4561 306.769 17.6025C306.713 17.7458 306.642 17.8646 306.554 17.959C306.463 18.0501 306.358 18.1201 306.241 18.1689C306.124 18.2178 305.994 18.2422 305.851 18.2422H305.592V20ZM306.778 11.8066H308.419V11.3477H308.058C308.136 11.3053 308.201 11.237 308.253 11.1426C308.302 11.0482 308.326 10.9505 308.326 10.8496C308.326 10.6413 308.25 10.459 308.097 10.3027C307.944 10.1465 307.737 10.0684 307.477 10.0684C307.304 10.0684 307.177 10.0781 307.096 10.0977C307.011 10.1172 306.952 10.1335 306.92 10.1465V10.6396H306.949C306.995 10.6201 307.073 10.5973 307.184 10.5713C307.291 10.542 307.385 10.5273 307.467 10.5273C307.61 10.5273 307.717 10.5566 307.789 10.6152C307.861 10.6738 307.896 10.752 307.896 10.8496C307.896 10.9961 307.822 11.1165 307.672 11.2109C307.522 11.3021 307.345 11.3477 307.14 11.3477H306.778V11.8066ZM300.223 13.7109L303.124 14.6582C303.296 14.7135 303.421 14.7705 303.5 14.8291C303.574 14.8844 303.612 14.9349 303.612 14.9805C303.612 15.0391 303.555 15.1139 303.441 15.2051C303.324 15.2962 303.181 15.3971 303.011 15.5078L301.761 16.3281C301.416 16.556 301.159 16.8001 300.99 17.0605C300.817 17.3177 300.731 17.6237 300.731 17.9785C300.731 18.584 300.925 19.0723 301.312 19.4434C301.696 19.8145 302.186 20 302.782 20H305.834V18.2422H302.743C302.518 18.2422 302.339 18.2031 302.206 18.125C302.069 18.0436 302.001 17.946 302.001 17.832C302.001 17.7376 302.054 17.6351 302.162 17.5244C302.266 17.4137 302.44 17.2754 302.684 17.1094L304.061 16.1816C304.468 15.9147 304.74 15.6885 304.877 15.5029C305.013 15.3174 305.082 15.1172 305.082 14.9023C305.082 14.6322 304.966 14.3783 304.735 14.1406C304.504 13.903 304.173 13.7061 303.744 13.5498L300.223 12.251V13.7109ZM296.075 15.9863C295.73 16.2663 295.439 16.5706 295.201 16.8994C294.964 17.2249 294.845 17.5521 294.845 17.8809C294.845 18.5547 295.048 19.0771 295.455 19.4482C295.859 19.8161 296.403 20 297.086 20H299.435V18.2422H297.096C296.77 18.2422 296.539 18.2096 296.403 18.1445C296.266 18.0762 296.197 17.9785 296.197 17.8516C296.197 17.7148 296.251 17.5781 296.359 17.4414C296.463 17.3014 296.611 17.1598 296.803 17.0166C296.995 16.8701 297.218 16.722 297.472 16.5723C297.723 16.4225 298.02 16.2516 298.365 16.0596V14.4824H298.326C298.014 14.6712 297.641 14.904 297.208 15.1807C296.772 15.4541 296.394 15.7227 296.075 15.9863ZM284.435 20C284.78 20 285.081 19.93 285.338 19.79C285.595 19.6468 285.822 19.4401 286.017 19.1699C286.346 19.4759 286.735 19.7021 287.184 19.8486C287.63 19.9951 288.097 20.0684 288.585 20.0684C289.08 20.0684 289.497 20.0521 289.835 20.0195C290.171 19.987 290.361 19.9674 290.407 19.9609V18.1885H290.368C290.325 18.195 290.156 18.2161 289.86 18.252C289.56 18.2845 289.132 18.3008 288.576 18.3008C288.533 18.3008 288.496 18.2992 288.463 18.2959C288.427 18.2926 288.405 18.291 288.395 18.291L290.704 12.7783H289.215L287.125 18.0615C286.992 17.9997 286.868 17.8955 286.754 17.749C286.637 17.6025 286.579 17.417 286.579 17.1924V12.4121H285.216V17.0801C285.216 17.2819 285.189 17.4561 285.133 17.6025C285.078 17.7458 285.006 17.8646 284.918 17.959C284.824 18.0566 284.72 18.1283 284.606 18.1738C284.489 18.2194 284.358 18.2422 284.215 18.2422H283.956V20H284.435ZM278.295 17.9492C278.096 17.8613 277.947 17.762 277.846 17.6514C277.742 17.5407 277.689 17.4235 277.689 17.2998C277.689 17.085 277.766 16.9059 277.919 16.7627C278.072 16.6195 278.284 16.5479 278.554 16.5479C278.853 16.5479 279.138 16.6064 279.408 16.7236C279.678 16.8376 279.931 16.9792 280.165 17.1484C280.37 17.2982 280.564 17.4674 280.746 17.6562C280.928 17.8418 281.101 18.0371 281.264 18.2422H280.302C279.846 18.2422 279.449 18.2161 279.11 18.1641C278.769 18.1087 278.497 18.0371 278.295 17.9492ZM275.248 20H275.751C276.213 20 276.568 19.9316 276.815 19.7949C277.063 19.6582 277.235 19.4629 277.333 19.209C277.672 19.4661 278.062 19.6631 278.505 19.7998C278.948 19.9333 279.426 20 279.94 20H284.203V18.2422H282.802L282.65 18.0908V12.4023H281.303V16.3818C280.958 15.988 280.543 15.6592 280.058 15.3955C279.573 15.1318 279.075 15 278.563 15C277.919 15 277.388 15.2148 276.972 15.6445C276.552 16.071 276.342 16.6292 276.342 17.3193C276.342 17.5049 276.361 17.6758 276.4 17.832C276.439 17.9883 276.467 18.0811 276.483 18.1104C276.412 18.1527 276.339 18.1852 276.264 18.208C276.186 18.2308 276.085 18.2422 275.961 18.2422H275.248V20ZM271.247 20H271.75C272.095 20 272.397 19.9268 272.658 19.7803C272.918 19.6338 273.102 19.4678 273.21 19.2822C273.346 19.5036 273.54 19.6794 273.791 19.8096C274.038 19.9365 274.328 20 274.66 20H275.48V18.2422H274.879C274.59 18.2422 274.352 18.1429 274.167 17.9443C273.981 17.7425 273.888 17.4544 273.888 17.0801V12.4121H272.526V17.0801C272.526 17.4284 272.438 17.71 272.262 17.9248C272.087 18.1364 271.842 18.2422 271.53 18.2422H271.247V20ZM268.52 17.0801C268.52 17.9753 268.717 18.6865 269.111 19.2139C269.501 19.738 270.019 20 270.663 20H271.484V18.2422H270.883C270.58 18.2422 270.338 18.1396 270.155 17.9346C269.973 17.7295 269.882 17.4447 269.882 17.0801V15.6494H268.52V17.0801ZM269.667 21.4404H270.39V20.7178H269.667V21.4404Z" fill="#8C8C8C"/>
<path d="M332 0L344 14.5V0H332Z" fill="#DDF0FE" fill-opacity="0.4"/>
<path d="M344 30H332L344 15.5V30Z" fill="#DDF0FE" fill-opacity="0.4"/>
</svg>
