<svg width="344" height="30" viewBox="0 0 344 30" fill="none" xmlns="http://www.w3.org/2000/svg">
<path d="M100.5 0H0V30H101L113.5 15L100.5 0Z" fill="#0799EE"/>
<path d="M215.5 0H102L115 15L102.715 30H215.5L227 15L215.5 0Z" fill="#DDF0FE"/>
<path d="M330.45 0H217L228.546 15L217 30H330.45L343 15L330.45 0Z" fill="#DDF0FE"/>
<circle cx="13.5" cy="15.5" r="8.5" fill="white"/>
<circle cx="125.5" cy="15.5" r="8.5" fill="white"/>
<circle cx="240.5" cy="15.5" r="8.5" fill="white"/>
<path d="M14.2715 20H13.1816V12.7754L10.9961 13.5781V12.5938L14.1016 11.4277H14.2715V20Z" fill="#8C8C8C"/>
<path d="M128.299 20H122.709V19.2207L125.662 15.9395C126.1 15.4434 126.4 15.041 126.564 14.7324C126.732 14.4199 126.816 14.0977 126.816 13.7656C126.816 13.3203 126.682 12.9551 126.412 12.6699C126.143 12.3848 125.783 12.2422 125.334 12.2422C124.795 12.2422 124.375 12.3965 124.074 12.7051C123.777 13.0098 123.629 13.4355 123.629 13.9824H122.545C122.545 13.1973 122.797 12.5625 123.301 12.0781C123.809 11.5938 124.486 11.3516 125.334 11.3516C126.127 11.3516 126.754 11.5605 127.215 11.9785C127.676 12.3926 127.906 12.9453 127.906 13.6367C127.906 14.4766 127.371 15.4766 126.301 16.6367L124.016 19.1152H128.299V20Z" fill="#8C8C8C"/>
<path d="M239.285 15.207H240.1C240.611 15.1992 241.014 15.0645 241.307 14.8027C241.6 14.541 241.746 14.1875 241.746 13.7422C241.746 12.7422 241.248 12.2422 240.252 12.2422C239.783 12.2422 239.408 12.377 239.127 12.6465C238.85 12.9121 238.711 13.2656 238.711 13.707H237.627C237.627 13.0312 237.873 12.4707 238.365 12.0254C238.861 11.5762 239.49 11.3516 240.252 11.3516C241.057 11.3516 241.688 11.5645 242.145 11.9902C242.602 12.416 242.83 13.0078 242.83 13.7656C242.83 14.1367 242.709 14.4961 242.467 14.8438C242.229 15.1914 241.902 15.4512 241.488 15.623C241.957 15.7715 242.318 16.0176 242.572 16.3613C242.83 16.7051 242.959 17.125 242.959 17.6211C242.959 18.3867 242.709 18.9941 242.209 19.4434C241.709 19.8926 241.059 20.1172 240.258 20.1172C239.457 20.1172 238.805 19.9004 238.301 19.4668C237.801 19.0332 237.551 18.4609 237.551 17.75H238.641C238.641 18.1992 238.787 18.5586 239.08 18.8281C239.373 19.0977 239.766 19.2324 240.258 19.2324C240.781 19.2324 241.182 19.0957 241.459 18.8223C241.736 18.5488 241.875 18.1562 241.875 17.6445C241.875 17.1484 241.723 16.7676 241.418 16.502C241.113 16.2363 240.674 16.0996 240.1 16.0918H239.285V15.207Z" fill="#8C8C8C"/>
<path d="M32.5258 12.5107H33.4828V10.792H34.7426V12.5107H35.5238V13.7217H34.7426V15.1328L35.4652 14.9424C35.4587 15.4567 35.462 15.8929 35.475 16.251L34.7426 16.4609V18.9951C34.7426 19.516 34.6238 19.8594 34.3861 20.0254C34.1518 20.1914 33.6033 20.2679 32.7406 20.2549C32.682 19.8903 32.6007 19.4704 32.4965 18.9951H33.2191C33.3949 18.9951 33.4828 18.8812 33.4828 18.6533V16.8125L32.5844 17.0615L32.477 15.626L33.4828 15.416V13.7217H32.5258V12.5107ZM36.2172 10.9775H41.5297V15.0596H36.2172V10.9775ZM40.2797 12.0615H37.4672V12.5889H40.2797V12.0615ZM40.2797 13.9756V13.4482H37.4672V13.9756H40.2797ZM36.227 20.4014C35.6801 19.9977 35.3253 19.7503 35.1625 19.6592C35.8266 18.9235 36.2237 17.9697 36.3539 16.7979L37.4965 17.042C37.4574 17.3252 37.4086 17.5986 37.35 17.8623C37.7536 18.4027 38.0922 18.7135 38.3656 18.7949V16.6514H35.6898V15.5283H42.1742V16.6514H39.6156V17.2471H41.8422V18.3115H39.6156V18.9609C40.4457 18.9707 41.3181 18.9658 42.2328 18.9463C42.1547 19.2393 42.0668 19.6234 41.9691 20.0986C40.7159 20.1247 39.6986 20.1133 38.9174 20.0645C38.1361 20.0189 37.4916 19.6852 36.9838 19.0635C36.782 19.5648 36.5297 20.0107 36.227 20.4014ZM42.7039 11.876H46.6443C46.5141 11.5667 46.3986 11.2998 46.2977 11.0752L47.743 10.6357C47.8992 10.945 48.101 11.3584 48.3484 11.876H52.1277V13.1064H42.7039V11.876ZM42.7625 15.3721C43.8432 14.6494 44.784 13.9007 45.5848 13.126L46.6395 14.0928C45.7085 14.9391 44.7221 15.7432 43.6805 16.5049C43.4656 16.1989 43.1596 15.8213 42.7625 15.3721ZM49.2176 13.1553C50.2918 13.917 51.2586 14.6299 52.118 15.2939L51.1023 16.417C50.2039 15.5967 49.2762 14.8252 48.3191 14.1025L49.2176 13.1553ZM46.034 15.0889C46.4604 15.8278 46.9341 16.4495 47.4549 16.9541C48.0148 16.4235 48.4689 15.7952 48.8172 15.0693L49.9695 15.8408C49.5594 16.583 49.089 17.2357 48.5584 17.7988C49.5057 18.3392 50.7508 18.6989 52.2938 18.8779C51.9682 19.4248 51.698 19.8903 51.4832 20.2744C49.9305 20.0628 48.5893 19.5599 47.4598 18.7656C46.3367 19.5436 44.976 20.0596 43.3777 20.3135C43.215 19.9489 42.9513 19.4834 42.5867 18.917C44.0841 18.7282 45.3374 18.3506 46.3465 17.7842C45.8094 17.221 45.3406 16.5928 44.9402 15.8994L46.034 15.0889ZM54.4152 10.665C54.8124 11.1989 55.2355 11.8271 55.6848 12.5498L54.4348 13.3018C53.9855 12.4619 53.5982 11.8011 53.2727 11.3193L54.4152 10.665ZM55.9484 11.2412H62.3938V12.5791H60.6359V18.5068C60.6359 18.904 60.5692 19.223 60.4357 19.4639C60.3055 19.7048 60.1119 19.874 59.8547 19.9717C59.6008 20.0726 58.6958 20.1279 57.1398 20.1377C57.0422 19.6038 56.9185 19.0993 56.7688 18.624C57.2603 18.6598 57.7128 18.6777 58.1262 18.6777C58.4126 18.6777 58.6177 18.6631 58.7414 18.6338C58.8651 18.6045 58.9676 18.5312 59.049 18.4141C59.1304 18.2936 59.1711 18.1325 59.1711 17.9307V12.5791H55.9484V11.2412ZM56.427 16.8271C56.466 17.335 56.5214 17.8395 56.593 18.3408C55.4081 19.1221 54.6138 19.7308 54.2102 20.167L53.4875 19.1709C53.6503 18.9756 53.7316 18.7021 53.7316 18.3506V15.2158H52.7355V13.9463H55.0305V17.8037C55.3365 17.6084 55.802 17.2829 56.427 16.8271ZM63.5973 12.1201H65.3844C65.1598 11.7979 64.9286 11.4854 64.691 11.1826L65.8629 10.6553L66.8785 11.8467L66.2633 12.1201H68.2262C68.6168 11.6188 68.9684 11.124 69.2809 10.6357L70.7555 11.1631C70.5276 11.4072 70.2363 11.7262 69.8814 12.1201H71.7223V16.9736H68.3434V17.6475H72.4742V18.8486H68.3434V20.3037H66.9762V18.8486H62.8258V17.6475H66.9762V16.9736H63.5973V12.1201ZM70.4332 13.2529H68.3434V14.0439H70.4332V13.2529ZM64.8863 14.0439H66.9762V13.2529H64.8863V14.0439ZM70.4332 15.8408V15.0498H68.3434V15.8408H70.4332ZM64.8863 15.8408H66.9762V15.0498H64.8863V15.8408Z" fill="white"/>
<path d="M161.467 15.8701C161.844 16.0459 162.235 16.2087 162.639 16.3584C162.525 17.0973 162.422 17.5693 162.331 17.7744C162.243 17.9762 162.1 18.1309 161.901 18.2383C161.703 18.3457 161.454 18.3994 161.154 18.3994H160.471C159.696 18.3994 159.309 17.9665 159.309 17.1006V15.5381H158.571C158.529 16.3877 158.371 17.0192 158.098 17.4326C157.824 17.8428 157.417 18.2139 156.877 18.5459C156.643 18.2529 156.35 17.9307 155.998 17.5791C156.304 17.3968 156.589 17.1608 156.853 16.8711C157.116 16.5781 157.269 16.1338 157.312 15.5381H155.92V14.3857H158.771V13.3018H157.438C157.315 13.6175 157.193 13.904 157.072 14.1611C156.753 13.9984 156.389 13.8226 155.979 13.6338C156.35 12.8786 156.685 11.9867 156.984 10.958L158.127 11.3291L157.858 12.1494H158.771V10.6943H160.07V12.1494H162.316V13.3018H160.07V14.3857H162.678V15.5381H160.568V16.8271C160.568 17.0941 160.666 17.2275 160.861 17.2275H160.979C161.158 17.2275 161.271 17.1657 161.32 17.042C161.369 16.915 161.418 16.5244 161.467 15.8701ZM154.602 10.8311C155.09 11.4691 155.529 12.068 155.92 12.6279L154.777 13.3994C154.38 12.7223 153.973 12.0811 153.557 11.4756L154.602 10.8311ZM162.834 18.8096C162.665 19.3304 162.528 19.7666 162.424 20.1182L157.971 20.0889C156.574 20.0889 155.562 19.7796 154.934 19.1611L153.801 20.3135L153.244 18.8291C153.596 18.5361 153.921 18.2578 154.221 17.9941V15.5283H153.312V14.2881H155.5V18.0039C156.008 18.5671 156.805 18.8486 157.893 18.8486L159.89 18.8584C160.655 18.8584 161.636 18.8421 162.834 18.8096ZM163.315 12.4326H164.37V10.7822H165.649V12.4326H166.557V13.6533H165.649V15.1719L166.596 14.9814C166.518 15.5283 166.476 15.9678 166.469 16.2998L165.649 16.4512V18.9658C165.649 19.363 165.571 19.6641 165.414 19.8691C165.258 20.0742 165.027 20.1833 164.721 20.1963L163.569 20.2451C163.504 19.8675 163.416 19.4346 163.305 18.9463C163.552 18.9658 163.8 18.9756 164.047 18.9756C164.262 18.9756 164.37 18.8356 164.37 18.5557V16.7051L163.344 16.9248L163.266 15.5283C163.595 15.4958 163.963 15.4502 164.37 15.3916V13.6533H163.315V12.4326ZM172.358 11.085V12.1689C171.938 12.7712 171.417 13.3034 170.795 13.7656C171.443 13.9935 172.159 14.1416 172.944 14.21C172.735 14.6527 172.563 15.0465 172.426 15.3916C171.352 15.2028 170.41 14.9066 169.599 14.5029C168.811 14.9033 167.908 15.2223 166.889 15.46C166.752 15.1019 166.58 14.7243 166.371 14.3271C167.143 14.1709 167.827 13.9821 168.422 13.7607C167.973 13.4092 167.582 13.0088 167.25 12.5596L167.939 12.1689H166.772V11.085H172.358ZM169.609 13.209C170.136 12.903 170.551 12.5563 170.854 12.1689H168.325C168.702 12.5758 169.13 12.9225 169.609 13.209ZM166.176 17.6377H168.92V16.9346H166.664V15.8408H168.92V15.1963H170.239V15.8408H172.495V16.9346H170.239V17.6377H172.856V18.7314H170.239V20.3135H168.92V18.7314H166.176V17.6377ZM173.454 11.1729H178.522V12.2861H177.136V13.1357H178.395V20.2451H177.36V19.6104H174.753V20.2256H173.718V13.1357H174.977V12.2861H173.454V11.1729ZM175.856 13.1357H176.296V12.2861H175.856V13.1357ZM175.309 16.8174C175.117 16.6514 174.932 16.4967 174.753 16.3535V17.0225H177.36V16.4463H177.155C176.582 16.4463 176.296 16.1533 176.296 15.5674V14.1611H175.851C175.825 15.3558 175.645 16.2412 175.309 16.8174ZM177.477 15.626H177.546V14.1611H177.136V15.2549C177.136 15.5023 177.249 15.626 177.477 15.626ZM174.587 15.9678C174.841 15.5902 174.968 14.988 174.968 14.1611H174.587V15.9678ZM174.753 18.5947H177.36V17.9893H174.753V18.5947ZM181.852 16.915C182.145 17.0452 182.559 17.195 183.093 17.3643C182.966 18.3311 182.858 18.9609 182.77 19.2539C182.682 19.5501 182.534 19.7666 182.326 19.9033C182.121 20.04 181.852 20.1084 181.52 20.1084H180.251C179.417 20.1084 179.001 19.6592 179.001 18.7607V14.3076H181.305V12.4619H178.854V11.2119H182.575V15.5576H180.261V18.4385C180.261 18.7314 180.401 18.8779 180.68 18.8779H181.139C181.384 18.8779 181.546 18.7884 181.628 18.6094C181.709 18.4303 181.784 17.8656 181.852 16.915ZM191.405 15.4893H186.503V15.9385H191.405V16.7197H186.503V17.1787H193.046V18.2334H190.717C191.313 18.637 191.926 19.0667 192.558 19.5225L191.767 20.3623L191.21 19.9229C187.831 20.0498 185.725 20.1637 184.892 20.2646L184.384 19.1123C184.823 18.9333 185.323 18.6403 185.883 18.2334H183.593V17.1787H185.341V14.6738C184.934 14.8984 184.498 15.1051 184.032 15.2939C183.837 14.8968 183.635 14.516 183.427 14.1514C184.602 13.8063 185.544 13.2855 186.254 12.5889H183.7V11.5342H187.07C187.229 11.2575 187.366 10.9613 187.48 10.6455H188.866C188.759 10.9548 188.634 11.251 188.49 11.5342H192.9V12.5889H190.444C191.182 13.3311 192.102 13.8063 193.202 14.0146C192.942 14.4248 192.737 14.8089 192.587 15.167C191.907 14.9717 191.277 14.6689 190.697 14.2588H186.503V14.708H191.405V15.4893ZM189.023 12.5889H187.826C187.641 12.8298 187.436 13.0609 187.211 13.2822H189.594C189.395 13.0674 189.205 12.8363 189.023 12.5889ZM189.345 18.5068L189.648 18.2334H187.778C187.384 18.4971 186.936 18.7835 186.435 19.0928L189.95 18.9561L189.345 18.5068Z" fill="#8C8C8C"/>
<path d="M274.789 11.3682V12.4131L274.169 13.1943H275.512V18.79C275.512 19.1383 275.458 19.4199 275.351 19.6348C275.246 19.8529 275.1 19.9977 274.911 20.0693C274.726 20.1442 274.327 20.1865 273.715 20.1963C273.637 19.7471 273.536 19.3206 273.412 18.917C273.712 18.9561 273.915 18.9756 274.022 18.9756C274.273 18.9756 274.398 18.8389 274.398 18.5654V17.96H273.285V20.0693H272.191V17.96H271.078C270.977 18.9821 270.749 19.7861 270.395 20.3721C270.082 20.0661 269.743 19.7926 269.379 19.5518C269.828 18.8486 270.043 17.7256 270.023 16.1826V14.1025L269.789 14.2979C269.6 13.9137 269.382 13.5492 269.135 13.2041C270.072 12.488 270.814 11.6318 271.361 10.6357L272.621 10.8799C272.536 11.0459 272.445 11.2087 272.348 11.3682H274.789ZM270.971 13.1943H272.777L273.393 12.3936H271.654C271.443 12.667 271.215 12.9339 270.971 13.1943ZM274.398 14.2295H273.285V15.2158H274.398V14.2295ZM271.137 15.2158H272.191V14.2295H271.137V15.2158ZM273.285 17.0811H274.398V16.0947H273.285V17.0811ZM271.132 17.0811H272.191V16.0947H271.137C271.137 16.4333 271.135 16.762 271.132 17.0811ZM269.77 12.4521H268.588C268.454 12.999 268.293 13.5264 268.104 14.0342H269.486V19.1807H267.963V19.7959H266.879V16.5488C266.778 16.7083 266.674 16.8662 266.566 17.0225C266.443 16.4691 266.273 15.9678 266.059 15.5186C266.658 14.6266 267.089 13.6045 267.353 12.4521H266.391V11.3584H269.77V12.4521ZM268.402 18.1162V15.0986H267.963V18.1162H268.402ZM277.78 10.6846C278.535 11.4268 279.085 11.9867 279.43 12.3643L278.317 13.292C277.946 12.8363 277.431 12.2406 276.774 11.5049L277.78 10.6846ZM281.715 10.7334H283.17C283.161 11.5439 283.135 12.2878 283.092 12.9648C283.353 15.8783 284.313 17.82 285.973 18.79C285.595 19.3499 285.273 19.8447 285.006 20.2744C283.704 19.1611 282.899 17.8395 282.589 16.3096C282.13 17.8395 281.273 19.1579 280.016 20.2646C279.749 19.7764 279.443 19.3044 279.098 18.8486C280.254 17.9111 280.983 16.9476 281.286 15.958C281.592 14.9652 281.735 13.2236 281.715 10.7334ZM279.723 16.1924C279.814 16.57 279.948 16.9671 280.123 17.3838C279.232 18.2497 278.411 19.1481 277.663 20.0791L276.93 19.1807C277.164 18.9202 277.282 18.6175 277.282 18.2725V15.0107H276.286V13.7412H278.58V17.2373L279.723 16.1924ZM288.065 10.665C288.462 11.1989 288.886 11.8271 289.335 12.5498L288.085 13.3018C287.636 12.4619 287.248 11.8011 286.923 11.3193L288.065 10.665ZM289.598 11.2412H296.044V12.5791H294.286V18.5068C294.286 18.904 294.219 19.223 294.086 19.4639C293.956 19.7048 293.762 19.874 293.505 19.9717C293.251 20.0726 292.346 20.1279 290.79 20.1377C290.692 19.6038 290.568 19.0993 290.419 18.624C290.91 18.6598 291.363 18.6777 291.776 18.6777C292.063 18.6777 292.268 18.6631 292.391 18.6338C292.515 18.6045 292.618 18.5312 292.699 18.4141C292.78 18.2936 292.821 18.1325 292.821 17.9307V12.5791H289.598V11.2412ZM290.077 16.8271C290.116 17.335 290.171 17.8395 290.243 18.3408C289.058 19.1221 288.264 19.7308 287.86 20.167L287.138 19.1709C287.3 18.9756 287.382 18.7021 287.382 18.3506V15.2158H286.386V13.9463H288.68V17.8037C288.986 17.6084 289.452 17.2829 290.077 16.8271ZM297.247 12.1201H299.034C298.81 11.7979 298.579 11.4854 298.341 11.1826L299.513 10.6553L300.529 11.8467L299.913 12.1201H301.876C302.267 11.6188 302.618 11.124 302.931 10.6357L304.405 11.1631C304.178 11.4072 303.886 11.7262 303.531 12.1201H305.372V16.9736H301.993V17.6475H306.124V18.8486H301.993V20.3037H300.626V18.8486H296.476V17.6475H300.626V16.9736H297.247V12.1201ZM304.083 13.2529H301.993V14.0439H304.083V13.2529ZM298.536 14.0439H300.626V13.2529H298.536V14.0439ZM304.083 15.8408V15.0498H301.993V15.8408H304.083ZM298.536 15.8408H300.626V15.0498H298.536V15.8408Z" fill="#8C8C8C"/>
<path d="M332 0L344 14.5V0H332Z" fill="#DDF0FE" fill-opacity="0.4"/>
<path d="M344 30H332L344 15.5V30Z" fill="#DDF0FE" fill-opacity="0.4"/>
</svg>
