<svg width="344" height="30" fill="none" xmlns="http://www.w3.org/2000/svg"><path d="M100.5 0H0v30h101l12.5-15-13-15z" fill="#0799EE"/><path d="M215.5 0H102l13 15-12.285 15H215.5L227 15 215.5 0z" fill="#DDF0FE"/><path d="M330.45 0H217l11.546 15L217 30h113.45L343 15 330.45 0z" fill="#DDF0FE"/><circle cx="13.5" cy="15.5" r="8.5" fill="#fff"/><circle cx="125.5" cy="15.5" r="8.5" fill="#fff"/><circle cx="240.5" cy="15.5" r="8.5" fill="#fff"/><path d="M14.271 20h-1.09v-7.225l-2.185.803v-.984l3.106-1.166h.17V20zm114.028 0h-5.59v-.78l2.953-3.28c.438-.497.738-.899.902-1.208.168-.312.252-.634.252-.966 0-.446-.134-.81-.404-1.096-.269-.285-.629-.428-1.078-.428-.539 0-.959.154-1.26.463-.297.305-.445.73-.445 1.277h-1.084c0-.785.252-1.42.756-1.904.508-.484 1.185-.726 2.033-.726.793 0 1.42.208 1.881.627.461.414.691.966.691 1.658 0 .84-.535 1.84-1.605 3l-2.285 2.478h4.283V20zm110.986-4.793h.815c.511-.008.914-.143 1.207-.404.293-.262.439-.616.439-1.06 0-1-.498-1.5-1.494-1.5-.469 0-.844.134-1.125.403-.277.266-.416.62-.416 1.061h-1.084c0-.676.246-1.236.738-1.682.496-.449 1.125-.673 1.887-.673.805 0 1.436.213 1.893.638.457.426.685 1.018.685 1.776 0 .37-.121.73-.363 1.078a2.157 2.157 0 01-.979.779c.469.149.83.395 1.084.738.258.344.387.764.387 1.26 0 .766-.25 1.373-.75 1.822-.5.45-1.15.674-1.951.674-.801 0-1.453-.217-1.957-.65-.5-.434-.75-1.006-.75-1.717h1.09c0 .45.146.809.439 1.078.293.27.686.404 1.178.404.523 0 .924-.136 1.201-.41.277-.273.416-.666.416-1.177 0-.497-.152-.877-.457-1.143-.305-.266-.744-.402-1.318-.41h-.815v-.885z" fill="#8C8C8C"/><path d="M32.526 12.51h.957v-1.718h1.26v1.719h.78v1.21h-.78v1.412l.722-.19c-.006.514-.003.95.01 1.308l-.732.21v2.534c0 .521-.12.864-.357 1.03-.234.166-.783.243-1.645.23-.059-.365-.14-.785-.245-1.26h.723c.176 0 .264-.114.264-.342v-1.84l-.899.248-.107-1.435 1.006-.21v-1.694h-.957V12.51zm3.691-1.533h5.313v4.083h-5.313v-4.083zm4.063 1.085h-2.813v.527h2.813v-.527zm0 1.914v-.528h-2.813v.528h2.813zM36.227 20.4c-.547-.403-.902-.65-1.064-.742.664-.735 1.06-1.69 1.19-2.861l1.143.244a9.971 9.971 0 01-.146.82c.404.54.742.852 1.016.933V16.65H35.69v-1.123h6.484v1.123h-2.558v.596h2.226v1.064h-2.226v.65c.83.01 1.702.005 2.617-.015a21.34 21.34 0 00-.264 1.153c-1.253.026-2.27.014-3.052-.035-.78-.045-1.425-.379-1.933-1a5.56 5.56 0 01-.757 1.337zm6.477-8.525h3.94c-.13-.31-.245-.576-.346-.8l1.445-.44c.156.309.358.722.605 1.24h3.78v1.23h-9.424v-1.23zm.059 3.496a20.183 20.183 0 002.822-2.246l1.054.967a35.888 35.888 0 01-2.959 2.412c-.214-.306-.52-.684-.917-1.133zm6.455-2.217a88.432 88.432 0 012.9 2.139l-1.016 1.123a38.819 38.819 0 00-2.783-2.315l.899-.947zm-3.184 1.934c.426.739.9 1.36 1.42 1.865a6.358 6.358 0 001.363-1.885l1.152.772a9.623 9.623 0 01-1.41 1.958c.947.54 2.192.9 3.735 1.079a61.13 61.13 0 00-.81 1.396c-1.553-.211-2.895-.714-4.024-1.508-1.123.778-2.484 1.294-4.082 1.548-.163-.365-.427-.83-.791-1.397 1.497-.189 2.75-.566 3.76-1.133A9.87 9.87 0 0144.94 15.9l1.094-.81zm8.381-4.424c.397.534.82 1.162 1.27 1.885l-1.25.752c-.45-.84-.837-1.5-1.162-1.983l1.142-.654zm1.533.576h6.446v1.338h-1.758v5.928c0 .397-.067.716-.2.957-.13.24-.324.41-.581.508-.254.1-1.16.156-2.715.166a12.549 12.549 0 00-.371-1.514c.491.036.944.054 1.357.054.287 0 .492-.015.615-.044a.513.513 0 00.308-.22c.081-.12.122-.282.122-.483v-5.352h-3.223V11.24zm.479 5.586c.039.508.094 1.012.166 1.514-1.185.781-1.98 1.39-2.383 1.826l-.723-.996c.163-.195.245-.469.245-.82v-3.135h-.996v-1.27h2.295v3.858c.306-.196.771-.521 1.396-.977zm7.17-4.707h1.787a20.617 20.617 0 00-.693-.937l1.172-.528 1.016 1.192-.616.273h1.963c.39-.501.742-.996 1.055-1.484l1.474.527c-.227.244-.519.563-.874.957h1.841v4.854h-3.379v.674h4.131v1.2h-4.13v1.456h-1.368v-1.455h-4.15v-1.201h4.15v-.674h-3.379V12.12zm6.836 1.133h-2.09v.79h2.09v-.79zm-5.547.79h2.09v-.79h-2.09v.79zm5.547 1.798v-.791h-2.09v.79h2.09zm-5.547 0h2.09v-.791h-2.09v.79z" fill="#fff"/><path d="M161.467 15.87c.377.176.768.339 1.172.488-.114.74-.217 1.211-.308 1.416a.943.943 0 01-.43.464c-.198.108-.447.161-.747.161h-.683c-.775 0-1.162-.433-1.162-1.298v-1.563h-.738c-.042.85-.2 1.481-.473 1.895-.274.41-.681.78-1.221 1.113a11.834 11.834 0 00-.879-.967 3.77 3.77 0 00.855-.708c.263-.293.416-.737.459-1.333h-1.392v-1.152h2.851v-1.084h-1.333c-.123.316-.245.602-.366.86a30.519 30.519 0 00-1.093-.528c.371-.755.706-1.647 1.005-2.676l1.143.371-.269.82h.913v-1.455h1.299v1.455h2.246v1.153h-2.246v1.084h2.608v1.152h-2.11v1.29c0 .266.098.4.293.4h.118c.179 0 .292-.062.341-.186.049-.127.098-.518.147-1.172zm-6.865-5.039c.488.638.927 1.237 1.318 1.797l-1.143.771a31.805 31.805 0 00-1.22-1.923l1.045-.645zm8.232 7.979c-.169.52-.306.957-.41 1.308l-4.453-.03c-1.397 0-2.409-.308-3.037-.927l-1.133 1.152-.557-1.484c.352-.293.677-.571.977-.835v-2.466h-.909v-1.24h2.188v3.716c.508.563 1.305.845 2.393.845l1.997.01c.765 0 1.746-.017 2.944-.05zm.481-6.377h1.055v-1.65h1.279v1.65h.908v1.22h-.908v1.519l.947-.19c-.078.546-.12.986-.127 1.318l-.82.151v2.515c0 .397-.078.698-.235.903-.156.205-.387.314-.693.327l-1.152.05a25.406 25.406 0 00-.264-1.3c.247.02.495.03.742.03.215 0 .323-.14.323-.42v-1.85l-1.026.219-.078-1.397a25.28 25.28 0 001.104-.136v-1.739h-1.055v-1.22zm9.043-1.348v1.084a6.91 6.91 0 01-1.563 1.597 8.751 8.751 0 002.149.444c-.209.443-.381.836-.518 1.182-1.074-.19-2.016-.485-2.827-.89-.788.401-1.691.72-2.71.958a10.502 10.502 0 00-.518-1.133 13.705 13.705 0 002.051-.566 6.205 6.205 0 01-1.172-1.201l.689-.391h-1.167v-1.084h5.586zm-2.749 2.124c.527-.306.942-.653 1.245-1.04h-2.529a5.81 5.81 0 001.284 1.04zm-3.433 4.429h2.744v-.703h-2.256V15.84h2.256v-.645h1.319v.645h2.256v1.094h-2.256v.703h2.617v1.093h-2.617v1.582h-1.319V18.73h-2.744v-1.093zm7.278-6.465h5.068v1.113h-1.386v.85h1.259v7.11h-1.035v-.636h-2.607v.616h-1.035v-7.09h1.259v-.85h-1.523v-1.113zm2.402 1.963h.44v-.85h-.44v.85zm-.547 3.681c-.192-.166-.377-.32-.556-.463v.669h2.607v-.577h-.205c-.573 0-.859-.293-.859-.879v-1.406h-.445c-.026 1.195-.206 2.08-.542 2.656zm2.168-1.191h.069v-1.465h-.41v1.094c0 .247.113.371.341.371zm-2.89.342c.254-.378.381-.98.381-1.807h-.381v1.807zm.166 2.627h2.607v-.606h-2.607v.606zm7.099-1.68c.293.13.707.28 1.241.45-.127.966-.235 1.596-.323 1.889-.088.296-.236.513-.444.65-.205.136-.474.204-.806.204h-1.269c-.834 0-1.25-.449-1.25-1.347v-4.453h2.304v-1.846h-2.451v-1.25h3.721v4.346h-2.314v2.88c0 .293.14.44.419.44h.459c.245 0 .407-.09.489-.269.081-.179.156-.743.224-1.694zm9.553-1.426h-4.902v.45h4.902v.78h-4.902v.46h6.543v1.054h-2.329c.596.404 1.209.834 1.841 1.29l-.791.84-.557-.44c-3.379.127-5.485.24-6.318.342l-.508-1.153c.439-.179.939-.472 1.499-.879h-2.29V17.18h1.748v-2.505c-.407.224-.843.431-1.309.62a20.869 20.869 0 00-.605-1.143c1.175-.345 2.117-.865 2.827-1.562H183.7v-1.055h3.37c.159-.277.296-.573.41-.889h1.386c-.107.31-.232.606-.376.89h4.41v1.054h-2.456c.738.742 1.658 1.217 2.758 1.426-.26.41-.465.794-.615 1.152a6.23 6.23 0 01-1.89-.908h-4.194v.449h4.902v.781zm-2.382-2.9h-1.197c-.185.24-.39.472-.615.693h2.383a7.95 7.95 0 01-.571-.693zm.322 5.918l.303-.274h-1.87c-.394.264-.842.55-1.343.86l3.515-.137-.605-.45zm85.444-7.139v1.045l-.62.781h1.343v5.596c0 .348-.054.63-.161.845-.105.218-.251.363-.44.434-.185.075-.584.117-1.196.127a10.43 10.43 0 00-.303-1.279c.3.04.503.059.61.059.251 0 .376-.137.376-.41v-.606h-1.113v2.11h-1.094v-2.11h-1.113c-.101 1.022-.329 1.826-.683 2.412a6.883 6.883 0 00-1.016-.82c.449-.703.664-1.826.644-3.37v-2.08l-.234.196a7.764 7.764 0 00-.654-1.094 8.143 8.143 0 002.226-2.568l1.26.244a7.647 7.647 0 01-.273.488h2.441zm-3.818 1.826h1.806l.616-.8h-1.739c-.211.273-.439.54-.683.8zm3.427 1.035h-1.113v.987h1.113v-.986zm-3.261.987h1.054v-.986h-1.054v.986zm2.148 1.865h1.113v-.986h-1.113v.986zm-2.153 0h1.059v-.986h-1.054c0 .338-.002.667-.005.986zm-1.362-4.629h-1.182a14.26 14.26 0 01-.484 1.582h1.382v5.147h-1.523v.615h-1.084v-3.247c-.101.16-.205.317-.313.474a7.04 7.04 0 00-.507-1.504c.599-.892 1.03-1.915 1.294-3.067h-.962v-1.094h3.379v1.094zm-1.368 5.664V15.1h-.439v3.017h.439zm9.378-7.431a48.451 48.451 0 011.65 1.68l-1.113.927a54.602 54.602 0 00-1.543-1.787l1.006-.82zm3.935.048h1.455a42.97 42.97 0 01-.078 2.232c.261 2.913 1.221 4.855 2.881 5.825-.378.56-.7 1.055-.967 1.484-1.302-1.113-2.107-2.434-2.417-3.964-.459 1.53-1.316 2.848-2.573 3.955-.267-.489-.573-.96-.918-1.416 1.156-.938 1.885-1.901 2.188-2.891.306-.993.449-2.734.429-5.225zm-1.992 5.46c.091.377.225.774.4 1.19a29.714 29.714 0 00-2.46 2.696l-.733-.898a1.32 1.32 0 00.352-.909v-3.261h-.996v-1.27h2.294v3.496l1.143-1.045zm8.342-5.528a27.47 27.47 0 011.27 1.885l-1.25.752a23.62 23.62 0 00-1.162-1.983l1.142-.654zm1.533.576h6.446v1.338h-1.758v5.928c0 .397-.067.716-.2.957-.13.24-.324.41-.581.508-.254.1-1.159.156-2.715.166a12.76 12.76 0 00-.371-1.514c.491.036.944.054 1.357.054.287 0 .492-.015.615-.044a.512.512 0 00.308-.22c.081-.12.122-.282.122-.483v-5.352h-3.223v-1.338zm.479 5.586c.039.508.094 1.012.166 1.514-1.185.781-1.979 1.39-2.383 1.826l-.722-.996c.162-.195.244-.469.244-.82v-3.135h-.996v-1.27h2.294v3.858c.306-.196.772-.521 1.397-.977zm7.17-4.707h1.787a19.883 19.883 0 00-.693-.937l1.172-.528 1.016 1.192-.616.273h1.963a19.72 19.72 0 001.055-1.484l1.474.527c-.227.244-.519.563-.874.957h1.841v4.854h-3.379v.674h4.131v1.2h-4.131v1.456h-1.367v-1.455h-4.15v-1.201h4.15v-.674h-3.379V12.12zm6.836 1.133h-2.09v.79h2.09v-.79zm-5.547.79h2.09v-.79h-2.09v.79zm5.547 1.798v-.791h-2.09v.79h2.09zm-5.547 0h2.09v-.791h-2.09v.79z" fill="#8C8C8C"/><path d="M332 0l12 14.5V0h-12zm12 30h-12l12-14.5V30z" fill="#DDF0FE" fill-opacity=".4"/></svg>