<svg width="344" height="30" viewBox="0 0 344 30" fill="none" xmlns="http://www.w3.org/2000/svg">
<path d="M100.5 0H0V30H101L113.5 15L100.5 0Z" fill="#0799EE"/>
<path d="M215.5 0H102L115 15L102.715 30H215.5L227 15L215.5 0Z" fill="#DDF0FE"/>
<path d="M330.45 0H217L228.546 15L217 30H330.45L343 15L330.45 0Z" fill="#DDF0FE"/>
<circle cx="13.5" cy="15.5" r="8.5" fill="white"/>
<circle cx="125.5" cy="15.5" r="8.5" fill="white"/>
<circle cx="240.5" cy="15.5" r="8.5" fill="white"/>
<path d="M14.2715 20H13.1816V12.7754L10.9961 13.5781V12.5938L14.1016 11.4277H14.2715V20Z" fill="#8C8C8C"/>
<path d="M128.299 20H122.709V19.2207L125.662 15.9395C126.1 15.4434 126.4 15.041 126.564 14.7324C126.732 14.4199 126.816 14.0977 126.816 13.7656C126.816 13.3203 126.682 12.9551 126.412 12.6699C126.143 12.3848 125.783 12.2422 125.334 12.2422C124.795 12.2422 124.375 12.3965 124.074 12.7051C123.777 13.0098 123.629 13.4355 123.629 13.9824H122.545C122.545 13.1973 122.797 12.5625 123.301 12.0781C123.809 11.5938 124.486 11.3516 125.334 11.3516C126.127 11.3516 126.754 11.5605 127.215 11.9785C127.676 12.3926 127.906 12.9453 127.906 13.6367C127.906 14.4766 127.371 15.4766 126.301 16.6367L124.016 19.1152H128.299V20Z" fill="#8C8C8C"/>
<path d="M239.285 15.207H240.1C240.611 15.1992 241.014 15.0645 241.307 14.8027C241.6 14.541 241.746 14.1875 241.746 13.7422C241.746 12.7422 241.248 12.2422 240.252 12.2422C239.783 12.2422 239.408 12.377 239.127 12.6465C238.85 12.9121 238.711 13.2656 238.711 13.707H237.627C237.627 13.0312 237.873 12.4707 238.365 12.0254C238.861 11.5762 239.49 11.3516 240.252 11.3516C241.057 11.3516 241.688 11.5645 242.145 11.9902C242.602 12.416 242.83 13.0078 242.83 13.7656C242.83 14.1367 242.709 14.4961 242.467 14.8438C242.229 15.1914 241.902 15.4512 241.488 15.623C241.957 15.7715 242.318 16.0176 242.572 16.3613C242.83 16.7051 242.959 17.125 242.959 17.6211C242.959 18.3867 242.709 18.9941 242.209 19.4434C241.709 19.8926 241.059 20.1172 240.258 20.1172C239.457 20.1172 238.805 19.9004 238.301 19.4668C237.801 19.0332 237.551 18.4609 237.551 17.75H238.641C238.641 18.1992 238.787 18.5586 239.08 18.8281C239.373 19.0977 239.766 19.2324 240.258 19.2324C240.781 19.2324 241.182 19.0957 241.459 18.8223C241.736 18.5488 241.875 18.1562 241.875 17.6445C241.875 17.1484 241.723 16.7676 241.418 16.502C241.113 16.2363 240.674 16.0996 240.1 16.0918H239.285V15.207Z" fill="#8C8C8C"/>
<path d="M42.2969 14.6064C42.2969 15.2705 42.1895 15.8483 41.9746 16.3398C41.7598 16.8281 41.4619 17.2204 41.0811 17.5166L42.2627 18.4443L41.3301 19.2695L39.8164 18.0537C39.6439 18.083 39.4648 18.0977 39.2793 18.0977C38.6901 18.0977 38.1644 17.9561 37.7021 17.6729C37.2399 17.3896 36.8818 16.986 36.6279 16.4619C36.374 15.9346 36.2454 15.3291 36.2422 14.6455V14.2939C36.2422 13.5941 36.3675 12.9788 36.6182 12.4482C36.8721 11.9144 37.2285 11.5059 37.6875 11.2227C38.1497 10.9362 38.6771 10.793 39.2695 10.793C39.862 10.793 40.3877 10.9362 40.8467 11.2227C41.3089 11.5059 41.6654 11.9144 41.916 12.4482C42.1699 12.9788 42.2969 13.5924 42.2969 14.2891V14.6064ZM40.8125 14.2842C40.8125 13.5387 40.679 12.9723 40.4121 12.585C40.1452 12.1976 39.7643 12.0039 39.2695 12.0039C38.778 12.0039 38.3988 12.196 38.1318 12.5801C37.8649 12.9609 37.7298 13.5208 37.7266 14.2598V14.6064C37.7266 15.3324 37.86 15.8955 38.127 16.2959C38.3939 16.6963 38.778 16.8965 39.2793 16.8965C39.7708 16.8965 40.1484 16.7044 40.4121 16.3203C40.6758 15.9329 40.8092 15.3698 40.8125 14.6309V14.2842ZM46.5424 17.4629C46.1941 17.8861 45.7123 18.0977 45.0971 18.0977C44.5307 18.0977 44.0977 17.9349 43.7982 17.6094C43.502 17.2839 43.3507 16.807 43.3441 16.1787V12.7168H44.7553V16.1299C44.7553 16.68 45.0059 16.9551 45.5072 16.9551C45.9857 16.9551 46.3145 16.7891 46.4936 16.457V12.7168H47.9096V18H46.5814L46.5424 17.4629ZM52.1355 18C52.0704 17.873 52.0232 17.7152 51.9939 17.5264C51.6521 17.9072 51.2078 18.0977 50.6609 18.0977C50.1434 18.0977 49.7137 17.9479 49.3719 17.6484C49.0333 17.349 48.8641 16.9714 48.8641 16.5156C48.8641 15.9557 49.0708 15.526 49.4842 15.2266C49.9008 14.9271 50.5014 14.7757 51.2859 14.7725H51.9354V14.4697C51.9354 14.2256 51.8719 14.0303 51.7449 13.8838C51.6212 13.7373 51.4243 13.6641 51.1541 13.6641C50.9165 13.6641 50.7293 13.721 50.5926 13.835C50.4591 13.9489 50.3924 14.1051 50.3924 14.3037H48.9813C48.9813 13.9977 49.0757 13.7145 49.2645 13.4541C49.4533 13.1937 49.7202 12.9902 50.0652 12.8438C50.4103 12.694 50.7977 12.6191 51.2273 12.6191C51.8784 12.6191 52.3943 12.7835 52.7752 13.1123C53.1593 13.4378 53.3514 13.8968 53.3514 14.4893V16.7793C53.3546 17.2806 53.4246 17.6598 53.5613 17.917V18H52.1355ZM50.9686 17.0186C51.1769 17.0186 51.3689 16.973 51.5447 16.8818C51.7205 16.7874 51.8507 16.6621 51.9354 16.5059V15.5977H51.408C50.7016 15.5977 50.3257 15.8418 50.2801 16.3301L50.2752 16.4131C50.2752 16.5889 50.337 16.7337 50.4607 16.8477C50.5844 16.9616 50.7537 17.0186 50.9686 17.0186ZM56.0246 18H54.6086V10.5H56.0246V18ZM58.7809 18H57.3648V12.7168H58.7809V18ZM57.2818 11.3496C57.2818 11.138 57.3518 10.9639 57.4918 10.8271C57.635 10.6904 57.8287 10.6221 58.0729 10.6221C58.3137 10.6221 58.5058 10.6904 58.649 10.8271C58.7923 10.9639 58.8639 11.138 58.8639 11.3496C58.8639 11.5645 58.7906 11.7402 58.6441 11.877C58.5009 12.0137 58.3105 12.082 58.0729 12.082C57.8352 12.082 57.6432 12.0137 57.4967 11.877C57.3535 11.7402 57.2818 11.5645 57.2818 11.3496ZM60.4336 18V13.752H59.6475V12.7168H60.4336V12.2676C60.4336 11.6751 60.6029 11.2161 60.9414 10.8906C61.2832 10.5618 61.7601 10.3975 62.3721 10.3975C62.5674 10.3975 62.8066 10.43 63.0898 10.4951L63.0752 11.5889C62.958 11.5596 62.8148 11.5449 62.6455 11.5449C62.1149 11.5449 61.8496 11.7939 61.8496 12.292V12.7168H62.8994V13.752H61.8496V18H60.4336ZM65.7045 16.0029L66.6811 12.7168H68.1947L66.0707 18.8203L65.9535 19.0986C65.6378 19.7887 65.1169 20.1338 64.391 20.1338C64.1859 20.1338 63.9776 20.1029 63.766 20.041V18.9717L63.9809 18.9766C64.2478 18.9766 64.4464 18.9359 64.5766 18.8545C64.71 18.7731 64.8142 18.638 64.8891 18.4492L65.0551 18.0146L63.2045 12.7168H64.723L65.7045 16.0029ZM77.3156 18H75.8508L72.9992 13.3223V18H71.5344V10.8906H72.9992L75.8557 15.5781V10.8906H77.3156V18ZM78.3824 15.3096C78.3824 14.7855 78.4833 14.3184 78.6852 13.9082C78.887 13.498 79.1767 13.1807 79.5543 12.9561C79.9352 12.7314 80.3762 12.6191 80.8775 12.6191C81.5904 12.6191 82.1715 12.8372 82.6207 13.2734C83.0732 13.7096 83.3255 14.3021 83.3775 15.0508L83.3873 15.4121C83.3873 16.2227 83.1611 16.8737 82.7086 17.3652C82.2561 17.8535 81.649 18.0977 80.8873 18.0977C80.1256 18.0977 79.5169 17.8535 79.0611 17.3652C78.6087 16.877 78.3824 16.2129 78.3824 15.373V15.3096ZM79.7936 15.4121C79.7936 15.9134 79.888 16.2975 80.0768 16.5645C80.2656 16.8281 80.5357 16.96 80.8873 16.96C81.2291 16.96 81.496 16.8298 81.6881 16.5693C81.8801 16.3057 81.9762 15.8857 81.9762 15.3096C81.9762 14.818 81.8801 14.4372 81.6881 14.167C81.496 13.8968 81.2258 13.7617 80.8775 13.7617C80.5325 13.7617 80.2656 13.8968 80.0768 14.167C79.888 14.4339 79.7936 14.849 79.7936 15.4121ZM88.9512 16.0811L89.6445 12.7168H91.0068L89.6592 18H88.4775L87.4766 14.6748L86.4756 18H85.2988L83.9512 12.7168H85.3135L86.002 16.0762L86.9688 12.7168H87.9893L88.9512 16.0811Z" fill="white"/>
<path d="M145.321 17.1348C145.321 16.8581 145.224 16.6465 145.028 16.5C144.833 16.3503 144.481 16.194 143.974 16.0312C143.466 15.8652 143.064 15.7025 142.768 15.543C141.96 15.1068 141.557 14.5192 141.557 13.7803C141.557 13.3962 141.664 13.0544 141.879 12.7549C142.097 12.4521 142.408 12.2161 142.812 12.0469C143.218 11.8776 143.674 11.793 144.179 11.793C144.687 11.793 145.139 11.8857 145.536 12.0713C145.933 12.2536 146.241 12.5124 146.459 12.8477C146.68 13.1829 146.791 13.5638 146.791 13.9902H145.326C145.326 13.6647 145.224 13.4124 145.019 13.2334C144.813 13.0511 144.525 12.96 144.154 12.96C143.796 12.96 143.518 13.0365 143.319 13.1895C143.121 13.3392 143.021 13.5378 143.021 13.7852C143.021 14.0163 143.137 14.21 143.368 14.3662C143.603 14.5225 143.946 14.6689 144.398 14.8057C145.232 15.0563 145.839 15.3672 146.22 15.7383C146.601 16.1094 146.791 16.5716 146.791 17.125C146.791 17.7402 146.558 18.2236 146.093 18.5752C145.627 18.9235 145.001 19.0977 144.213 19.0977C143.666 19.0977 143.168 18.9984 142.719 18.7998C142.27 18.598 141.926 18.3229 141.688 17.9746C141.454 17.6263 141.337 17.2227 141.337 16.7637H142.807C142.807 17.5482 143.275 17.9404 144.213 17.9404C144.561 17.9404 144.833 17.8704 145.028 17.7305C145.224 17.5872 145.321 17.3887 145.321 17.1348ZM150.226 19.0977C149.451 19.0977 148.82 18.86 148.331 18.3848C147.846 17.9095 147.604 17.2764 147.604 16.4854V16.3486C147.604 15.818 147.706 15.3444 147.912 14.9277C148.117 14.5078 148.406 14.1855 148.781 13.9609C149.158 13.7331 149.588 13.6191 150.07 13.6191C150.792 13.6191 151.36 13.847 151.774 14.3027C152.19 14.7585 152.399 15.4046 152.399 16.2412V16.8174H149.035C149.08 17.1624 149.217 17.4391 149.445 17.6475C149.676 17.8558 149.967 17.96 150.319 17.96C150.862 17.96 151.287 17.763 151.593 17.3691L152.287 18.1455C152.075 18.445 151.788 18.6794 151.427 18.8486C151.066 19.0146 150.665 19.0977 150.226 19.0977ZM150.065 14.7617C149.785 14.7617 149.557 14.8561 149.381 15.0449C149.209 15.2337 149.098 15.5039 149.049 15.8555H151.012V15.7432C151.006 15.4307 150.921 15.1898 150.758 15.0205C150.595 14.848 150.364 14.7617 150.065 14.7617ZM154.794 19H153.378V11.5H154.794V19ZM158.492 19.0977C157.718 19.0977 157.086 18.86 156.598 18.3848C156.113 17.9095 155.87 17.2764 155.87 16.4854V16.3486C155.87 15.818 155.973 15.3444 156.178 14.9277C156.383 14.5078 156.673 14.1855 157.047 13.9609C157.425 13.7331 157.854 13.6191 158.336 13.6191C159.059 13.6191 159.627 13.847 160.04 14.3027C160.457 14.7585 160.665 15.4046 160.665 16.2412V16.8174H157.301C157.347 17.1624 157.483 17.4391 157.711 17.6475C157.942 17.8558 158.234 17.96 158.585 17.96C159.129 17.96 159.554 17.763 159.86 17.3691L160.553 18.1455C160.341 18.445 160.055 18.6794 159.694 18.8486C159.332 19.0146 158.932 19.0977 158.492 19.0977ZM158.331 14.7617C158.051 14.7617 157.823 14.8561 157.648 15.0449C157.475 15.2337 157.364 15.5039 157.316 15.8555H159.279V15.7432C159.272 15.4307 159.187 15.1898 159.025 15.0205C158.862 14.848 158.631 14.7617 158.331 14.7617ZM163.768 17.96C164.029 17.96 164.24 17.8883 164.403 17.7451C164.566 17.6019 164.65 17.4115 164.657 17.1738H165.98C165.977 17.5319 165.879 17.8607 165.687 18.1602C165.495 18.4564 165.231 18.6875 164.896 18.8535C164.564 19.0163 164.196 19.0977 163.793 19.0977C163.037 19.0977 162.442 18.8584 162.005 18.3799C161.569 17.8981 161.351 17.234 161.351 16.3877V16.2949C161.351 15.4811 161.568 14.8317 162.001 14.3467C162.434 13.8617 163.028 13.6191 163.783 13.6191C164.444 13.6191 164.973 13.8079 165.37 14.1855C165.77 14.5599 165.974 15.0596 165.98 15.6846H164.657C164.65 15.4111 164.566 15.1898 164.403 15.0205C164.24 14.848 164.025 14.7617 163.758 14.7617C163.43 14.7617 163.181 14.8822 163.011 15.123C162.845 15.3607 162.762 15.748 162.762 16.2852V16.4316C162.762 16.9753 162.845 17.3659 163.011 17.6035C163.177 17.8411 163.43 17.96 163.768 17.96ZM168.575 12.418V13.7168H169.479V14.752H168.575V17.3887C168.575 17.584 168.613 17.724 168.688 17.8086C168.762 17.8932 168.906 17.9355 169.117 17.9355C169.273 17.9355 169.412 17.9242 169.532 17.9014V18.9707C169.256 19.0553 168.971 19.0977 168.678 19.0977C167.688 19.0977 167.184 18.598 167.164 17.5986V14.752H166.393V13.7168H167.164V12.418H168.575ZM174.513 16.4951V19H173.048V11.8906H175.821C176.355 11.8906 176.824 11.9883 177.227 12.1836C177.634 12.3789 177.947 12.6572 178.165 13.0186C178.383 13.3766 178.492 13.7852 178.492 14.2441C178.492 14.9408 178.253 15.4909 177.774 15.8945C177.299 16.2949 176.64 16.4951 175.797 16.4951H174.513ZM174.513 15.3086H175.821C176.208 15.3086 176.503 15.2174 176.705 15.0352C176.91 14.8529 177.013 14.5924 177.013 14.2539C177.013 13.9056 176.91 13.624 176.705 13.4092C176.5 13.1943 176.217 13.0837 175.855 13.0771H174.513V15.3086ZM182.513 19C182.448 18.873 182.401 18.7152 182.371 18.5264C182.029 18.9072 181.585 19.0977 181.038 19.0977C180.521 19.0977 180.091 18.9479 179.749 18.6484C179.411 18.349 179.241 17.9714 179.241 17.5156C179.241 16.9557 179.448 16.526 179.862 16.2266C180.278 15.9271 180.879 15.7757 181.663 15.7725H182.313V15.4697C182.313 15.2256 182.249 15.0303 182.122 14.8838C181.999 14.7373 181.802 14.6641 181.531 14.6641C181.294 14.6641 181.107 14.721 180.97 14.835C180.836 14.9489 180.77 15.1051 180.77 15.3037H179.359C179.359 14.9977 179.453 14.7145 179.642 14.4541C179.831 14.1937 180.098 13.9902 180.443 13.8438C180.788 13.694 181.175 13.6191 181.605 13.6191C182.256 13.6191 182.772 13.7835 183.153 14.1123C183.537 14.4378 183.729 14.8968 183.729 15.4893V17.7793C183.732 18.2806 183.802 18.6598 183.939 18.917V19H182.513ZM181.346 18.0186C181.554 18.0186 181.746 17.973 181.922 17.8818C182.098 17.7874 182.228 17.6621 182.313 17.5059V16.5977H181.785C181.079 16.5977 180.703 16.8418 180.657 17.3301L180.653 17.4131C180.653 17.5889 180.714 17.7337 180.838 17.8477C180.962 17.9616 181.131 18.0186 181.346 18.0186ZM187.11 17.96C187.37 17.96 187.582 17.8883 187.745 17.7451C187.907 17.6019 187.992 17.4115 187.999 17.1738H189.322C189.319 17.5319 189.221 17.8607 189.029 18.1602C188.837 18.4564 188.573 18.6875 188.238 18.8535C187.906 19.0163 187.538 19.0977 187.134 19.0977C186.379 19.0977 185.783 18.8584 185.347 18.3799C184.911 17.8981 184.693 17.234 184.693 16.3877V16.2949C184.693 15.4811 184.909 14.8317 185.342 14.3467C185.775 13.8617 186.369 13.6191 187.125 13.6191C187.785 13.6191 188.314 13.8079 188.712 14.1855C189.112 14.5599 189.315 15.0596 189.322 15.6846H187.999C187.992 15.4111 187.907 15.1898 187.745 15.0205C187.582 14.848 187.367 14.7617 187.1 14.7617C186.771 14.7617 186.522 14.8822 186.353 15.123C186.187 15.3607 186.104 15.748 186.104 16.2852V16.4316C186.104 16.9753 186.187 17.3659 186.353 17.6035C186.519 17.8411 186.771 17.96 187.11 17.96ZM192.146 16.8809L191.639 17.3887V19H190.228V11.5H191.639V15.6553L191.912 15.3037L193.265 13.7168H194.959L193.05 15.9189L195.125 19H193.504L192.146 16.8809ZM198.731 19C198.666 18.873 198.619 18.7152 198.589 18.5264C198.247 18.9072 197.803 19.0977 197.256 19.0977C196.739 19.0977 196.309 18.9479 195.967 18.6484C195.629 18.349 195.459 17.9714 195.459 17.5156C195.459 16.9557 195.666 16.526 196.079 16.2266C196.496 15.9271 197.097 15.7757 197.881 15.7725H198.531V15.4697C198.531 15.2256 198.467 15.0303 198.34 14.8838C198.217 14.7373 198.02 14.6641 197.749 14.6641C197.512 14.6641 197.325 14.721 197.188 14.835C197.054 14.9489 196.988 15.1051 196.988 15.3037H195.577C195.577 14.9977 195.671 14.7145 195.86 14.4541C196.049 14.1937 196.315 13.9902 196.661 13.8438C197.006 13.694 197.393 13.6191 197.823 13.6191C198.474 13.6191 198.99 13.7835 199.371 14.1123C199.755 14.4378 199.947 14.8968 199.947 15.4893V17.7793C199.95 18.2806 200.02 18.6598 200.157 18.917V19H198.731ZM197.564 18.0186C197.772 18.0186 197.964 17.973 198.14 17.8818C198.316 17.7874 198.446 17.6621 198.531 17.5059V16.5977H198.003C197.297 16.5977 196.921 16.8418 196.875 17.3301L196.871 17.4131C196.871 17.5889 196.932 17.7337 197.056 17.8477C197.18 17.9616 197.349 18.0186 197.564 18.0186ZM200.926 16.3193C200.926 15.5088 201.118 14.8561 201.502 14.3613C201.889 13.8665 202.41 13.6191 203.064 13.6191C203.644 13.6191 204.095 13.8177 204.417 14.2148L204.475 13.7168H205.755V18.8242C205.755 19.2865 205.649 19.6885 205.437 20.0303C205.229 20.3721 204.934 20.6325 204.554 20.8115C204.173 20.9906 203.727 21.0801 203.216 21.0801C202.828 21.0801 202.451 21.002 202.083 20.8457C201.715 20.6927 201.437 20.4941 201.248 20.25L201.873 19.3906C202.224 19.7845 202.651 19.9814 203.152 19.9814C203.526 19.9814 203.818 19.8805 204.026 19.6787C204.235 19.4801 204.339 19.1969 204.339 18.8291V18.5459C204.013 18.9137 203.585 19.0977 203.054 19.0977C202.42 19.0977 201.905 18.8503 201.512 18.3555C201.121 17.8574 200.926 17.1982 200.926 16.3779V16.3193ZM202.337 16.4219C202.337 16.9004 202.433 17.2764 202.625 17.5498C202.817 17.82 203.081 17.9551 203.416 17.9551C203.846 17.9551 204.153 17.7939 204.339 17.4717V15.25C204.15 14.9277 203.846 14.7666 203.426 14.7666C203.087 14.7666 202.82 14.9049 202.625 15.1816C202.433 15.4583 202.337 15.8717 202.337 16.4219ZM209.375 19.0977C208.6 19.0977 207.969 18.86 207.481 18.3848C206.996 17.9095 206.753 17.2764 206.753 16.4854V16.3486C206.753 15.818 206.856 15.3444 207.061 14.9277C207.266 14.5078 207.556 14.1855 207.93 13.9609C208.307 13.7331 208.737 13.6191 209.219 13.6191C209.942 13.6191 210.51 13.847 210.923 14.3027C211.34 14.7585 211.548 15.4046 211.548 16.2412V16.8174H208.184C208.229 17.1624 208.366 17.4391 208.594 17.6475C208.825 17.8558 209.116 17.96 209.468 17.96C210.012 17.96 210.436 17.763 210.742 17.3691L211.436 18.1455C211.224 18.445 210.938 18.6794 210.576 18.8486C210.215 19.0146 209.815 19.0977 209.375 19.0977ZM209.214 14.7617C208.934 14.7617 208.706 14.8561 208.53 15.0449C208.358 15.2337 208.247 15.5039 208.198 15.8555H210.161V15.7432C210.155 15.4307 210.07 15.1898 209.907 15.0205C209.745 14.848 209.514 14.7617 209.214 14.7617Z" fill="#8C8C8C"/>
<path d="M260.216 16.6318C260.16 17.3968 259.877 17.999 259.366 18.4385C258.858 18.8779 258.188 19.0977 257.354 19.0977C256.443 19.0977 255.725 18.7917 255.201 18.1797C254.68 17.5645 254.42 16.7214 254.42 15.6504V15.2158C254.42 14.5322 254.54 13.93 254.781 13.4092C255.022 12.8883 255.366 12.4896 255.812 12.2129C256.261 11.9329 256.782 11.793 257.374 11.793C258.194 11.793 258.855 12.0127 259.356 12.4521C259.858 12.8916 260.147 13.5085 260.226 14.3027H258.761C258.725 13.8438 258.596 13.5117 258.375 13.3066C258.157 13.0983 257.823 12.9941 257.374 12.9941C256.886 12.9941 256.52 13.1699 256.275 13.5215C256.035 13.8698 255.911 14.4118 255.904 15.1475V15.6846C255.904 16.4528 256.02 17.0143 256.251 17.3691C256.485 17.724 256.853 17.9014 257.354 17.9014C257.807 17.9014 258.144 17.7988 258.365 17.5938C258.59 17.3854 258.718 17.0648 258.751 16.6318H260.216ZM260.965 16.3096C260.965 15.7855 261.066 15.3184 261.268 14.9082C261.47 14.498 261.76 14.1807 262.137 13.9561C262.518 13.7314 262.959 13.6191 263.46 13.6191C264.173 13.6191 264.754 13.8372 265.204 14.2734C265.656 14.7096 265.908 15.3021 265.96 16.0508L265.97 16.4121C265.97 17.2227 265.744 17.8737 265.291 18.3652C264.839 18.8535 264.232 19.0977 263.47 19.0977C262.708 19.0977 262.1 18.8535 261.644 18.3652C261.191 17.877 260.965 17.2129 260.965 16.373V16.3096ZM262.376 16.4121C262.376 16.9134 262.471 17.2975 262.66 17.5645C262.848 17.8281 263.119 17.96 263.47 17.96C263.812 17.96 264.079 17.8298 264.271 17.5693C264.463 17.3057 264.559 16.8857 264.559 16.3096C264.559 15.818 264.463 15.4372 264.271 15.167C264.079 14.8968 263.809 14.7617 263.46 14.7617C263.115 14.7617 262.848 14.8968 262.66 15.167C262.471 15.4339 262.376 15.849 262.376 16.4121ZM268.238 13.7168L268.282 14.3271C268.66 13.8551 269.166 13.6191 269.801 13.6191C270.36 13.6191 270.777 13.7835 271.051 14.1123C271.324 14.4411 271.464 14.9326 271.471 15.5869V19H270.059V15.6211C270.059 15.3216 269.994 15.1051 269.864 14.9717C269.734 14.835 269.517 14.7666 269.215 14.7666C268.818 14.7666 268.52 14.9359 268.321 15.2744V19H266.91V13.7168H268.238ZM272.987 19V14.752H272.2V13.7168H272.987V13.4727C272.993 12.8086 273.196 12.2975 273.597 11.9395C274.001 11.5781 274.569 11.3975 275.301 11.3975C275.74 11.3975 276.274 11.4935 276.903 11.6855L276.697 12.8525C276.378 12.7581 276.131 12.6979 275.955 12.6719C275.779 12.6426 275.591 12.6279 275.389 12.6279C274.731 12.6279 274.403 12.9193 274.403 13.502V13.7168H275.443V14.752H274.403V19H272.987ZM277.562 19H276.146V13.7168H277.562V19ZM281.797 15.04C281.605 15.014 281.436 15.001 281.29 15.001C280.756 15.001 280.406 15.1816 280.24 15.543V19H278.829V13.7168H280.162L280.201 14.3467C280.484 13.8617 280.876 13.6191 281.378 13.6191C281.534 13.6191 281.68 13.6403 281.817 13.6826L281.797 15.04ZM283.904 13.7168L283.948 14.3076C284.323 13.8486 284.829 13.6191 285.467 13.6191C286.147 13.6191 286.614 13.8877 286.868 14.4248C287.239 13.8877 287.768 13.6191 288.455 13.6191C289.028 13.6191 289.454 13.7868 289.734 14.1221C290.014 14.4541 290.154 14.9554 290.154 15.626V19H288.738V15.6309C288.738 15.3314 288.68 15.1133 288.562 14.9766C288.445 14.8366 288.239 14.7666 287.942 14.7666C287.519 14.7666 287.226 14.9684 287.063 15.3721L287.068 19H285.657V15.6357C285.657 15.3298 285.597 15.1084 285.477 14.9717C285.356 14.835 285.151 14.7666 284.861 14.7666C284.461 14.7666 284.171 14.9326 283.992 15.2646V19H282.581V13.7168H283.904ZM299.866 15.6064C299.866 16.3063 299.742 16.9199 299.495 17.4473C299.248 17.9746 298.893 18.3815 298.43 18.668C297.971 18.9544 297.444 19.0977 296.848 19.0977C296.259 19.0977 295.734 18.9561 295.271 18.6729C294.809 18.3896 294.451 17.986 294.197 17.4619C293.943 16.9346 293.815 16.3291 293.811 15.6455V15.2939C293.811 14.5941 293.937 13.9788 294.187 13.4482C294.441 12.9144 294.798 12.5059 295.257 12.2227C295.719 11.9362 296.246 11.793 296.839 11.793C297.431 11.793 297.957 11.9362 298.416 12.2227C298.878 12.5059 299.235 12.9144 299.485 13.4482C299.739 13.9788 299.866 14.5924 299.866 15.2891V15.6064ZM298.382 15.2842C298.382 14.5387 298.248 13.9723 297.981 13.585C297.714 13.1976 297.333 13.0039 296.839 13.0039C296.347 13.0039 295.968 13.196 295.701 13.5801C295.434 13.9609 295.299 14.5208 295.296 15.2598V15.6064C295.296 16.3324 295.429 16.8955 295.696 17.2959C295.963 17.6963 296.347 17.8965 296.848 17.8965C297.34 17.8965 297.718 17.7044 297.981 17.3203C298.245 16.9329 298.378 16.3698 298.382 15.6309V15.2842ZM303.906 15.04C303.714 15.014 303.545 15.001 303.399 15.001C302.865 15.001 302.515 15.1816 302.349 15.543V19H300.938V13.7168H302.271L302.31 14.3467C302.593 13.8617 302.985 13.6191 303.487 13.6191C303.643 13.6191 303.789 13.6403 303.926 13.6826L303.906 15.04ZM304.373 16.3193C304.373 15.4958 304.557 14.8398 304.924 14.3516C305.296 13.8633 305.802 13.6191 306.443 13.6191C306.957 13.6191 307.382 13.8112 307.717 14.1953V11.5H309.133V19H307.859L307.791 18.4385C307.439 18.8779 306.987 19.0977 306.433 19.0977C305.811 19.0977 305.312 18.8535 304.934 18.3652C304.56 17.8737 304.373 17.1917 304.373 16.3193ZM305.784 16.4219C305.784 16.9167 305.87 17.2959 306.043 17.5596C306.215 17.8232 306.466 17.9551 306.795 17.9551C307.231 17.9551 307.538 17.7712 307.717 17.4033V15.3184C307.542 14.9505 307.237 14.7666 306.804 14.7666C306.124 14.7666 305.784 15.3184 305.784 16.4219ZM312.759 19.0977C311.984 19.0977 311.353 18.86 310.864 18.3848C310.379 17.9095 310.137 17.2764 310.137 16.4854V16.3486C310.137 15.818 310.239 15.3444 310.444 14.9277C310.649 14.5078 310.939 14.1855 311.313 13.9609C311.691 13.7331 312.121 13.6191 312.603 13.6191C313.325 13.6191 313.893 13.847 314.307 14.3027C314.723 14.7585 314.932 15.4046 314.932 16.2412V16.8174H311.567C311.613 17.1624 311.75 17.4391 311.978 17.6475C312.209 17.8558 312.5 17.96 312.852 17.96C313.395 17.96 313.82 17.763 314.126 17.3691L314.819 18.1455C314.608 18.445 314.321 18.6794 313.96 18.8486C313.599 19.0146 313.198 19.0977 312.759 19.0977ZM312.598 14.7617C312.318 14.7617 312.09 14.8561 311.914 15.0449C311.742 15.2337 311.631 15.5039 311.582 15.8555H313.545V15.7432C313.538 15.4307 313.454 15.1898 313.291 15.0205C313.128 14.848 312.897 14.7617 312.598 14.7617ZM318.806 15.04C318.614 15.014 318.445 15.001 318.298 15.001C317.764 15.001 317.414 15.1816 317.248 15.543V19H315.837V13.7168H317.17L317.209 14.3467C317.493 13.8617 317.885 13.6191 318.386 13.6191C318.542 13.6191 318.689 13.6403 318.826 13.6826L318.806 15.04Z" fill="#8C8C8C"/>
<path d="M332 0L344 14.5V0H332Z" fill="#DDF0FE" fill-opacity="0.4"/>
<path d="M344 30H332L344 15.5V30Z" fill="#DDF0FE" fill-opacity="0.4"/>
</svg>
