<svg width="60" height="56" viewBox="0 0 60 56" fill="none" xmlns="http://www.w3.org/2000/svg">
<path d="M36.3438 42.5886C42.9438 37.8002 43.6797 27.9836 38.4306 20.7485C33.1815 13.5135 23.6212 11.1668 17.0211 15.9552C10.4211 20.7436 9.68521 30.5601 14.9343 37.7952C20.1834 45.0303 29.7437 47.377 36.3438 42.5886Z" stroke="#28BCFF" stroke-width="2.25039"/>
<circle cx="27.8481" cy="27.7542" r="25.8795" stroke="#28BCFF" stroke-width="3.75065"/>
<circle cx="27.8485" cy="27.754" r="21.3787" stroke="#FFFF02" stroke-width="8.25144"/>
<path d="M20.3893 24.6352C19.9849 24.1677 19.2792 24.1139 18.8086 24.5147L12.1162 30.2157C11.8821 30.4151 11.7399 30.7016 11.7224 31.0085C11.705 31.3155 11.814 31.6162 12.024 31.8408L24.3522 45.0244C24.7697 45.4708 25.4674 45.5023 25.9234 45.0952L57.8529 16.5917C58.0766 16.392 58.2113 16.1113 58.2272 15.8118C58.243 15.5124 58.1387 15.219 57.9373 14.9968L54.0627 10.721C53.6542 10.2701 52.9612 10.2257 52.4984 10.6208L27.0549 32.3412L20.3893 24.6352Z" fill="#FFFF0A" stroke="#28BCFF" stroke-width="2.25039" stroke-linecap="round" stroke-linejoin="round"/>
</svg>
