<svg width="172" height="33" viewBox="0 0 172 33" fill="none" xmlns="http://www.w3.org/2000/svg">
<path d="M16.9294 0.992188L22.3531 13.1822H31.8446L23.709 19.9544L26.4209 32.1444L16.9294 25.3722L6.08193 32.1444L8.79379 19.9544L0.658203 13.1822H11.5057L16.9294 0.992188Z" fill="#FEB229"/>
<path d="M50.822 0.991211L56.2457 13.1812H65.7372L57.6016 19.9534L60.3135 32.1434L50.822 25.3712L39.9745 32.1434L42.6864 19.9534L34.5508 13.1812H45.3982L50.822 0.991211Z" fill="#FEB229"/>
<path d="M86.0954 0.991211L91.5191 13.1812H101.011L92.8751 19.9534L95.5869 32.1434L86.0954 25.3712L75.2479 32.1434L77.9598 19.9534L69.8242 13.1812H80.6717L86.0954 0.991211Z" fill="#FEB229"/>
<path d="M121.34 0.991211L126.763 13.1812H136.255L128.119 19.9534L130.831 32.1434L121.34 25.3712L110.492 32.1434L113.204 19.9534L105.068 13.1812H115.916L121.34 0.991211Z" fill="#FEB229"/>
<path d="M156.591 0.991211L162.015 13.1812H171.507L163.371 19.9534L166.083 32.1434L156.591 25.3712L145.744 32.1434L148.456 19.9534L140.32 13.1812H151.168L156.591 0.991211Z" fill="#FEB229"/>
</svg>
