<svg width="100" height="298" viewBox="0 0 100 298" fill="none" xmlns="http://www.w3.org/2000/svg">
<path d="M6.31698 52.7879C16.8681 102.042 39.9339 176.352 44.7213 191.605C46.3815 196.894 53.8049 197.006 55.5991 191.736C60.7161 176.706 85.1892 103.517 94.0047 52.6032C96.7196 36.9237 91.8111 24.745 82.7153 16.6595C73.8308 8.76176 61.3898 5.1364 49.363 5.25117C37.3404 5.36591 25.0238 9.22536 16.3995 17.2007C7.55592 25.3789 3.04195 37.4995 6.31698 52.7879Z" fill="#01CCFE" stroke="black" stroke-width="9.50295" stroke-linecap="round" stroke-linejoin="round"/>
<path d="M47 293.819C60.4213 293.819 71.0012 282.497 71.0012 268.909C71.0012 255.321 60.4213 243.999 47 243.999C33.5787 243.999 22.9988 255.321 22.9988 268.909C22.9988 282.497 33.5787 293.819 47 293.819Z" fill="#01CCFE" stroke="black" stroke-width="8.00249"/>
</svg>
