<svg width="50" height="49" viewBox="0 0 50 49" fill="none" xmlns="http://www.w3.org/2000/svg">
<path d="M49.0385 24.4544C49.0385 37.7457 38.2694 48.5205 24.985 48.5205C11.7007 48.5205 0.931641 37.7457 0.931641 24.4544C0.931641 11.163 11.7007 0.388245 24.985 0.388245C38.2694 0.388245 49.0385 11.163 49.0385 24.4544Z" fill="#034be3"/>
<path fill-rule="evenodd" clip-rule="evenodd" d="M37.6957 16.0124C38.8605 17.0175 38.9904 18.7771 37.9857 19.9425L25.2538 34.712C24.2871 35.8334 22.6126 36.0024 21.4415 35.0967L11.8925 27.712C10.6755 26.7708 10.4515 25.0207 11.3922 23.8031C12.3329 22.5854 14.082 22.3613 15.2991 23.3025L22.7597 29.0722L33.7677 16.3025C34.7723 15.1371 36.531 15.0072 37.6957 16.0124Z" fill="white"/>
</svg>
