<svg width="60" height="56" fill="none" xmlns="http://www.w3.org/2000/svg"><path d="M36.344 42.589c6.6-4.789 7.336-14.605 2.087-21.84-5.25-7.235-14.81-9.582-21.41-4.794-6.6 4.789-7.336 14.605-2.087 21.84 5.25 7.235 14.81 9.582 21.41 4.794z" stroke="#28BCFF" stroke-width="2.25"/><circle cx="27.848" cy="27.754" r="25.88" stroke="#28BCFF" stroke-width="3.751"/><circle cx="27.849" cy="27.754" r="21.379" stroke="#FFFF02" stroke-width="8.251"/><path d="M20.39 24.635a1.125 1.125 0 00-1.581-.12l-6.693 5.7a1.126 1.126 0 00-.092 1.626l12.328 13.183a1.125 1.125 0 001.571.071l31.93-28.503a1.125 1.125 0 00.084-1.595l-3.874-4.276a1.125 1.125 0 00-1.565-.1L27.055 32.34l-6.666-7.706z" fill="#FFFF0A" stroke="#28BCFF" stroke-width="2.25" stroke-linecap="round" stroke-linejoin="round"/></svg>