<svg width="344" height="30" viewBox="0 0 344 30" fill="none" xmlns="http://www.w3.org/2000/svg">
<path d="M100.5 0H0V30H101L113.5 15L100.5 0Z" fill="#0799EE"/>
<path d="M215.5 0H102L115 15L102.715 30H215.5L227 15L215.5 0Z" fill="#DDF0FE"/>
<path d="M330.45 0H217L228.546 15L217 30H330.45L343 15L330.45 0Z" fill="#DDF0FE"/>
<circle cx="13.5" cy="15.5" r="8.5" fill="white"/>
<circle cx="125.5" cy="15.5" r="8.5" fill="white"/>
<circle cx="240.5" cy="15.5" r="8.5" fill="white"/>
<path d="M14.2715 20H13.1816V12.7754L10.9961 13.5781V12.5938L14.1016 11.4277H14.2715V20Z" fill="#8C8C8C"/>
<path d="M128.299 20H122.709V19.2207L125.662 15.9395C126.1 15.4434 126.4 15.041 126.564 14.7324C126.732 14.4199 126.816 14.0977 126.816 13.7656C126.816 13.3203 126.682 12.9551 126.412 12.6699C126.143 12.3848 125.783 12.2422 125.334 12.2422C124.795 12.2422 124.375 12.3965 124.074 12.7051C123.777 13.0098 123.629 13.4355 123.629 13.9824H122.545C122.545 13.1973 122.797 12.5625 123.301 12.0781C123.809 11.5938 124.486 11.3516 125.334 11.3516C126.127 11.3516 126.754 11.5605 127.215 11.9785C127.676 12.3926 127.906 12.9453 127.906 13.6367C127.906 14.4766 127.371 15.4766 126.301 16.6367L124.016 19.1152H128.299V20Z" fill="#8C8C8C"/>
<path d="M239.285 15.207H240.1C240.611 15.1992 241.014 15.0645 241.307 14.8027C241.6 14.541 241.746 14.1875 241.746 13.7422C241.746 12.7422 241.248 12.2422 240.252 12.2422C239.783 12.2422 239.408 12.377 239.127 12.6465C238.85 12.9121 238.711 13.2656 238.711 13.707H237.627C237.627 13.0312 237.873 12.4707 238.365 12.0254C238.861 11.5762 239.49 11.3516 240.252 11.3516C241.057 11.3516 241.688 11.5645 242.145 11.9902C242.602 12.416 242.83 13.0078 242.83 13.7656C242.83 14.1367 242.709 14.4961 242.467 14.8438C242.229 15.1914 241.902 15.4512 241.488 15.623C241.957 15.7715 242.318 16.0176 242.572 16.3613C242.83 16.7051 242.959 17.125 242.959 17.6211C242.959 18.3867 242.709 18.9941 242.209 19.4434C241.709 19.8926 241.059 20.1172 240.258 20.1172C239.457 20.1172 238.805 19.9004 238.301 19.4668C237.801 19.0332 237.551 18.4609 237.551 17.75H238.641C238.641 18.1992 238.787 18.5586 239.08 18.8281C239.373 19.0977 239.766 19.2324 240.258 19.2324C240.781 19.2324 241.182 19.0957 241.459 18.8223C241.736 18.5488 241.875 18.1562 241.875 17.6445C241.875 17.1484 241.723 16.7676 241.418 16.502C241.113 16.2363 240.674 16.0996 240.1 16.0918H239.285V15.207Z" fill="#8C8C8C"/>
<path d="M43.5992 19H43.1207C42.4632 19 41.9423 18.7331 41.5582 18.1992C41.1741 17.6621 40.982 16.9557 40.982 16.0801V11.4121H42.3395V16.0801C42.3395 16.2819 42.3671 16.4561 42.4225 16.6025C42.4778 16.7458 42.5494 16.8646 42.6373 16.959C42.7285 17.0501 42.8326 17.1201 42.9498 17.1689C43.067 17.2178 43.1972 17.2422 43.3404 17.2422H43.5992V19ZM49.2656 16.9492C49.4642 16.8613 49.6139 16.762 49.7148 16.6514C49.819 16.5407 49.8711 16.4235 49.8711 16.2998C49.8711 16.085 49.7946 15.9059 49.6416 15.7627C49.4886 15.6195 49.277 15.5479 49.0068 15.5479C48.7074 15.5479 48.4225 15.6064 48.1523 15.7236C47.8822 15.8376 47.6299 15.9792 47.3955 16.1484C47.1904 16.2982 46.9967 16.4674 46.8145 16.6562C46.6322 16.8418 46.4596 17.0371 46.2969 17.2422H47.2588C47.7145 17.2422 48.1117 17.2161 48.4502 17.1641C48.792 17.1087 49.0638 17.0371 49.2656 16.9492ZM52.3125 19H51.8096C51.3473 19 50.9925 18.9316 50.7451 18.7949C50.4977 18.6582 50.3252 18.4629 50.2275 18.209C49.889 18.4661 49.4984 18.6631 49.0557 18.7998C48.613 18.9333 48.1344 19 47.6201 19H43.3574V17.2422H44.7588L44.9102 17.0908V11.4023H46.2578V15.3818C46.6029 14.988 47.0179 14.6592 47.5029 14.3955C47.988 14.1318 48.486 14 48.9971 14C49.6416 14 50.1722 14.2148 50.5889 14.6445C51.0088 15.071 51.2188 15.6292 51.2188 16.3193C51.2188 16.5049 51.1992 16.6758 51.1602 16.832C51.1211 16.9883 51.0934 17.0811 51.0771 17.1104C51.1488 17.1527 51.222 17.1852 51.2969 17.208C51.375 17.2308 51.4759 17.2422 51.5996 17.2422H52.3125V19ZM56.3139 19H55.8109C55.4659 19 55.1631 18.9268 54.9027 18.7803C54.6423 18.6338 54.4584 18.4678 54.351 18.2822C54.2143 18.5036 54.0206 18.6794 53.7699 18.8096C53.5225 18.9365 53.2328 19 52.9008 19H52.0805V17.2422H52.6811C52.9708 17.2422 53.2084 17.1429 53.3939 16.9443C53.5795 16.7425 53.6723 16.4544 53.6723 16.0801V11.4121H55.0346V16.0801C55.0346 16.4284 55.1225 16.71 55.2982 16.9248C55.474 17.1364 55.7182 17.2422 56.0307 17.2422H56.3139V19ZM59.0408 16.0801C59.0408 16.9753 58.8439 17.6865 58.45 18.2139C58.0594 18.738 57.5418 19 56.8973 19H56.077V17.2422H56.6775C56.9803 17.2422 57.2228 17.1396 57.4051 16.9346C57.5874 16.7295 57.6785 16.4447 57.6785 16.0801V14.6494H59.0408V16.0801ZM57.8934 20.4404H57.1707V19.7178H57.8934V20.4404ZM68.9967 16.251C68.9967 16.7327 68.899 17.1527 68.7037 17.5107C68.5117 17.8656 68.2577 18.1569 67.942 18.3848C67.623 18.6159 67.2633 18.7884 66.8629 18.9023C66.4625 19.013 66.0507 19.0684 65.6275 19.0684C65.1327 19.0684 64.7161 19.0521 64.3775 19.0195C64.0423 18.987 63.8518 18.9674 63.8063 18.9609V17.1885H63.8453C63.8876 17.195 64.0569 17.2161 64.3531 17.252C64.6526 17.2845 65.0807 17.3008 65.6373 17.3008C65.6796 17.3008 65.7171 17.2992 65.7496 17.2959C65.7854 17.2926 65.8082 17.291 65.818 17.291L63.5084 11.7783H64.9977L67.0875 17.0615C67.221 16.9997 67.3447 16.8955 67.4586 16.749C67.5758 16.6025 67.6344 16.417 67.6344 16.1924V11.4121H68.9967V16.251ZM73.3008 19H72.8223C72.1647 19 71.6439 18.7331 71.2598 18.1992C70.8757 17.6621 70.6836 16.9557 70.6836 16.0801V11.4121H72.041V16.0801C72.041 16.2819 72.0687 16.4561 72.124 16.6025C72.1794 16.7458 72.251 16.8646 72.3389 16.959C72.43 17.0501 72.5342 17.1201 72.6514 17.1689C72.7686 17.2178 72.8988 17.2422 73.042 17.2422H73.3008V19ZM72.6709 10.5479C72.609 10.5967 72.5146 10.6536 72.3877 10.7188C72.264 10.7806 72.1191 10.8115 71.9531 10.8115C71.8262 10.8115 71.6374 10.7611 71.3867 10.6602C71.1393 10.5592 70.9538 10.5088 70.8301 10.5088C70.7227 10.5088 70.5941 10.5495 70.4443 10.6309C70.2946 10.7122 70.1839 10.7757 70.1123 10.8213V10.3281C70.1676 10.2826 70.2686 10.2256 70.415 10.1572C70.5648 10.0856 70.7031 10.0498 70.8301 10.0498C70.944 10.0498 71.1279 10.1003 71.3818 10.2012C71.639 10.2988 71.8294 10.3477 71.9531 10.3477C72.0931 10.3477 72.2363 10.3102 72.3828 10.2354C72.5326 10.1605 72.6286 10.1051 72.6709 10.0693V10.5479ZM76.0229 16.0801C76.0229 16.9753 75.8259 17.6865 75.432 18.2139C75.0414 18.738 74.5238 19 73.8793 19H73.059V17.2422H73.6596C73.9623 17.2422 74.2048 17.1396 74.3871 16.9346C74.5694 16.7295 74.6605 16.4447 74.6605 16.0801V14.6494H76.0229V16.0801ZM75.4223 13.458H74.6996V12.7354H75.4223V13.458Z" fill="white"/>
<path d="M151.408 19H150.93C150.272 19 149.751 18.7331 149.367 18.1992C148.983 17.6621 148.791 16.9557 148.791 16.0801V11.4121H150.148V16.0801C150.148 16.2819 150.176 16.4561 150.231 16.6025C150.287 16.7458 150.358 16.8646 150.446 16.959C150.537 17.0501 150.642 17.1201 150.759 17.1689C150.876 17.2178 151.006 17.2422 151.149 17.2422H151.408V19ZM155.839 17.6816C155.283 18.0137 154.708 18.3164 154.116 18.5898C153.526 18.8633 153.02 19 152.597 19H151.166V17.2422H152.636C153.277 17.2422 153.836 17.1559 154.311 16.9834C154.786 16.8109 155.312 16.5667 155.888 16.251C155.524 16.085 155.082 15.9482 154.565 15.8408C154.051 15.7334 153.535 15.6797 153.017 15.6797H152.026V14.1709H153.066C153.655 14.1709 154.26 14.2751 154.882 14.4834C155.507 14.6917 156.253 15.0498 157.119 15.5576L158.52 14.8203V16.1484L156.806 17.1201C156.878 17.1624 156.951 17.1934 157.026 17.2129C157.101 17.2324 157.198 17.2422 157.319 17.2422H159.018V19H157.529C156.992 19 156.583 18.8975 156.303 18.6924C156.023 18.4873 155.869 18.1504 155.839 17.6816ZM156.03 12.9893H155.307V12.2666H156.03V12.9893ZM161.74 16.0801C161.74 16.9753 161.543 17.6865 161.149 18.2139C160.759 18.738 160.241 19 159.596 19H158.776V17.2422H159.377C159.679 17.2422 159.922 17.1396 160.104 16.9346C160.287 16.7295 160.378 16.4447 160.378 16.0801V14.6494H161.74V16.0801ZM160.163 13.458H159.44V12.7354H160.163V13.458ZM161.471 13.458H160.749V12.7354H161.471V13.458ZM166.674 17.54C166.674 18.139 166.557 18.6761 166.322 19.1514C166.088 19.6266 165.689 20.027 165.126 20.3525C164.687 20.6032 164.265 20.7855 163.862 20.8994C163.461 21.0133 163.049 21.0703 162.626 21.0703V19.2979C162.864 19.2979 163.136 19.2686 163.442 19.21C163.751 19.1546 164.045 19.07 164.325 18.9561C164.648 18.8226 164.889 18.6549 165.048 18.4531C165.208 18.248 165.287 17.9974 165.287 17.7012C165.287 17.3464 165.212 16.9704 165.063 16.5732C164.913 16.1729 164.778 15.8783 164.657 15.6895V15.6309H166.088C166.156 15.7155 166.27 15.9531 166.43 16.3438C166.593 16.7344 166.674 17.1331 166.674 17.54ZM176.737 16.1924H176.093C175.465 16.1924 174.911 16.2363 174.433 16.3242C173.957 16.4121 173.56 16.5374 173.241 16.7002C172.929 16.8597 172.696 17.0534 172.543 17.2812C172.39 17.5091 172.313 17.7581 172.313 18.0283C172.313 18.4092 172.475 18.7201 172.797 18.9609C173.122 19.2018 173.578 19.3223 174.164 19.3223C174.587 19.3223 175.002 19.2816 175.409 19.2002C175.819 19.1188 176.177 19.0049 176.483 18.8584H176.527V20.5479C176.221 20.7171 175.863 20.8457 175.453 20.9336C175.043 21.0247 174.617 21.0703 174.174 21.0703C173.275 21.0703 172.517 20.7904 171.898 20.2305C171.283 19.6738 170.976 18.943 170.976 18.0381C170.976 17.6702 171.06 17.3252 171.229 17.0029C171.402 16.6774 171.645 16.3861 171.957 16.1289C172.266 15.875 172.642 15.6667 173.085 15.5039C173.531 15.3411 174.027 15.237 174.574 15.1914C174.376 15.1296 173.975 15.0563 173.373 14.9717C172.771 14.8838 172.211 14.8398 171.693 14.8398H171.366V13.3311H171.776C172.512 13.3311 173.308 13.4694 174.164 13.7461C175.023 14.0228 175.787 14.4004 176.454 14.8789H176.737V16.1924ZM182.526 19H182.047C181.924 19 181.78 18.9805 181.618 18.9414C181.455 18.9023 181.331 18.8584 181.246 18.8096C181.064 19.2523 180.818 19.6185 180.509 19.9082C180.203 20.2012 179.848 20.4323 179.445 20.6016C179.035 20.7741 178.657 20.8945 178.312 20.9629C177.967 21.0345 177.676 21.0703 177.438 21.0703V19.2979C177.636 19.2979 177.899 19.2686 178.224 19.21C178.553 19.1546 178.857 19.07 179.137 18.9561C179.459 18.8226 179.7 18.6549 179.86 18.4531C180.019 18.248 180.099 17.9974 180.099 17.7012C180.099 17.4831 180.07 17.2585 180.011 17.0273C179.953 16.7962 179.887 16.5911 179.816 16.4121C179.734 16.2135 179.661 16.054 179.596 15.9336C179.534 15.8099 179.492 15.7285 179.469 15.6895V15.6309H180.9C180.968 15.7513 181.05 15.9157 181.144 16.124C181.242 16.3324 181.307 16.4951 181.339 16.6123C181.395 16.8011 181.497 16.9541 181.647 17.0713C181.797 17.1852 182 17.2422 182.257 17.2422H182.526V19ZM180.499 14.4492H179.777V13.7266H180.499V14.4492ZM189.218 19H189.208C188.915 19 188.645 18.917 188.397 18.751C188.153 18.585 187.919 18.362 187.694 18.082C187.525 18.3913 187.289 18.6354 186.986 18.8145C186.687 18.9902 186.346 19.0781 185.966 19.0781C185.679 19.0781 185.406 19.0293 185.145 18.9316C184.885 18.8307 184.652 18.6908 184.447 18.5117C184.252 18.6745 184.043 18.7965 183.822 18.8779C183.601 18.9593 183.329 19 183.007 19H182.284V17.2422H183.026C183.205 17.2422 183.342 17.1836 183.436 17.0664C183.534 16.946 183.594 16.7474 183.617 16.4707C183.65 15.8555 183.845 15.3542 184.203 14.9668C184.561 14.5762 185.025 14.3809 185.595 14.3809C186.08 14.3809 186.49 14.4883 186.825 14.7031C187.164 14.9147 187.453 15.237 187.694 15.6699C187.821 15.8978 187.951 16.1191 188.085 16.334C188.218 16.5456 188.337 16.7116 188.441 16.832C188.568 16.9753 188.695 17.0794 188.822 17.1445C188.949 17.2096 189.084 17.2422 189.227 17.2422H189.218V19ZM186.625 16.7197C186.625 16.4821 186.527 16.2803 186.332 16.1143C186.137 15.945 185.915 15.8604 185.668 15.8604C185.469 15.8604 185.303 15.9303 185.17 16.0703C185.04 16.207 184.974 16.373 184.974 16.5684C184.974 16.7702 185.064 16.9476 185.243 17.1006C185.425 17.2536 185.647 17.3301 185.907 17.3301C186.122 17.3301 186.294 17.2747 186.425 17.1641C186.558 17.0534 186.625 16.9053 186.625 16.7197ZM193.19 19H192.706C192.361 19 192.058 18.9268 191.798 18.7803C191.538 18.6338 191.354 18.4678 191.246 18.2822C191.11 18.5036 190.916 18.6794 190.665 18.8096C190.418 18.9365 190.128 19 189.796 19H188.976V17.2422H189.576C189.866 17.2422 190.104 17.1429 190.289 16.9443C190.475 16.7425 190.568 16.4544 190.568 16.0801V15.4795H191.93V16.0801C191.93 16.4284 192.018 16.71 192.194 16.9248C192.369 17.1364 192.613 17.2422 192.926 17.2422H193.19V19ZM190.802 14.2979H190.079V13.5752H190.802V14.2979ZM192.111 14.2979H191.388V13.5752H192.111V14.2979ZM198.563 12.7109L195.663 13.6582C195.49 13.7135 195.365 13.7705 195.287 13.8291C195.212 13.8844 195.174 13.9349 195.174 13.9805C195.174 14.0391 195.231 14.1139 195.345 14.2051C195.463 14.2962 195.606 14.3971 195.775 14.5078L197.025 15.3281C197.37 15.556 197.627 15.8001 197.796 16.0605C197.969 16.3177 198.055 16.6237 198.055 16.9785C198.055 17.584 197.862 18.0723 197.474 18.4434C197.09 18.8145 196.6 19 196.004 19H192.953V17.2422H196.044C196.268 17.2422 196.447 17.2031 196.581 17.125C196.717 17.0436 196.786 16.946 196.786 16.832C196.786 16.7376 196.732 16.6351 196.625 16.5244C196.52 16.4137 196.346 16.2754 196.102 16.1094L194.725 15.1816C194.318 14.9147 194.046 14.6885 193.91 14.5029C193.773 14.3174 193.705 14.1172 193.705 13.9023C193.705 13.6322 193.82 13.3783 194.051 13.1406C194.282 12.903 194.613 12.7061 195.043 12.5498L198.563 11.251V12.7109Z" fill="#8C8C8C"/>
<path d="M270.408 20H269.93C269.272 20 268.751 19.7331 268.367 19.1992C267.983 18.6621 267.791 17.9557 267.791 17.0801V12.4121H269.148V17.0801C269.148 17.2819 269.176 17.4561 269.231 17.6025C269.287 17.7458 269.358 17.8646 269.446 17.959C269.537 18.0501 269.642 18.1201 269.759 18.1689C269.876 18.2178 270.006 18.2422 270.149 18.2422H270.408V20ZM269.222 11.8066H267.581V11.3477H267.942C267.864 11.3053 267.799 11.237 267.747 11.1426C267.698 11.0482 267.674 10.9505 267.674 10.8496C267.674 10.6413 267.75 10.459 267.903 10.3027C268.056 10.1465 268.263 10.0684 268.523 10.0684C268.696 10.0684 268.823 10.0781 268.904 10.0977C268.989 10.1172 269.048 10.1335 269.08 10.1465V10.6396H269.051C269.005 10.6201 268.927 10.5973 268.816 10.5713C268.709 10.542 268.615 10.5273 268.533 10.5273C268.39 10.5273 268.283 10.5566 268.211 10.6152C268.139 10.6738 268.104 10.752 268.104 10.8496C268.104 10.9961 268.178 11.1165 268.328 11.2109C268.478 11.3021 268.655 11.3477 268.86 11.3477H269.222V11.8066ZM275.777 13.7109L272.876 14.6582C272.704 14.7135 272.579 14.7705 272.5 14.8291C272.426 14.8844 272.388 14.9349 272.388 14.9805C272.388 15.0391 272.445 15.1139 272.559 15.2051C272.676 15.2962 272.819 15.3971 272.989 15.5078L274.239 16.3281C274.584 16.556 274.841 16.8001 275.01 17.0605C275.183 17.3177 275.269 17.6237 275.269 17.9785C275.269 18.584 275.075 19.0723 274.688 19.4434C274.304 19.8145 273.814 20 273.218 20H270.166V18.2422H273.257C273.482 18.2422 273.661 18.2031 273.794 18.125C273.931 18.0436 273.999 17.946 273.999 17.832C273.999 17.7376 273.946 17.6351 273.838 17.5244C273.734 17.4137 273.56 17.2754 273.316 17.1094L271.939 16.1816C271.532 15.9147 271.26 15.6885 271.123 15.5029C270.987 15.3174 270.918 15.1172 270.918 14.9023C270.918 14.6322 271.034 14.3783 271.265 14.1406C271.496 13.903 271.827 13.7061 272.256 13.5498L275.777 12.251V13.7109ZM279.925 15.9863C280.27 16.2663 280.561 16.5706 280.799 16.8994C281.036 17.2249 281.155 17.5521 281.155 17.8809C281.155 18.5547 280.952 19.0771 280.545 19.4482C280.141 19.8161 279.597 20 278.914 20H276.565V18.2422H278.904C279.23 18.2422 279.461 18.2096 279.597 18.1445C279.734 18.0762 279.803 17.9785 279.803 17.8516C279.803 17.7148 279.749 17.5781 279.641 17.4414C279.537 17.3014 279.389 17.1598 279.197 17.0166C279.005 16.8701 278.782 16.722 278.528 16.5723C278.277 16.4225 277.98 16.2516 277.635 16.0596V14.4824H277.674C277.986 14.6712 278.359 14.904 278.792 15.1807C279.228 15.4541 279.606 15.7227 279.925 15.9863ZM291.565 20C291.22 20 290.919 19.93 290.662 19.79C290.405 19.6468 290.178 19.4401 289.983 19.1699C289.654 19.4759 289.265 19.7021 288.816 19.8486C288.37 19.9951 287.903 20.0684 287.415 20.0684C286.92 20.0684 286.503 20.0521 286.165 20.0195C285.829 19.987 285.639 19.9674 285.593 19.9609V18.1885H285.632C285.675 18.195 285.844 18.2161 286.14 18.252C286.44 18.2845 286.868 18.3008 287.424 18.3008C287.467 18.3008 287.504 18.2992 287.537 18.2959C287.573 18.2926 287.595 18.291 287.605 18.291L285.296 12.7783H286.785L288.875 18.0615C289.008 17.9997 289.132 17.8955 289.246 17.749C289.363 17.6025 289.421 17.417 289.421 17.1924V12.4121H290.784V17.0801C290.784 17.2819 290.811 17.4561 290.867 17.6025C290.922 17.7458 290.994 17.8646 291.082 17.959C291.176 18.0566 291.28 18.1283 291.394 18.1738C291.511 18.2194 291.642 18.2422 291.785 18.2422H292.044V20H291.565ZM297.705 17.9492C297.904 17.8613 298.053 17.762 298.154 17.6514C298.258 17.5407 298.311 17.4235 298.311 17.2998C298.311 17.085 298.234 16.9059 298.081 16.7627C297.928 16.6195 297.716 16.5479 297.446 16.5479C297.147 16.5479 296.862 16.6064 296.592 16.7236C296.322 16.8376 296.069 16.9792 295.835 17.1484C295.63 17.2982 295.436 17.4674 295.254 17.6562C295.072 17.8418 294.899 18.0371 294.736 18.2422H295.698C296.154 18.2422 296.551 18.2161 296.89 18.1641C297.231 18.1087 297.503 18.0371 297.705 17.9492ZM300.752 20H300.249C299.787 20 299.432 19.9316 299.185 19.7949C298.937 19.6582 298.765 19.4629 298.667 19.209C298.328 19.4661 297.938 19.6631 297.495 19.7998C297.052 19.9333 296.574 20 296.06 20H291.797V18.2422H293.198L293.35 18.0908V12.4023H294.697V16.3818C295.042 15.988 295.457 15.6592 295.942 15.3955C296.427 15.1318 296.925 15 297.437 15C298.081 15 298.612 15.2148 299.028 15.6445C299.448 16.071 299.658 16.6292 299.658 17.3193C299.658 17.5049 299.639 17.6758 299.6 17.832C299.561 17.9883 299.533 18.0811 299.517 18.1104C299.588 18.1527 299.661 18.1852 299.736 18.208C299.814 18.2308 299.915 18.2422 300.039 18.2422H300.752V20ZM304.753 20H304.25C303.905 20 303.603 19.9268 303.342 19.7803C303.082 19.6338 302.898 19.4678 302.79 19.2822C302.654 19.5036 302.46 19.6794 302.209 19.8096C301.962 19.9365 301.672 20 301.34 20H300.52V18.2422H301.121C301.41 18.2422 301.648 18.1429 301.833 17.9443C302.019 17.7425 302.112 17.4544 302.112 17.0801V12.4121H303.474V17.0801C303.474 17.4284 303.562 17.71 303.738 17.9248C303.913 18.1364 304.158 18.2422 304.47 18.2422H304.753V20ZM307.48 17.0801C307.48 17.9753 307.283 18.6865 306.889 19.2139C306.499 19.738 305.981 20 305.337 20H304.516V18.2422H305.117C305.42 18.2422 305.662 18.1396 305.845 17.9346C306.027 17.7295 306.118 17.4447 306.118 17.0801V15.6494H307.48V17.0801ZM306.333 21.4404H305.61V20.7178H306.333V21.4404Z" fill="#8C8C8C"/>
<path d="M332 0L344 14.5V0H332Z" fill="#DDF0FE" fill-opacity="0.4"/>
<path d="M344 30H332L344 15.5V30Z" fill="#DDF0FE" fill-opacity="0.4"/>
</svg>
