<svg width="36" height="40" viewBox="0 0 36 40" fill="none" xmlns="http://www.w3.org/2000/svg">
<path fill-rule="evenodd" clip-rule="evenodd" d="M35.5 8C35.5 3.85786 32.1421 0.5 28 0.5C23.8579 0.5 20.5 3.85786 20.5 8C20.5 8.87515 20.6499 9.71528 20.9254 10.4961L13.529 14.9324C12.158 13.4373 10.1884 12.5 8 12.5C3.85786 12.5 0.5 15.8579 0.5 20C0.5 24.1421 3.85786 27.5 8 27.5C10.1884 27.5 12.158 26.5627 13.529 25.0676L20.925 29.5049C20.6498 30.2854 20.5 31.1252 20.5 32C20.5 36.1421 23.8579 39.5 28 39.5C32.1421 39.5 35.5 36.1421 35.5 32C35.5 27.8579 32.1421 24.5 28 24.5C25.8116 24.5 23.842 25.4373 22.471 26.9324L15.075 22.4951C15.3502 21.7146 15.5 20.8748 15.5 20C15.5 19.1252 15.3502 18.2854 15.075 17.5049L22.4701 13.0666C23.8412 14.5623 25.8111 15.5 28 15.5C32.1421 15.5 35.5 12.1421 35.5 8ZM23.5 32C23.5 29.5147 25.5147 27.5 28 27.5C30.4853 27.5 32.5 29.5147 32.5 32C32.5 34.4853 30.4853 36.5 28 36.5C25.5147 36.5 23.5 34.4853 23.5 32ZM8 15.5C5.51472 15.5 3.5 17.5147 3.5 20C3.5 22.4853 5.51472 24.5 8 24.5C10.4853 24.5 12.5 22.4853 12.5 20C12.5 17.5147 10.4853 15.5 8 15.5ZM23.5 8C23.5 5.51472 25.5147 3.5 28 3.5C30.4853 3.5 32.5 5.51472 32.5 8C32.5 10.4853 30.4853 12.5 28 12.5C26.4466 12.5 25.077 11.7129 24.2698 10.5148C24.2406 10.4422 24.2053 10.371 24.1638 10.3017C24.123 10.2337 24.0776 10.1701 24.0261 10.1133C23.6903 9.48323 23.5 8.76384 23.5 8Z" fill="#010101"/>
</svg>
