<svg width="42" height="42" viewBox="0 0 42 42" fill="none" xmlns="http://www.w3.org/2000/svg">
<path fill-rule="evenodd" clip-rule="evenodd" d="M22.4931 1.85554C22.4204 1.09489 21.7797 0.5 21 0.5C20.1716 0.5 19.5 1.17157 19.5 2L19.5005 7.58233C13.2427 8.27385 8.27385 13.2427 7.58233 19.5005L2 19.5L1.85554 19.5069C1.09489 19.5796 0.5 20.2203 0.5 21C0.5 21.8284 1.17157 22.5 2 22.5L7.58244 22.5005C8.27438 28.7578 13.243 33.7262 19.5005 34.4177L19.5 40L19.5069 40.1445C19.5796 40.9051 20.2203 41.5 21 41.5C21.8284 41.5 22.5 40.8284 22.5 40L22.5005 34.4176C28.7575 33.7257 33.7257 28.7575 34.4176 22.5005L40 22.5L40.1445 22.4931C40.9051 22.4204 41.5 21.7797 41.5 21C41.5 20.1716 40.8284 19.5 40 19.5L34.4177 19.5005C33.7262 13.243 28.7578 8.27438 22.5005 7.58244L22.5 2L22.4931 1.85554ZM22.5 14L22.5011 10.6065C27.0991 11.2647 30.7359 14.9018 31.3936 19.4999L28 19.5L27.8555 19.5069C27.0949 19.5796 26.5 20.2203 26.5 21C26.5 21.8284 27.1716 22.5 28 22.5L31.3935 22.5011C30.7354 27.0988 27.0988 30.7354 22.5011 31.3935L22.5 28L22.4931 27.8555C22.4204 27.0949 21.7797 26.5 21 26.5C20.1716 26.5 19.5 27.1716 19.5 28L19.4999 31.3936C14.9018 30.7359 11.2647 27.0991 10.6065 22.5011L14 22.5L14.1445 22.4931C14.9051 22.4204 15.5 21.7797 15.5 21C15.5 20.1716 14.8284 19.5 14 19.5L10.6064 19.4999C11.2642 14.9014 14.9014 11.2642 19.4999 10.6064L19.5 14L19.5069 14.1445C19.5796 14.9051 20.2203 15.5 21 15.5C21.8284 15.5 22.5 14.8284 22.5 14Z" fill="#010101"/>
</svg>
