<svg width="28" height="38" viewBox="0 0 28 38" fill="none" xmlns="http://www.w3.org/2000/svg">
<path fill-rule="evenodd" clip-rule="evenodd" d="M22 0.5C22.7797 0.5 23.4204 1.09489 23.4931 1.85554L23.5 2V8C23.5 9.0789 23.0118 10.0438 22.2443 10.6858C22.3817 11.0231 22.4677 11.3878 22.4925 11.7692L22.5 12V13C22.5 13.8828 22.1732 14.6892 21.6339 15.3049L25.2106 28.715C26.4863 29.1853 27.4126 30.3774 27.4941 31.7959L27.5 32V36C27.5 36.7797 26.9051 37.4204 26.1445 37.4931L26 37.5H2C1.2203 37.5 0.579551 36.9051 0.506867 36.1445L0.5 36V32C0.5 30.4926 1.45299 29.2077 2.78936 28.715L6.36608 15.3049C5.87176 14.7405 5.55595 14.0159 5.50674 13.219L5.5 13V12C5.5 11.5347 5.5908 11.0906 5.75565 10.6845C5.03934 10.0865 4.56633 9.20611 4.50645 8.2142L4.5 8V2C4.5 1.2203 5.09489 0.579551 5.85554 0.506867L6 0.5H22ZM24 31.5H4C3.75454 31.5 3.55039 31.6769 3.50806 31.9101L3.5 32V34.5H24.5V32C24.5 31.7852 24.3646 31.6021 24.1745 31.5313L24.0899 31.5081L24 31.5ZM9.152 16.5H18.847L22.047 28.5H5.952L9.152 16.5ZM19 11.5H9C8.75454 11.5 8.55039 11.6769 8.50806 11.9101L8.5 12V13C8.5 13.2455 8.67688 13.4496 8.91012 13.4919L9 13.5H19C19.2455 13.5 19.4496 13.3231 19.4919 13.0899L19.5 13V12C19.5 11.7545 19.3231 11.5504 19.0899 11.5081L19 11.5ZM7.5 3.5H9.5V5L9.50687 5.14446C9.57955 5.90511 10.2203 6.5 11 6.5C11.8284 6.5 12.5 5.82843 12.5 5V3.5H15.5V5L15.5069 5.14446C15.5796 5.90511 16.2203 6.5 17 6.5C17.8284 6.5 18.5 5.82843 18.5 5V3.5H20.5V8L20.4919 8.08988C20.4496 8.32312 20.2455 8.5 20 8.5H8L7.91012 8.49194L7.82553 8.46872C7.63542 8.39793 7.5 8.21478 7.5 8V3.5Z" fill="#010101"/>
</svg>
