<svg width="38" height="34" viewBox="0 0 38 34" fill="none" xmlns="http://www.w3.org/2000/svg">
<path fill-rule="evenodd" clip-rule="evenodd" d="M37.4931 1.85554C37.4205 1.09489 36.7797 0.5 36 0.5H2.00001L1.85555 0.506867C1.0949 0.579551 0.500007 1.2203 0.500007 2L0.498779 8.0814C0.514733 8.40987 0.640955 8.74083 0.900817 9.02068L13.499 22.588L13.5 32L13.5054 32.1292C13.5871 33.1058 14.5869 33.7569 15.5267 33.4045L23.5267 30.4045L23.6582 30.3479C24.1695 30.0985 24.5 29.5772 24.5 29L24.499 22.589L37.0992 9.02068L37.2058 8.89339C37.4343 8.58938 37.5234 8.23913 37.4991 7.90202L37.5 2L37.4931 1.85554ZM16.499 23.5H21.499L21.5 27.96L16.5 29.835L16.499 23.5ZM32.559 9.5H5.44001L15.652 20.499H22.345L32.559 9.5ZM3.50001 3.5H34.5V6.5H3.50001V3.5Z" fill="#010101"/>
</svg>
