<svg width="28" height="38" viewBox="0 0 28 38" fill="none" xmlns="http://www.w3.org/2000/svg">
<path fill-rule="evenodd" clip-rule="evenodd" d="M16 0.5C18.9635 0.5 21.3795 2.84378 21.4956 5.77879L21.5 6V10C21.5 11.5213 21.047 12.9369 20.2686 14.1191L20.4429 14.1706L21.3164 14.4405C24.913 15.552 27.3856 19.0767 27.4961 23.096L27.5 23.3772V36C27.5 36.7797 26.9051 37.4204 26.1445 37.4931L26 37.5H2C1.2203 37.5 0.579551 36.9051 0.506867 36.1445L0.5 36V23.3772C0.5 19.3359 2.89082 15.7446 6.43452 14.5219L6.68361 14.4405L7.55711 14.1706L7.7314 14.1191C7.00857 13.0213 6.56637 11.7224 6.50689 10.3243L6.5 10V6C6.5 3.03652 8.84378 0.620461 11.7788 0.504367L12 0.5H16ZM17.6518 16.5524C16.5711 17.156 15.3257 17.5 14 17.5C12.6767 17.5 11.4335 17.1573 10.3542 16.5558L10.7578 16.4773C10.1731 16.5802 9.59212 16.7109 9.01658 16.8693L8.44289 17.0368L7.56938 17.3068C5.26229 18.0197 3.60307 20.3676 3.50463 23.1182L3.5 23.3772V34.5L6.5 34.499V25C6.5 24.1716 7.17157 23.5 8 23.5C8.7797 23.5 9.42045 24.0949 9.49313 24.8555L9.5 25V34.499H18.5V25C18.5 24.1716 19.1716 23.5 20 23.5C20.7797 23.5 21.4204 24.0949 21.4931 24.8555L21.5 25V34.499L24.5 34.5V23.3772C24.5 20.6026 22.9107 18.1923 20.645 17.3783L20.4306 17.3068L19.5571 17.0368C19.0974 16.8947 18.6338 16.7704 18.1672 16.6641L17.6518 16.5524ZM12 3.5H16L16.1644 3.50532C17.4685 3.58996 18.5 4.67452 18.5 6V10L18.4951 10.2118C18.3845 12.5988 16.4143 14.5 14 14.5C11.5147 14.5 9.5 12.4853 9.5 10V6L9.50532 5.83562C9.58996 4.53154 10.6745 3.5 12 3.5Z" fill="#010101"/>
</svg>
