<svg width="33" height="33" viewBox="0 0 33 33" fill="none" xmlns="http://www.w3.org/2000/svg">
<path fill-rule="evenodd" clip-rule="evenodd" d="M14 0.5C21.4558 0.5 27.5 6.54416 27.5 14C27.5 17.1877 26.3952 20.1174 24.5475 22.4269L32.0312 29.9099C32.617 30.4957 32.617 31.4454 32.0312 32.0312C31.482 32.5804 30.613 32.6147 30.0238 32.1342L29.9099 32.0312L22.4269 24.5475C20.1174 26.3952 17.1877 27.5 14 27.5C6.54416 27.5 0.5 21.4558 0.5 14C0.5 6.54416 6.54416 0.5 14 0.5ZM14 3.5C8.20101 3.5 3.5 8.20101 3.5 14C3.5 19.799 8.20101 24.5 14 24.5C19.799 24.5 24.5 19.799 24.5 14C24.5 8.20101 19.799 3.5 14 3.5ZM8.5 14C8.5 13.1716 7.82843 12.5 7 12.5C6.17157 12.5 5.5 13.1716 5.5 14C5.5 18.6944 9.30558 22.5 14 22.5C14.8284 22.5 15.5 21.8284 15.5 21C15.5 20.1716 14.8284 19.5 14 19.5C10.9624 19.5 8.5 17.0376 8.5 14Z" fill="#010101"/>
</svg>
