<svg width="18" height="18" viewBox="0 0 18 18" fill="none" xmlns="http://www.w3.org/2000/svg">
<path fill-rule="evenodd" clip-rule="evenodd" d="M9 0C13.9706 0 18 4.02944 18 9C18 13.9706 13.9706 18 9 18C4.02944 18 0 13.9706 0 9C0 4.02944 4.02944 0 9 0ZM9 2C5.13401 2 2 5.13401 2 9C2 12.866 5.13401 16 9 16C12.866 16 16 12.866 16 9C16 5.13401 12.866 2 9 2ZM6.5 12C6.5 12.5523 6.94772 13 7.5 13H8L8.00673 13.1166C8.06449 13.614 8.48716 14 9 14C9.55229 14 10 13.5523 10 13L10.0004 12.9499C11.1413 12.7181 12 11.7093 12 10.5C12 9.11929 10.8807 8 9.5 8H8.5L8.41012 7.99194C8.17688 7.94961 8 7.74546 8 7.5C8 7.22386 8.22386 7 8.5 7H10.5L10.6166 6.99327C11.114 6.93551 11.5 6.51284 11.5 6C11.5 5.44772 11.0523 5 10.5 5H10L9.99327 4.88338C9.93551 4.38604 9.51284 4 9 4C8.44771 4 8 4.44772 8 5L8.00057 5.04989C6.85917 5.28131 6 6.29032 6 7.5C6 8.88071 7.11929 10 8.5 10H9.5L9.58988 10.0081C9.82312 10.0504 10 10.2545 10 10.5C10 10.7761 9.77614 11 9.5 11H7.5L7.38338 11.0067C6.88604 11.0645 6.5 11.4872 6.5 12Z" fill="#009900"/>
</svg>
