<svg width="10" height="15" viewBox="0 0 10 15" fill="none" xmlns="http://www.w3.org/2000/svg">
<path fill-rule="evenodd" clip-rule="evenodd" d="M2 12C2.82843 12 3.5 12.6716 3.5 13.5C3.5 14.3284 2.82843 15 2 15C1.17157 15 0.5 14.3284 0.5 13.5C0.5 12.6716 1.17157 12 2 12ZM8 12C8.82843 12 9.5 12.6716 9.5 13.5C9.5 14.3284 8.82843 15 8 15C7.17157 15 6.5 14.3284 6.5 13.5C6.5 12.6716 7.17157 12 8 12ZM2 0C2.55228 0 3 0.447715 3 1V9C3 9.55229 2.55228 10 2 10C1.44772 10 1 9.55229 1 9V1C1 0.447715 1.44772 0 2 0ZM8 0C8.55229 0 9 0.447715 9 1V9C9 9.55229 8.55229 10 8 10C7.44772 10 7 9.55229 7 9V1C7 0.447715 7.44772 0 8 0Z" fill="#FF0000"/>
</svg>
