<svg width="188" height="48" viewBox="0 0 188 48" fill="none" xmlns="http://www.w3.org/2000/svg">
<path fill-rule="evenodd" clip-rule="evenodd" d="M17.0705 28.726C17.0705 32.8685 13.6443 36 9.54767 36C5.40142 36 2 32.9178 2 28.726V19.9233C2 18.6904 2.79449 18 3.86209 18C4.92969 18 5.72418 18.6904 5.72418 19.9233V28.5288C5.72418 30.7973 7.18902 32.5973 9.54767 32.5973C11.807 32.5973 13.3463 30.6986 13.3463 28.5288V19.9233C13.3463 18.6904 14.1408 18 15.2084 18C16.276 18 17.0705 18.6904 17.0705 19.9233V28.726ZM30.997 34.0767C30.9722 34.8904 30.3018 35.7041 29.2094 35.7041H23.0025C21.7859 35.7041 21.0659 34.9151 21.0659 33.6822V19.9233C21.0659 18.6904 21.8604 18 22.928 18C23.9956 18 24.7901 18.6904 24.7901 19.9233V32.3014H29.2094C30.4756 32.3014 31.0467 33.2384 30.997 34.0767Z" fill="#010101"/>
<path fill-rule="evenodd" clip-rule="evenodd" d="M52.7603 41.9962C57.8819 41.853 61.9898 37.6562 61.9898 32.5V20.5L61.9849 20.2882C61.8743 17.9012 59.9041 16 57.4898 16C56.7765 16 56.102 16.166 55.5025 16.4612C54.7589 15.0005 53.2412 14 51.4898 14C51.3043 14 51.1206 14.0113 50.9393 14.0335L51.6493 7.6473L51.6685 7.41657L51.6749 7.18513C51.6749 4.87375 49.8012 3 47.4898 3C45.0176 3 42.9407 4.8589 42.6677 7.316L42.447 9.297L42.3301 8.30419L42.2989 8.08276C41.9149 5.73936 39.8863 4 37.4898 4C37.3762 4 37.2626 4.00454 37.1493 4.0136C34.7988 4.20164 33.0458 6.25955 33.2338 8.61006L34.989 30.557L34.9898 32.5L34.9936 32.7705C35.1368 37.8921 39.3336 42 44.4898 42H52.4898L52.7603 41.9962ZM40.4898 24H51.4898L51.6343 24.0069C52.3949 24.0796 52.9898 24.7203 52.9898 25.5C52.9898 26.3284 52.3182 27 51.4898 27H43.4898L43.3594 27.0053C42.2052 27.1003 41.5747 28.4465 42.2898 29.4L45.2898 33.4L45.382 33.5114C45.8965 34.0764 46.7661 34.1678 47.3898 33.7L47.5013 33.6078C48.0662 33.0933 48.1576 32.2238 47.6898 31.6L46.4898 30H51.4898L51.7016 29.9951C52.771 29.9455 53.7429 29.5227 54.4893 28.8537C55.2855 29.5665 56.337 30 57.4898 30C58.0158 30 58.5207 29.9098 58.9899 29.7439L58.9898 32.5L58.9857 32.7331C58.863 36.215 56.0016 39 52.4898 39H44.4898L44.2567 38.9959C40.7748 38.8731 37.9898 36.0118 37.9898 32.5V26.5L37.9951 26.3356C38.0798 25.0315 39.1643 24 40.4898 24ZM57.4898 19C56.7101 19 56.0694 19.5949 55.9967 20.3555L55.9898 20.5V25.5C55.9898 26.3284 56.6614 27 57.4898 27C58.2695 27 58.9103 26.4051 58.9829 25.6445L58.9898 25.5V20.5C58.9898 19.6716 58.3182 19 57.4898 19ZM37.3886 7.00404L37.4898 7C38.4399 7 39.2396 7.71113 39.3506 8.65471L40.803 21H40.4898L40.2686 21.0044C39.1711 21.0478 38.1562 21.4128 37.3157 22.0078L36.2243 8.37083L36.2204 8.24091C36.2342 7.59757 36.7333 7.05646 37.3886 7.00404ZM52.9898 18.5C52.9898 17.6716 52.3182 17 51.4898 17C51.1521 17 50.8345 17.1106 50.5754 17.3107L50.165 21H51.4898C52.0158 21 52.5207 21.0902 52.9899 21.2561L52.9898 18.5ZM45.673 7.49319C45.8421 6.63285 46.5986 6 47.4898 6C48.1443 6 48.6749 6.5306 48.6749 7.18513C48.6749 7.22885 48.6725 7.27255 48.6677 7.316L47.146 21H44.165L45.6493 7.6473L45.673 7.49319Z" fill="#FF5A00"/>
<path fill-rule="evenodd" clip-rule="evenodd" d="M164 30.3261C164 33.8234 161.101 36 157.712 36C155.82 36 151.742 35.5598 151.742 33.2609C151.742 32.3071 152.381 31.5245 153.388 31.5245C153.919 31.5245 154.496 31.7259 155.12 31.9436C155.854 32.1997 156.652 32.4783 157.515 32.4783C159.136 32.4783 160.021 31.5734 160.021 30.375C160.021 29.1736 158.599 28.7733 156.939 28.306C154.612 27.6506 151.816 26.8636 151.816 23.5516C151.816 20.1277 154.641 18 157.908 18C159.284 18 162.723 18.5136 162.723 20.4457C162.723 21.3995 162.084 22.2554 161.077 22.2554C160.621 22.2554 160.211 22.1052 159.761 21.9407C159.217 21.7416 158.617 21.5217 157.81 21.5217C156.754 21.5217 155.796 22.0842 155.796 23.1114C155.796 24.0868 157.026 24.4425 158.533 24.8784C160.919 25.5684 164 26.4594 164 30.3261ZM96.1857 35.8533C97.2419 35.8533 98.028 35.1685 98.028 33.9457V20.0543C98.028 18.8315 97.2419 18.1467 96.1857 18.1467C95.1294 18.1467 94.3434 18.8315 94.3434 20.0543V33.9457C94.3434 35.1685 95.1294 35.8533 96.1857 35.8533ZM67.8423 35.8533C68.8986 35.8533 69.6846 35.1685 69.6846 33.9457V28.6141H73.4921C74.6712 28.6141 75.2607 27.7582 75.2607 26.9022C75.2607 26.0707 74.6712 25.2391 73.4921 25.2391H69.6846V21.6685H74.2045C75.3098 21.6685 75.8503 20.8125 75.8503 19.981C75.8503 19.125 75.2853 18.2935 74.2045 18.2935H67.916C66.6878 18.2935 66 19.1984 66 20.2011V33.9457C66 35.1685 66.7861 35.8533 67.8423 35.8533ZM89.4078 35.8533C90.4887 35.8533 91.2502 34.9239 91.2502 33.9701C91.2502 33.6277 91.1028 33.2609 90.7589 32.894L86.5829 28.4429C89.0885 28.0516 91.1273 26.5109 91.1273 23.8207C91.1273 19.981 88.7937 18.2935 85.0108 18.2935H80.6875C79.4593 18.2935 78.7961 19.0272 78.7961 20.2011V33.9457C78.7961 35.1685 79.5821 35.8533 80.6384 35.8533C81.6947 35.8533 82.4807 35.1685 82.4807 33.9457V28.6386H82.5298L87.9831 35.2174C88.3761 35.6821 88.9657 35.8533 89.4078 35.8533ZM82.4807 25.9973H85.0108C86.3619 25.9973 87.2953 25.1902 87.2953 23.8207C87.2953 22.4266 86.3619 21.6685 85.0108 21.6685H82.4807V25.9973ZM112.101 34.019C112.101 34.8505 111.512 35.7065 110.357 35.7065H104.02C102.939 35.7065 102.128 34.9728 102.128 33.8723V20.4212C102.128 19.1984 102.742 18.2935 104.044 18.2935H110.136C111.315 18.2935 111.88 19.125 111.88 19.981C111.88 20.8125 111.291 21.6685 110.136 21.6685H105.813V25.2391H109.842C111.045 25.2391 111.635 26.0707 111.635 26.9266C111.635 27.7582 111.021 28.6141 109.842 28.6141H105.813V32.3315H110.357C111.536 32.3315 112.101 33.163 112.101 34.019ZM128.312 35.8533C129.368 35.8533 130.154 35.1685 130.154 33.9457V20.0543C130.154 18.8315 129.368 18.1467 128.312 18.1467C127.256 18.1467 126.47 18.8315 126.47 20.0543V29.2989H126.42L118.634 18.9538C118.314 18.5136 117.553 18.1467 117.086 18.1467C116.03 18.1467 115.244 18.8315 115.244 20.0543V33.9457C115.244 35.1685 116.03 35.8533 117.086 35.8533C118.142 35.8533 118.928 35.1685 118.928 33.9457V24.8234H118.978L126.764 35.0462C127.108 35.4864 127.845 35.8533 128.312 35.8533ZM148.723 27.2446C148.723 32.3804 145.382 35.7065 140.322 35.7065H136.048C135.237 35.7065 134.107 35.2663 134.107 33.8723V20.1766C134.107 19.0516 134.893 18.2935 135.999 18.2935H140.076C145.579 18.2935 148.723 21.8152 148.723 27.2446ZM140.273 32.3315H137.792V21.6685H140.027C143.417 21.6685 144.891 23.9429 144.891 27.0734C144.891 30.0082 143.442 32.3315 140.273 32.3315Z" fill="#010101"/>
<path fill-rule="evenodd" clip-rule="evenodd" d="M184.785 17.75C185.595 17.75 186.182 18.3268 186.244 19.1595L186.25 19.3091V25.5927C186.25 26.5052 185.643 27.1518 184.785 27.1518C184.298 27.1518 183.907 26.9743 183.667 26.6607L183.592 26.5511L183.574 26.517L183.516 26.5721C183.086 26.9501 182.525 27.1658 181.805 27.2297L181.559 27.2454L181.325 27.25C179.287 27.25 177.849 25.9917 177.755 24.0308L177.75 23.8255V19.3091C177.75 18.3966 178.357 17.75 179.215 17.75C180.025 17.75 180.612 18.3268 180.675 19.1595L180.68 19.3091V23.4164C180.68 24.3015 181.2 24.7864 182.017 24.7864C182.78 24.7864 183.261 24.3067 183.315 23.5595L183.32 23.4164V19.3091C183.32 18.3966 183.927 17.75 184.785 17.75ZM167.316 24.1973C168.179 24.1973 168.883 24.8802 168.883 25.7236C168.883 26.5671 168.179 27.25 167.316 27.25C166.454 27.25 165.75 26.5671 165.75 25.7236C165.75 24.8802 166.454 24.1973 167.316 24.1973ZM176.891 19.26C176.891 18.3412 176.264 17.75 175.46 17.75L175.276 17.7561L175.099 17.7745C174.64 17.84 174.262 18.0385 173.921 18.3853L173.87 18.44L173.833 18.3564L173.767 18.2498C173.53 17.9122 173.099 17.75 172.54 17.75C171.719 17.75 171.041 18.3135 171.041 19.1782V25.5927L171.047 25.7423C171.109 26.575 171.696 27.1518 172.506 27.1518C173.364 27.1518 173.972 26.5052 173.972 25.5927V21.9764L173.975 21.8636C174.01 21.3203 174.323 21.07 175.237 20.6586L175.381 20.5949L175.58 20.516L176.016 20.3515C176.631 20.1004 176.891 19.8291 176.891 19.26Z" fill="#FF5A00"/>
</svg>
