<svg width="12" height="14" viewBox="0 0 12 14" fill="none" xmlns="http://www.w3.org/2000/svg">
<path fill-rule="evenodd" clip-rule="evenodd" d="M1 0H11C11.5523 0 12 0.447715 12 1V6.90098C12 10.2389 9.71187 13.1387 6.45563 13.9236L6.21527 13.9766C6.0799 14.0064 5.93981 14.0078 5.80388 13.9806C2.42917 13.3056 0 10.3425 0 6.90098V1C0 0.447715 0.447715 0 1 0ZM10 6.90098V2H2V6.90098C2 9.31141 3.6482 11.3972 5.96941 11.9689L6 11.975C8.27012 11.429 9.89255 9.4478 9.99487 7.13348L10 6.90098Z" fill="#FF0000"/>
</svg>
