<svg width="14" height="14" viewBox="0 0 14 14" fill="none" xmlns="http://www.w3.org/2000/svg">
<path d="M7.4398 0.0998472L7.35306 0.0623071L7.26851 0.0348185L7.15931 0.0109293L7.06019 0H6.94004L6.83902 0.0110991L6.73116 0.0347632L6.61985 0.0730071L6.56025 0.0998472L6.45998 0.156428L6.35984 0.229985L0.359841 5.22998C-0.0644362 5.58355 -0.12176 6.21411 0.231804 6.63839C0.558171 7.03003 1.12056 7.109 1.53886 6.84074L1.64021 6.76643L6 3.13521L6.00003 12.9982C6.00003 13.5505 6.44774 13.9982 7.00003 13.9982C7.51286 13.9982 7.93553 13.6122 7.9933 13.1148L8.00002 12.9982L8 3.13521L12.3598 6.76643C12.7841 7.11999 13.4147 7.06267 13.7682 6.63839C14.0946 6.24675 14.0709 5.67934 13.7316 5.31627L13.6402 5.22998L7.63276 0.223795C7.57369 0.175477 7.50899 0.133783 7.4398 0.0998472Z" fill="#FF0000"/>
</svg>
