<svg width="12" height="12" viewBox="0 0 12 12" fill="none" xmlns="http://www.w3.org/2000/svg">
<path fill-rule="evenodd" clip-rule="evenodd" d="M1.99327 0.883379C1.93551 0.38604 1.51284 0 1 0C0.447715 0 0 0.447715 0 1V11L0.00672773 11.1166C0.0644928 11.614 0.487164 12 1 12C1.55228 12 2 11.5523 2 11V1L1.99327 0.883379ZM6 0C6.51284 0 6.93551 0.38604 6.99327 0.883379L7 1V11C7 11.5523 6.55228 12 6 12C5.48716 12 5.06449 11.614 5.00673 11.1166L5 11V1C5 0.447715 5.44772 0 6 0ZM11 0C11.5128 0 11.9355 0.38604 11.9933 0.883379L12 1V11C12 11.5523 11.5523 12 11 12C10.4872 12 10.0645 11.614 10.0067 11.1166L10 11V1C10 0.447715 10.4477 0 11 0Z" fill="#FF0000"/>
</svg>
