<svg width="58" height="42" viewBox="0 0 58 42" fill="none" xmlns="http://www.w3.org/2000/svg">
<path fill-rule="evenodd" clip-rule="evenodd" d="M51 0.5C52.8686 0.5 54.3951 1.96428 54.4948 3.80796L54.5 4V32.5H56C56.7797 32.5 57.4204 33.0949 57.4931 33.8555L57.5 34V38C57.5 39.8686 56.0357 41.3951 54.192 41.4948L54 41.5H4C2.13144 41.5 0.604874 40.0357 0.505179 38.192L0.5 38V34C0.5 33.2203 1.09489 32.5796 1.85554 32.5069L2 32.5H3.5V4C3.5 2.13144 4.96428 0.604874 6.80796 0.505179L7 0.5H51ZM54.5 38V35.5H3.5V38C3.5 38.2148 3.63542 38.3979 3.82553 38.4687L3.91012 38.4919L4 38.5H54C54.2455 38.5 54.4496 38.3231 54.4919 38.0899L54.5 38ZM7 3.5H27.5V4L27.5069 4.14446C27.5796 4.90511 28.2203 5.5 29 5.5C29.8284 5.5 30.5 4.82843 30.5 4V3.5H51L51.0899 3.50806L51.1745 3.53128C51.3646 3.60207 51.5 3.78522 51.5 4V32.5H6.5V4L6.50806 3.91012C6.55039 3.67688 6.75454 3.5 7 3.5ZM41 10.5C41.7797 10.5 42.4204 11.0949 42.4931 11.8555L42.5 12V17C42.5 17.8284 41.8284 18.5 41 18.5C40.2203 18.5 39.5796 17.9051 39.5069 17.1445L39.5 17V13.5H18.5V24.5H32C32.7797 24.5 33.4204 25.0949 33.4931 25.8555L33.5 26C33.5 26.7797 32.9051 27.4204 32.1445 27.4931L32 27.5H17C16.2203 27.5 15.5796 26.9051 15.5069 26.1445L15.5 26V12C15.5 11.2203 16.0949 10.5796 16.8555 10.5069L17 10.5H41ZM36.9751 20.5011L40 20.5C41.2903 20.5 41.9587 22.0062 41.1527 22.9606L41.0607 23.0607L40.621 23.5L42.0607 24.9393C42.6464 25.5251 42.6464 26.4749 42.0607 27.0607C41.5115 27.6098 40.6424 27.6442 40.0533 27.1636L39.9393 27.0607L38.5 25.621L38.0607 26.0607C37.1483 26.973 35.6106 26.3806 35.5057 25.1358L35.5 25V22C35.5 21.7535 35.5595 21.5208 35.6649 21.3156L35.7368 21.1907L35.7708 21.1398L35.8569 21.0286L35.9393 20.9393C35.9808 20.8979 36.0241 20.8594 36.0689 20.8238L36.1913 20.7363L36.3152 20.665L36.4395 20.6082C36.5149 20.5779 36.5929 20.5535 36.6734 20.5356L36.7842 20.5155C36.8547 20.5053 36.9267 20.5 37 20.5L36.9751 20.5011Z" fill="#010101"/>
</svg>
