<svg width="54" height="54" viewBox="0 0 54 54" fill="none" xmlns="http://www.w3.org/2000/svg">
<path fill-rule="evenodd" clip-rule="evenodd" d="M52 0.5C52.7797 0.5 53.4204 1.09489 53.4931 1.85554L53.5 2V52C53.5 52.7797 52.9051 53.4204 52.1445 53.4931L52 53.5H14C13.2203 53.5 12.5796 52.9051 12.5069 52.1445L12.5 52V45.5H2C1.2203 45.5 0.579551 44.9051 0.506867 44.1445L0.5 44V40C0.5 38.4926 1.45299 37.2077 2.78936 36.715L6.36608 23.3049C5.87176 22.7405 5.55595 22.0159 5.50674 21.219L5.5 21V20C5.5 19.5347 5.5908 19.0906 5.75565 18.6845C5.03934 18.0865 4.56633 17.2061 4.50645 16.2142L4.5 16V10C4.5 9.2203 5.09489 8.57955 5.85554 8.50687L6 8.5H12.5V2C12.5 1.2203 13.0949 0.579551 13.8555 0.506867L14 0.5H52ZM26.5 3.5H15.5V8.5H22C22.7797 8.5 23.4204 9.09489 23.4931 9.85554L23.5 10V14.5H44C44.8284 14.5 45.5 15.1716 45.5 16C45.5 16.7797 44.9051 17.4204 44.1445 17.4931L44 17.5L23.1627 17.501C22.9446 17.9597 22.6297 18.3635 22.2443 18.6858C22.3817 19.0231 22.4677 19.3878 22.4925 19.7692L22.5 20V20.5H44C44.8284 20.5 45.5 21.1716 45.5 22C45.5 22.7797 44.9051 23.4204 44.1445 23.4931L44 23.5H21.686L22.486 26.5H44C44.8284 26.5 45.5 27.1716 45.5 28C45.5 28.7797 44.9051 29.4204 44.1445 29.4931L44 29.5H23.286L24.086 32.5H44C44.8284 32.5 45.5 33.1716 45.5 34C45.5 34.7797 44.9051 35.4204 44.1445 35.4931L44 35.5H24.886L25.2106 36.715C26.0711 37.0323 26.7726 37.6779 27.1632 38.5L44 38.5C44.8284 38.5 45.5 39.1716 45.5 40C45.5 40.7797 44.9051 41.4204 44.1445 41.4931L44 41.5H27.5V44C27.5 44.7797 26.9051 45.4204 26.1445 45.4931L26 45.5H15.5V50.5H50.5V3.5H39.5V8C39.5 8.7797 38.9051 9.42045 38.1445 9.49313L38 9.5H28C27.2203 9.5 26.5796 8.90511 26.5069 8.14446L26.5 8V3.5ZM3.50806 39.9101C3.55039 39.6769 3.75454 39.5 4 39.5H24L24.0899 39.5081L24.1745 39.5313C24.3646 39.6021 24.5 39.7852 24.5 40V42.5H3.5V40L3.50806 39.9101ZM18.847 24.5H9.152L5.952 36.5H22.047L18.847 24.5ZM9 19.5H19L19.0899 19.5081C19.3231 19.5504 19.5 19.7545 19.5 20V21L19.4919 21.0899C19.4496 21.3231 19.2455 21.5 19 21.5H9L8.91012 21.4919C8.67688 21.4496 8.5 21.2455 8.5 21V20L8.50806 19.9101C8.55039 19.6769 8.75454 19.5 9 19.5ZM9.5 11.5H7.5V16C7.5 16.2148 7.63542 16.3979 7.82553 16.4687L7.91012 16.4919L8 16.5H20C20.2455 16.5 20.4496 16.3231 20.4919 16.0899L20.5 16V11.5H18.5V13C18.5 13.8284 17.8284 14.5 17 14.5C16.2203 14.5 15.5796 13.9051 15.5069 13.1445L15.5 13V11.5H12.5V13C12.5 13.8284 11.8284 14.5 11 14.5C10.2203 14.5 9.57955 13.9051 9.50687 13.1445L9.5 13V11.5ZM29.5 3.5H36.5V6.5H29.5V3.5Z" fill="#010101"/>
</svg>
