<svg width="58" height="42" viewBox="0 0 58 42" fill="none" xmlns="http://www.w3.org/2000/svg">
<path fill-rule="evenodd" clip-rule="evenodd" d="M51 0.5C52.8686 0.5 54.3951 1.96428 54.4948 3.80796L54.5 4V32.5H56C56.7797 32.5 57.4204 33.0949 57.4931 33.8555L57.5 34V38C57.5 39.8686 56.0357 41.3951 54.192 41.4948L54 41.5H4C2.13144 41.5 0.604874 40.0357 0.505179 38.192L0.5 38V34C0.5 33.2203 1.09489 32.5796 1.85554 32.5069L2 32.5H3.5V4C3.5 2.13144 4.96428 0.604874 6.80796 0.505179L7 0.5H51ZM54.5 38V35.5H3.5V38C3.5 38.2148 3.63542 38.3979 3.82553 38.4687L3.91012 38.4919L4 38.5H54C54.2455 38.5 54.4496 38.3231 54.4919 38.0899L54.5 38ZM7 3.5H27.5V4L27.5069 4.14446C27.5796 4.90511 28.2203 5.5 29 5.5C29.8284 5.5 30.5 4.82843 30.5 4V3.5H51L51.0899 3.50806L51.1745 3.53128C51.3646 3.60207 51.5 3.78522 51.5 4V32.5H6.5V4L6.50806 3.91012C6.55039 3.67688 6.75454 3.5 7 3.5ZM33 9.5C33.7797 9.5 34.4204 10.0949 34.4931 10.8555L34.5 11L34.5006 12.6501C35.4579 12.8446 36.349 13.2213 37.1361 13.7426L38.3033 12.5754C38.8891 11.9896 39.8388 11.9896 40.4246 12.5754C40.9759 13.1267 41.0084 14.0004 40.5219 14.5897L40.4246 14.6967L39.2574 15.8639C39.7789 16.6513 40.1557 17.5427 40.3501 18.5004L42 18.5C42.8284 18.5 43.5 19.1716 43.5 20C43.5 20.7797 42.9051 21.4204 42.1445 21.4931L42 21.5L40.3499 21.5006C40.1554 22.4579 39.7787 23.349 39.2574 24.1361L40.4246 25.3033C41.0104 25.8891 41.0104 26.8388 40.4246 27.4246C39.8733 27.976 38.9996 28.0084 38.4103 27.5219L38.3033 27.4246L37.1361 26.2574C36.349 26.7787 35.4579 27.1554 34.5006 27.3499L34.5 29C34.5 29.8284 33.8284 30.5 33 30.5C32.2203 30.5 31.5796 29.9051 31.5069 29.1445L31.5 29L31.5004 27.3501C30.5427 27.1557 29.6513 26.7789 28.8639 26.2574L27.6967 27.4246C27.1109 28.0104 26.1612 28.0104 25.5754 27.4246C25.024 26.8733 24.9916 25.9996 25.4781 25.4103L25.5754 25.3033L26.7426 24.1361C26.2213 23.349 25.8446 22.4579 25.6501 21.5006L24 21.5C23.1716 21.5 22.5 20.8284 22.5 20C22.5 19.2203 23.0949 18.5796 23.8555 18.5069L24 18.5L25.6499 18.5004C25.8443 17.5427 26.2211 16.6513 26.7426 15.8639L25.5754 14.6967C24.9896 14.1109 24.9896 13.1612 25.5754 12.5754C26.1267 12.0241 27.0004 11.9916 27.5897 12.4781L27.6967 12.5754L28.8639 13.7426C29.6513 13.2211 30.5427 12.8443 31.5004 12.6499L31.5 11C31.5 10.1716 32.1716 9.5 33 9.5ZM14 27C14 25.8954 13.1046 25 12 25C10.8954 25 10 25.8954 10 27C10 28.1046 10.8954 29 12 29C13.1046 29 14 28.1046 14 27ZM33 15.5C30.5147 15.5 28.5 17.5147 28.5 20C28.5 22.4853 30.5147 24.5 33 24.5C35.4853 24.5 37.5 22.4853 37.5 20C37.5 17.5147 35.4853 15.5 33 15.5ZM19.4931 7.85554C19.4204 7.09489 18.7797 6.5 18 6.5C17.1716 6.5 16.5 7.17157 16.5 8L16.4999 8.75609C15.9733 8.94224 15.4916 9.22365 15.0757 9.57961L14.4199 9.20096L14.2913 9.13468C13.5962 8.8173 12.7607 9.07476 12.3708 9.75C11.9566 10.4674 12.2024 11.3848 12.9199 11.799L13.575 12.1776C13.5257 12.4442 13.5 12.7191 13.5 13C13.5 13.2809 13.5257 13.5558 13.575 13.8224L12.9199 14.201L12.7982 14.2791C12.1758 14.7224 11.981 15.5748 12.3708 16.25C12.785 16.9674 13.7024 17.2133 14.4199 16.799L15.0757 16.4204C15.4916 16.7763 15.9733 17.0578 16.4999 17.2439L16.5 18L16.5069 18.1445C16.5796 18.9051 17.2203 19.5 18 19.5C18.8284 19.5 19.5 18.8284 19.5 18L19.5011 17.2436C20.0273 17.0574 20.5086 16.7761 20.9243 16.4204L21.5801 16.799L21.7087 16.8653C22.4038 17.1827 23.2393 16.9252 23.6292 16.25C24.0434 15.5326 23.7976 14.6152 23.0801 14.201L22.425 13.8224C22.4743 13.5558 22.5 13.2809 22.5 13C22.5 12.7191 22.4743 12.4442 22.425 12.1776L23.0801 11.799L23.2018 11.7209C23.8242 11.2776 24.019 10.4252 23.6292 9.75C23.215 9.03256 22.2976 8.78675 21.5801 9.20096L20.9243 9.57961C20.5086 9.22388 20.0273 8.9426 19.5011 8.75644L19.5 8L19.4931 7.85554ZM18 11.5C17.1716 11.5 16.5 12.1716 16.5 13C16.5 13.8284 17.1716 14.5 18 14.5C18.8284 14.5 19.5 13.8284 19.5 13C19.5 12.1716 18.8284 11.5 18 11.5ZM48 9C48 7.89543 47.1046 7 46 7C44.8954 7 44 7.89543 44 9C44 10.1046 44.8954 11 46 11C47.1046 11 48 10.1046 48 9Z" fill="#010101"/>
</svg>
