<svg width="49" height="49" viewBox="0 0 49 49" fill="none" xmlns="http://www.w3.org/2000/svg">
<path fill-rule="evenodd" clip-rule="evenodd" d="M48.692 1.53543C48.5777 0.859611 48.014 0.339132 47.3176 0.290545L45.9961 0.198345L45.449 0.164279C34.702 -0.424528 24.6159 3.76628 17.4978 11.0615C17.258 10.937 16.9817 10.8757 16.6926 10.8979L7.50017 11.605L7.33698 11.6266C6.90793 11.7076 6.53218 11.9726 6.31285 12.3564L0.655997 22.2559L0.594394 22.3754C0.186101 23.2603 0.726488 24.3155 1.71176 24.4797L8.81797 25.6634C8.62264 26.2961 8.44357 26.9371 8.28132 27.5861C8.15353 28.0972 8.30331 28.6379 8.67588 29.0105L19.9896 40.3242L20.096 40.4209C20.4638 40.7243 20.9572 40.8365 21.4245 40.7161L21.9137 40.5901L22.6284 40.3928L23.3362 40.1818L24.5205 47.2884L24.5499 47.4261C24.7848 48.323 25.782 48.7946 26.6248 48.4058L26.7443 48.3442L36.6438 42.6873L36.782 42.5979C37.091 42.3732 37.3027 42.0386 37.3735 41.6632L37.3951 41.5L38.1022 32.3076L38.1057 32.1358C38.0974 31.9094 38.038 31.6943 37.9373 31.5028C45.3614 24.2586 49.5653 13.9475 48.8018 3.00404L48.7096 1.68251L48.692 1.53543ZM13.0158 38.0959C13.5023 37.5066 13.4698 36.6329 12.9185 36.0816C12.3327 35.4958 11.383 35.4958 10.7972 36.0816L3.72613 43.1527L3.62884 43.2597C3.14237 43.8489 3.1748 44.7226 3.72613 45.274C4.31191 45.8598 5.26166 45.8598 5.84745 45.274L12.9185 38.2029L13.0158 38.0959ZM8.06606 34.5604C8.55253 33.9711 8.5201 33.0974 7.96877 32.5461C7.38298 31.9603 6.43324 31.9603 5.84745 32.5461L2.31192 36.0816L2.21462 36.1886C1.72816 36.7778 1.76059 37.6516 2.31192 38.2029C2.8977 38.7887 3.84745 38.7887 4.43324 38.2029L7.96877 34.6674L8.06606 34.5604ZM16.4541 41.0313C17.0054 41.5827 17.0378 42.4564 16.5513 43.0457L16.4541 43.1527L12.9185 46.6882C12.3327 47.274 11.383 47.274 10.7972 46.6882C10.2459 46.1369 10.2134 45.2631 10.6999 44.6739L10.7972 44.5669L14.3327 41.0313C14.9185 40.4455 15.8683 40.4455 16.4541 41.0313ZM14.8884 14.0447L8.52314 14.5346L4.32929 21.8737L9.83777 22.7929C11.0362 19.8212 12.6058 17.066 14.4818 14.5745L14.8884 14.0447ZM26.2068 39.1615C29.3916 37.8766 32.3268 36.1664 34.955 34.1106L34.4655 40.477L27.1265 44.6709L26.2068 39.1615ZM26.6715 35.6916L13.3087 22.3286C12.6664 23.709 12.1135 25.1458 11.6586 26.6328L11.4393 27.3805L11.4067 27.4987L21.5007 37.5927L22.0643 37.4327C23.6595 36.9611 25.1977 36.3773 26.6715 35.6916ZM45.3144 3.16142L45.8075 3.19264L45.8389 3.69006L45.8627 4.18324C46.3717 16.664 39.8617 28.1288 29.4545 34.2324L14.768 19.5457C20.9493 9.00679 32.6321 2.45563 45.3144 3.16142ZM39.0815 9.91864C42.0104 12.8476 42.0104 17.5963 39.0815 20.5252C36.1525 23.4542 31.4038 23.4542 28.4749 20.5252C25.5459 17.5963 25.5459 12.8476 28.4749 9.91864C31.4038 6.9897 36.1525 6.9897 39.0815 9.91864ZM30.5962 12.04C32.3535 10.2826 35.2028 10.2826 36.9601 12.04C38.7175 13.7973 38.7175 16.6466 36.9601 18.4039C35.2028 20.1613 32.3535 20.1613 30.5962 18.4039C28.8388 16.6466 28.8388 13.7973 30.5962 12.04Z" fill="#010101"/>
</svg>
